<svg width="40" height="40" viewBox="0 0 40 40" xmlns="http://www.w3.org/2000/svg">
    <g fill-rule="nonzero" fill="none">
        <path d="M16.503 0h6.994c5.6 0 7.734.603 9.852 1.736a11.812 11.812 0 0 1 4.915 4.915C39.397 8.769 40 10.903 40 16.503v6.994c0 5.6-.603 7.734-1.736 9.852a11.812 11.812 0 0 1-4.915 4.915C31.231 39.397 29.097 40 23.497 40h-6.994c-5.6 0-7.734-.603-9.852-1.736a11.812 11.812 0 0 1-4.915-4.915C.603 31.231 0 29.097 0 23.497v-6.994c0-5.6.603-7.734 1.736-9.852a11.812 11.812 0 0 1 4.915-4.915C8.769.603 10.903 0 16.503 0z" fill="#212121"/>
        <g transform="translate(8.718 10.01)">
            <ellipse fill="#FFE1A4" cx="11.549" cy="10.18" rx="8.874" ry="8.818"/>
            <path d="M22.94 9.364 17.972.824A1.646 1.646 0 0 0 16.549 0H6.61c-.586 0-1.129.311-1.423.816L.22 9.364a1.624 1.624 0 0 0 0 1.631l4.968 8.549c.294.505.837.816 1.423.816h9.938c.587 0 1.129-.311 1.423-.816l4.968-8.54a1.624 1.624 0 0 0 0-1.64zm-4.342 2.29h-3.251c-.394 0-.772.154-1.05.43a1.468 1.468 0 0 0-.436 1.043v.174c0 .714.583 1.293 1.302 1.293.819 0 1.482.66 1.482 1.473 0 .813-.663 1.473-1.482 1.473H7.996c-.82 0-1.483-.66-1.483-1.473 0-.813.664-1.473 1.483-1.473h1.949a1.487 1.487 0 0 0 1.328-.721 1.466 1.466 0 0 0 0-1.504 1.487 1.487 0 0 0-1.328-.722H4.562a1.478 1.478 0 0 1-1.331-1.466c0-.756.575-1.39 1.331-1.467h3.251a1.49 1.49 0 0 0 1.053-.434A1.47 1.47 0 0 0 9.3 7.233v-.175a1.298 1.298 0 0 0-1.302-1.291 1.479 1.479 0 0 1-1.433-1.474c0-.794.634-1.446 1.433-1.473h7.168c.799.027 1.433.679 1.433 1.473 0 .795-.634 1.447-1.433 1.474h-1.95a1.487 1.487 0 0 0-1.328.722 1.466 1.466 0 0 0 0 1.503c.277.464.786.74 1.328.722h5.383c.8.027 1.433.68 1.433 1.474 0 .794-.633 1.446-1.433 1.473v-.007z" fill="#F2C75C"/>
        </g>
    </g>
</svg>
