<svg width="84" height="24" viewBox="0 0 84 24" fill="none" xmlns="http://www.w3.org/2000/svg">
<path fill-rule="evenodd" clip-rule="evenodd" d="M18.0776 2C20.785 2 23 4.21508 23 6.92246V18.0775C23 20.7849 20.785 23 18.0776 23H13.073L15.3997 19.7001C16.4127 18.2635 15.9177 17.2475 15.0288 16.058L12.4827 12.5249L15.0288 8.99187C15.9177 7.80238 16.4127 6.78639 15.3997 5.34969L13.0387 2H18.0776ZM10.6197 2L12.9224 5.08452L12.9468 5.12037C13.0384 5.26045 13.3541 5.79082 13.2817 6.35217C13.1971 7.00705 12.6901 7.64088 12.6901 7.64088L10.2662 11.1438C10.0724 11.4438 9.87731 11.7857 9.78586 12.0925C9.75081 12.2101 9.73328 12.3662 9.73233 12.5249C9.73328 12.6836 9.75081 12.8397 9.78586 12.9573C9.87731 13.2642 10.0724 13.606 10.2662 13.906L12.6901 17.409C12.6901 17.409 13.1971 18.0428 13.2817 18.6977C13.3541 19.259 13.0384 19.7894 12.9468 19.9295L12.9224 19.9653L10.656 23H6.92241C4.21509 23 2 20.7849 2 18.0775V6.92246C2 4.21508 4.21509 2 6.92241 2H10.6197ZM16.7987 7.30864C16.7593 8.263 16.1749 9.22451 15.6104 9.96532L16.2944 10.9129L17.4235 12.4619L16.2944 14.0109L15.6104 14.9585C16.1749 15.6993 16.7593 16.6607 16.7987 17.6152L19.4607 13.8547C19.4607 13.8547 19.9849 13.1128 20.0188 12.4619C19.9849 11.811 19.4607 11.0691 19.4607 11.0691L16.7987 7.30864Z" fill="white"/>
<path fill-rule="evenodd" clip-rule="evenodd" d="M36.9365 16.9277C36.6663 17.2108 36.3102 17.3924 35.8771 17.4656C35.5918 17.5214 34.9032 17.5495 33.8313 17.5495H31.1109V13.9459H33.4769C34.8285 13.9459 35.7177 14.0116 36.1188 14.1415C36.5142 14.2697 36.8203 14.4764 37.0284 14.7567C37.2369 15.036 37.3422 15.3824 37.3422 15.7851C37.3422 16.2618 37.2056 16.6459 36.9365 16.9277ZM47.9577 13.8785H45.404V14.8493V15.9187V19.7264C45.404 19.8777 45.2792 20 45.1257 20H42.6803C42.5265 20 42.4018 19.8777 42.4018 19.7264V15.9187V8.40024V6.34114C42.4018 6.1902 42.5265 6.06786 42.6803 6.06786H45.1257C45.2792 6.06786 45.404 6.1902 45.404 6.34114V8.19224V11.2184V11.4296H48.1802C49.4595 9.72643 50.2044 8.59521 51.7528 6.22686C51.8167 6.12906 51.9271 6.06971 52.0453 6.06971H55.0383C55.2053 6.06971 55.3045 6.25287 55.2115 6.38913L50.8189 12.8021L55.6548 19.6074C55.7513 19.7434 55.6523 19.9297 55.4839 19.9297H52.3521C52.2365 19.9297 52.1285 19.8732 52.0639 19.7785C50.6799 17.7598 49.3292 15.8409 47.9577 13.8785ZM78.1263 12.8021L82.5189 6.38913C82.6118 6.25287 82.5126 6.06971 82.3456 6.06971H79.3526C79.2344 6.06971 79.124 6.12906 79.0601 6.22686L76.3036 10.4428L73.4874 6.22402C73.4232 6.12807 73.3139 6.06971 73.1967 6.06971H70.1735C70.0063 6.06971 69.9068 6.25388 70.0011 6.39014L74.3713 12.6991L69.532 19.6086C69.4369 19.7447 69.5362 19.9297 69.7039 19.9297H72.8181C72.9335 19.9297 73.0416 19.8732 73.1061 19.7791L76.2435 15.2166L79.3712 19.7785C79.4358 19.8732 79.5438 19.9297 79.6594 19.9297H82.7912C82.9596 19.9297 83.0586 19.7434 82.9621 19.6074L78.1263 12.8021ZM67.7754 6H57.393C57.2011 6 57.0457 6.15283 57.0457 6.34114V19.6583C57.0457 19.8466 57.2011 19.9994 57.393 19.9994H67.7754C67.9673 19.9994 68.1228 19.8466 68.1228 19.6583V17.8907C68.1228 17.7023 67.9673 17.5495 67.7754 17.5495H60.1564V13.8785H67.7652C67.9572 13.8785 68.1128 13.7257 68.1128 13.5373V11.7706C68.1128 11.5824 67.9572 11.4296 67.7652 11.4296H60.1564V8.45903H67.7754C67.9673 8.45903 68.1228 8.30677 68.1228 8.11805V6.34114C68.1228 6.15283 67.9673 6 67.7754 6ZM31.1109 8.4215H32.7778C34.1801 8.4215 35.0408 8.43684 35.3346 8.46801C35.8183 8.52318 36.1871 8.68204 36.4298 8.93892C36.6722 9.19586 36.795 9.53531 36.795 9.94873C36.795 10.3797 36.6529 10.7316 36.3712 10.9933C36.0884 11.2597 35.6918 11.4215 35.1929 11.4762C34.9131 11.5074 34.1826 11.5234 33.0209 11.5234H31.1109V8.4215ZM39.8127 13.7896C39.3474 13.2221 38.6851 12.8064 37.8418 12.5523C38.5557 12.2187 39.1047 11.7019 39.468 11.0195C39.6692 10.6415 39.788 10.222 39.8166 9.79628C39.8634 9.09235 39.7097 8.45215 39.3608 7.89676C39.054 7.40953 38.6647 7.01369 38.2037 6.71966C37.7429 6.42579 37.2142 6.23027 36.6318 6.1379C36.0533 6.04627 35.1655 6 33.9936 6H28.3478C28.1556 6 28 6.1522 28 6.34114V19.6584C28 19.847 28.1556 20 28.3478 20H33.1121C35.0184 19.9867 36.2374 19.955 36.7352 19.9044C37.5372 19.8216 38.2226 19.597 38.7719 19.2372C39.3212 18.8775 39.7604 18.3888 40.0773 17.7864C40.3936 17.1837 40.5547 16.5556 40.5547 15.9187C40.5547 15.1074 40.3048 14.3912 39.8127 13.7896Z" fill="white"/>
</svg>
