<svg width="22" height="22" viewBox="0 0 22 22" fill="none" xmlns="http://www.w3.org/2000/svg">
    <path d="M12.8146 21.4682V12.8634C14.8704 13.0832 16.2653 14.0253 16.2653 14.0253L17.5764 12.5493C15.4263 11.021 12.2377 10.9582 12.2377 10.9582L11.7133 5.17981C12.0594 4.94951 12.2902 4.56219 12.2902 4.11207C12.2902 3.41071 11.7133 2.83496 11.0106 2.83496C10.3078 2.83496 9.73095 3.41071 9.73095 4.11207C9.73095 4.56219 9.96169 4.95998 10.3078 5.17981L9.78339 10.9582C9.78339 10.9582 6.59485 11.0105 4.44469 12.5493L5.75577 14.0253C5.75577 14.0253 7.15075 13.0832 9.20652 12.8634V21.4682C1.17225 15.5223 0.511467 6.88611 0.532445 4.01785C0.532445 3.42117 0.889057 2.87683 1.43446 2.63607C3.03922 1.92424 6.69974 0.531982 11.0001 0.531982C15.3004 0.531982 18.9609 1.92424 20.5657 2.63607C21.1111 2.87683 21.4677 3.42117 21.4677 4.01785C21.4887 6.88611 20.8279 15.5223 12.8146 21.4682Z" fill="#FFAF1D"/>
</svg>