<svg width="32" height="32" viewBox="0 0 32 32" xmlns="http://www.w3.org/2000/svg">
    <g transform="translate(.934 2.631)" fill-rule="nonzero" fill="none">
        <circle fill="#FFE1A4" cx="15.024" cy="13.326" r="11.544"/>
        <path d="M29.843 12.259 23.38 1.079A2.139 2.139 0 0 0 21.529 0H8.6C7.837 0 7.13.407 6.75 1.068L.286 12.258a2.137 2.137 0 0 0 0 2.136l6.464 11.19a2.139 2.139 0 0 0 1.85 1.069H21.53c.763 0 1.468-.408 1.85-1.068l6.464-11.18a2.137 2.137 0 0 0 0-2.146zm-5.649 2.997h-4.229a1.93 1.93 0 0 0-1.933 1.928v.228c0 .935.758 1.693 1.693 1.693a1.928 1.928 0 1 1 0 3.856h-9.323a1.928 1.928 0 1 1 0-3.856h2.535a1.931 1.931 0 1 0 0-3.858H5.935a1.93 1.93 0 0 1 0-3.84h4.23a1.931 1.931 0 0 0 1.932-1.939V9.24a1.693 1.693 0 0 0-1.693-1.69 1.93 1.93 0 0 1 0-3.859h9.324a1.93 1.93 0 0 1 0 3.858h-2.536a1.931 1.931 0 1 0 0 3.859h7.002a1.93 1.93 0 0 1 0 3.858v-.01z" fill="#F2C75C"/>
    </g>
</svg>
