<svg width="16" height="16" viewBox="0 0 16 16" xmlns="http://www.w3.org/2000/svg">
    <path d="M7.609 10 5.22 13.652a.667.667 0 0 1-.474.297l-.084.005H1.333a.667.667 0 0 1 0-1.334h2.968L6.015 10h1.594zM2.667 7.333a.667.667 0 0 1 0 1.334H1.333a.667.667 0 0 1 0-1.334h1.334zm4 0a.667.667 0 0 1 0 1.334H5.333a.667.667 0 0 1 0-1.334h1.334zm4 0a.667.667 0 0 1 0 1.334H9.333a.667.667 0 0 1 0-1.334h1.334zm4 0a.667.667 0 0 1 0 1.334h-1.334a.667.667 0 0 1 0-1.334h1.334zm0-5.93a.667.667 0 0 1 0 1.334H12.36L10.226 6H8.632l2.81-4.295a.667.667 0 0 1 .474-.296L12 1.404h2.667z" fill="#FFF" fill-rule="nonzero" opacity=".5"/>
</svg>
