<svg width="16" height="16" viewBox="0 0 16 16" xmlns="http://www.w3.org/2000/svg">
    <path d="M12.182.734c1.344.317 2.53 1.503 2.846 2.846.084.356.098.52.017.805-.085.296-.185.423-.52.758l-8.953 8.953c-.185.186-.24.236-.348.31-.035.024-.071.046-.109.066-.158.085-.245.107-.565.171l-1.347.27c-1.41.282-1.718.297-2.185-.169-.466-.466-.45-.775-.168-2.185l.27-1.346c.024-.126.034-.17.047-.228.031-.13.067-.233.124-.338.084-.158.145-.226.375-.456l8.954-8.954c.197-.197.264-.26.384-.342.115-.08.237-.138.373-.177.286-.081.45-.068.805.016zM2.477 11.266l-.008.007-.005.023a3.36 3.36 0 0 0-.026.122l-.011.056-.27 1.347c-.114.57-.147.764-.156.932l.008.008c.156-.008.333-.037.808-.13l.125-.026 1.347-.27.193-.039c.017-.014.033-.03.058-.054l7.11-7.111-2.02-2.02-7.11 7.111c-.02.022-.034.036-.043.044zm8.097-8.097 2.02 2.019.989-.988.144-.146.035-.034-.002-.013a4.597 4.597 0 0 1-.03-.12c-.2-.852-1.002-1.654-1.854-1.855a4.53 4.53 0 0 1-.12-.03.41.41 0 0 0-.087.072L10.574 3.17z" fill="#FFF" fill-rule="nonzero" opacity=".5"/>
</svg>
