<svg width="32" height="32" viewBox="0 0 32 32" xmlns="http://www.w3.org/2000/svg">
    <path d="M25.211 18.667c.223 0 .343.106.343.303v1.033a7.564 7.564 0 0 1 2.172.76c.171.091.206.228.12.41l-.616 1.246c-.085.182-.256.227-.462.121-.718-.334-1.488-.562-2.326-.562-.856 0-1.42.289-1.42.714 0 .44.684.668 1.54.896 1.47.41 3.438.912 3.438 2.947 0 1.322-.924 2.309-2.463 2.719v1.109c0 .197-.12.304-.343.304H23.16c-.223 0-.343-.107-.343-.304v-.987c-.94-.137-1.881-.426-2.651-.866-.171-.091-.205-.228-.12-.41l.633-1.261c.086-.182.274-.228.462-.122.872.426 1.694.669 2.617.669.975 0 1.591-.289 1.591-.714 0-.638-1.18-.85-2.429-1.215-1.283-.365-2.634-.942-2.634-2.659 0-1.336.975-2.354 2.549-2.734V18.97c0-.197.12-.303.342-.303zm.122-17.334a4 4 0 0 1 4 4V16a1.333 1.333 0 1 1-2.666 0V5.333c0-.736-.597-1.333-1.334-1.333H9.565a3.59 3.59 0 0 1 0 .316l-.001 21.267 1.127-.71a1.333 1.333 0 0 1 1.415-.006l.138.099 1.526 1.242 1.528-1.242a1.334 1.334 0 0 1 1.762.07l.113.122c.465.571.38 1.411-.192 1.876l-2.368 1.928a1.333 1.333 0 0 1-1.684 0l-1.627-1.325-2.36 1.49a1.334 1.334 0 0 1-2.036-.973L6.898 28v-6.667H3.941a1.334 1.334 0 0 1-1.324-1.178L2.61 20l.007-15.814c.181-1.85 1.555-2.853 3.588-2.853h19.13zM16.86 17.09a1.333 1.333 0 1 1 0 2.667h-3.78a1.333 1.333 0 1 1 0-2.667h3.78zM6.204 4c-.766 0-.9.098-.928.316v14.35h1.621L6.9 4.259c.01-.217.01-.252-.417-.257L6.204 4zm14.876 7.757a1.333 1.333 0 0 1 0 2.666h-8a1.333 1.333 0 0 1 0-2.666h8zm0-5.334a1.333 1.333 0 1 1 0 2.667h-8a1.333 1.333 0 0 1 0-2.667h8z" fill="#FFF" fill-rule="nonzero" opacity=".7"/>
</svg>
