<svg width="32" height="32" viewBox="0 0 32 32" xmlns="http://www.w3.org/2000/svg">
    <path d="M10.256 27.464 23.443 5.506c.184-.276.092-.52-.184-.674l-1.442-.736c-.306-.184-.521-.092-.705.184L7.956 26.33c-.184.275-.092.52.215.674l1.41.674c.276.123.522.062.675-.214zm-.981-12.696c3.097 0 5.274-2.086 5.274-5.275 0-3.067-2.177-5.152-5.274-5.152C6.208 4.341 4 6.426 4 9.493c0 3.19 2.208 5.275 5.275 5.275zm0-2.208c-1.687 0-2.914-1.196-2.914-3.067 0-1.748 1.227-2.944 2.914-2.944 1.717 0 2.944 1.196 2.944 2.944 0 1.87-1.258 3.067-2.944 3.067zm13.002 14.965c3.098 0 5.306-2.085 5.306-5.244 0-3.128-2.178-5.152-5.306-5.152s-5.244 2.024-5.244 5.152c0 3.159 2.116 5.244 5.244 5.244zm0-2.177c-1.686 0-2.944-1.227-2.944-3.067 0-1.748 1.258-2.944 2.944-2.944 1.748 0 2.944 1.196 2.944 2.944 0 1.84-1.226 3.067-2.944 3.067z" fill="#FFF" fill-rule="nonzero" opacity=".7"/>
</svg>
