<svg width="16" height="16" viewBox="0 0 16 16" xmlns="http://www.w3.org/2000/svg">
    <path d="M13.333 6.667c.369 0 .667.298.667.666v5.334a2 2 0 0 1-2 2H4a2 2 0 0 1-2-2V7.333a.667.667 0 0 1 1.333 0v5.334c0 .368.299.666.667.666h8a.667.667 0 0 0 .667-.666V7.333c0-.368.298-.666.666-.666zM8.102 1.34l.055.011a.662.662 0 0 1 .314.177l2.667 2.666a.667.667 0 0 1-.943.943l-1.529-1.53v7.059a.667.667 0 0 1-1.333 0V3.609L5.805 5.14a.667.667 0 0 1-.88.055l-.063-.056a.667.667 0 0 1 0-.943L7.529 1.53l.013-.013a.67.67 0 0 1 .05-.043l-.063.056a.67.67 0 0 1 .573-.188z" fill="#FFF" fill-rule="nonzero" opacity=".5"/>
</svg>
