<svg width="24" height="24" viewBox="0 0 24 24" xmlns="http://www.w3.org/2000/svg">
    <g fill="#FFF" fill-rule="nonzero" opacity=".7">
        <path d="M7.339 10.085 12 5.424l4.663 4.663 2.712-2.712L12 0 4.627 7.373l2.712 2.712M0 12l2.712-2.712 2.712 2.711-2.712 2.713L0 12zm7.339 1.915L12 18.576l4.663-4.663 2.714 2.71-.002.002L12 24l-7.373-7.373-.004-.004 2.716-2.708m11.237-1.914 2.712-2.712L24 12.001l-2.712 2.712-2.712-2.712z"/>
        <path d="M14.664 11.999h.001L12 9.333l-1.97 1.97-.226.226-.467.467-.004.004.004.003L12 14.667 14.665 12l.002-.001-.003-.001"/>
    </g>
</svg>
