<svg width="16" height="16" viewBox="0 0 16 16" xmlns="http://www.w3.org/2000/svg">
    <path d="m10.646 10 1.714 2.62h2.307a.667.667 0 0 1 0 1.334H12l-.084-.005a.667.667 0 0 1-.474-.297L9.052 10h1.594zm-7.98-2.667a.667.667 0 0 1 0 1.334H1.334a.667.667 0 0 1 0-1.334h1.334zm4 0a.667.667 0 0 1 0 1.334H5.334a.667.667 0 0 1 0-1.334h1.334zm4 0a.667.667 0 0 1 0 1.334H9.334a.667.667 0 0 1 0-1.334h1.334zm4 0a.667.667 0 0 1 0 1.334h-1.333a.667.667 0 0 1 0-1.334h1.334zM4.663 1.403l.084.006a.667.667 0 0 1 .474.296L8.03 6H6.436L4.3 2.738H1.333a.667.667 0 0 1 0-1.334h3.33z" fill="#FF7B41" fill-rule="nonzero"/>
</svg>
