<svg width="25" height="25" viewBox="0 0 25 25" xmlns="http://www.w3.org/2000/svg">
    <path d="m14.707 9.707-4.995 4.995a1 1 0 0 1-1.414 0L3.303 9.707a1 1 0 1 1 1.414-1.414l3.289 3.289V4a1 1 0 1 1 2 0v7.58l3.287-3.287a1 1 0 0 1 1.32-.083l.094.083a1 1 0 0 1 0 1.414zm1.65 1.532.016-.013.011-.01.035-.026a1.042 1.042 0 0 1 .108-.069l.055-.027a.961.961 0 0 1 .111-.044l.046-.014a.945.945 0 0 1 .117-.025l.06-.007a1.03 1.03 0 0 1 .07-.004h.038l.036.001h-.035l.062.002.067.008a1.083 1.083 0 0 1 .117.025l.024.007.023.007a.943.943 0 0 1 .27.137.905.905 0 0 1 .124.106l4.995 4.995a1 1 0 1 1-1.414 1.414l-3.287-3.29V21.9a1 1 0 1 1-2 0v-7.486l-3.289 3.288a1 1 0 0 1-1.32.083l-.094-.083a1 1 0 0 1 0-1.414l4.995-4.995.059-.054z" fill="#FFF" fill-rule="nonzero"/>
</svg>
