<svg width="32" height="32" viewBox="0 0 32 32" xmlns="http://www.w3.org/2000/svg">
    <path d="M16 1.333c3.304 0 6 1.303 5.222 3.934-.384 1.298-1.124 2.584-2.014 3.576C23.634 11.043 28 17.166 28 22.667c0 4.636-5.918 8-12 8s-12-3.364-12-8c0-5.501 4.366-11.623 8.793-13.823-.891-.993-1.631-2.28-2.015-3.577C10 2.636 12.696 1.333 16 1.333zm0 9.334c-3.662 0-9.333 6.543-9.333 12C6.667 25.427 11.195 28 16 28c4.805 0 9.333-2.574 9.333-5.333 0-5.457-5.67-12-9.333-12zm0 1.666a1 1 0 0 1 1 1v.748c1.131.193 2.007.74 2.619 1.78a1.333 1.333 0 0 1-2.299 1.352c-.23-.393-.537-.531-1.26-.546-.74-.015-.98.192-.98.5 0 .518.268.784 1.315.784 2.092 0 3.605 1.102 3.605 3.314 0 1.526-1.164 2.766-2.666 3.218v.85a1.333 1.333 0 1 1-2.667 0v-.883c-1.143-.373-2.016-1.216-2.553-2.427a1.333 1.333 0 0 1 2.438-1.08c.328.74.78 1.057 1.535 1.057.7 0 1.246-.433 1.246-.735 0-.524-.17-.648-.938-.648-2.517 0-3.981-1.456-3.981-3.45 0-1.539 1.027-2.708 2.586-3.058v-.776l.007-.116a1 1 0 0 1 .993-.884zM16 4c-.951 0-1.838.162-2.378.423-.223.108-.269.118-.28.106l.073.228C13.99 6.397 15.44 8 16 8c.564 0 2.037-1.635 2.602-3.29l.062-.197-.005.015c-.028.007-.071-.007-.184-.059l-.097-.046C17.838 4.163 16.95 4 16 4z" fill="#FFF" fill-rule="nonzero" opacity=".7"/>
</svg>
