<svg width="1640" height="484" viewBox="0 0 1640 484" fill="none" xmlns="http://www.w3.org/2000/svg">
<g clip-path="url(#clip0_18_419)">
<mask id="path-1-inside-1_18_419" fill="white">
<path d="M0 -75H1640V484H0V-75Z"/>
</mask>
<path d="M0 -75H1640V484H0V-75Z" fill="url(#paint0_linear_18_419)"/>
<path d="M0 -75V-75.5H-0.5V-75H0ZM1640 -75H1640.5V-75.5H1640V-75ZM1640 484V484.5H1640.5V484H1640ZM0 484H-0.5V484.5H0V484ZM0 -74.5H1640V-75.5H0V-74.5ZM1639.5 -75V484H1640.5V-75H1639.5ZM1640 483.5H0V484.5H1640V483.5ZM0.5 484V-75H-0.5V484H0.5Z" fill="white" fill-opacity="0.15" mask="url(#path-1-inside-1_18_419)"/>
<path opacity="0.9" fill-rule="evenodd" clip-rule="evenodd" d="M1357.05 692H283.951V559.903C283.951 559.903 148.971 559.903 143.109 692H143.097V559.903H283.951C283.951 559.903 283.919 424.734 151.576 419.049H283.951V559.903C283.951 559.903 424.87 559.903 425 419.049V278H283.951C283.951 278 283.984 413.169 416.327 418.854H283.951V278C283.951 278 148.782 278 143.097 410.375V278H283.951C283.951 278 283.919 142.831 151.576 137.146H283.951V278C283.951 278 424.87 278 425 137.146V-3.90256H283.951C283.951 -3.90256 283.984 131.266 416.327 136.951H283.951V-3.90256C283.951 -3.90256 148.782 -3.90256 143.097 128.473V-3.90256H283.951C283.951 -3.90256 283.951 -39.5478 266.032 -75H1374.97C1357.05 -39.5478 1357.05 -3.90256 1357.05 -3.90256H1497.9V128.473C1492.22 -3.90256 1357.05 -3.90256 1357.05 -3.90256V136.951H1224.67C1357.02 131.266 1357.05 -3.90256 1357.05 -3.90256H1216V137.146C1216.13 278 1357.05 278 1357.05 278V137.146H1489.42C1357.08 142.831 1357.05 278 1357.05 278H1497.9V410.375C1492.22 278 1357.05 278 1357.05 278V418.854H1224.67C1357.02 413.169 1357.05 278 1357.05 278H1216V419.049C1216.13 559.903 1357.05 559.903 1357.05 559.903V419.049H1489.42C1357.08 424.734 1357.05 559.903 1357.05 559.903H1497.9V692H1497.89C1492.03 559.903 1357.05 559.903 1357.05 559.903V692ZM1638.95 559.903H1498.1V427.527C1503.78 559.903 1638.95 559.903 1638.95 559.903ZM1640 559.921C1639.31 559.903 1638.95 559.903 1638.95 559.903V419.049H1640V545.909C1638.95 554.541 1638.95 559.903 1638.95 559.903H1640V559.921ZM1640 278.018C1639.31 278 1638.95 278 1638.95 278V418.854H1506.58C1638.92 413.169 1638.95 278 1638.95 278H1498.1V145.625C1503.78 278 1638.95 278 1638.95 278V137.146H1640V264.007C1638.95 272.639 1638.95 278 1638.95 278H1640V278.018ZM1640 -3.88422C1639.31 -3.90256 1638.95 -3.90256 1638.95 -3.90256V136.951H1506.58C1638.92 131.266 1638.95 -3.90256 1638.95 -3.90256H1498.1V-75H1513.16C1549.64 -3.90255 1638.95 -3.90256 1638.95 -3.90256V-75H1640V-17.9249C1638.95 -9.27586 1638.95 -3.90256 1638.95 -3.90256H1640V-3.88422ZM0 559.954V559.903H2.04883C2.04883 559.903 2.04688 551.52 0 538.842V419.049H2.04883V559.903C2.04883 559.903 137.218 559.903 142.903 427.527V559.903H2.04883C2.04883 559.903 1.33179 559.903 0 559.954ZM2.04883 278C2.04883 278 1.33179 278 0 278.051V278H2.04883ZM2.04883 278C2.04883 278 137.218 278 142.903 145.625V278H2.04883ZM2.04883 278V418.854H134.424C2.0813 413.169 2.04883 278 2.04883 278ZM2.04883 278C2.04883 278 2.04688 269.618 0 256.94V137.146H2.04883V278ZM0 -3.85141V-3.90256H2.04883C2.04883 -3.90256 2.04883 -12.2996 0 -24.9959V-75H2.04883V-3.90256C2.04883 -3.90256 91.3606 -3.90255 127.841 -75H142.903V-3.90256H2.04883C2.04883 -3.90256 2.0813 131.266 134.424 136.951H2.04883V-3.90256C2.04883 -3.90256 1.33179 -3.90256 0 -3.85141Z" fill="url(#paint1_linear_18_419)"/>
</g>
<g clip-path="url(#clip1_18_419)">
<g filter="url(#filter0_f_18_419)">
<ellipse rx="117.179" ry="134.833" transform="matrix(-0.726064 0.687627 0.687627 0.726064 1151.43 247.731)" fill="#f2c75c" fill-opacity="0.54"/>
</g>
<g filter="url(#filter1_f_18_419)">
<ellipse rx="117.179" ry="134.833" transform="matrix(-0.726064 0.687627 0.687627 0.726064 1180.21 216.777)" fill="url(#paint2_linear_18_419)" fill-opacity="0.92"/>
</g>
<path d="M697 0C722.658 56.0407 778.524 97.5902 839.907 105.168C866.155 108.407 892.791 105.883 919.17 107.796C945.549 109.704 973.037 116.874 991.541 135.743C1022.42 167.228 1020.85 222.942 1056.31 249.171C1072 260.778 1092.39 264.213 1111.91 263.902C1142.55 263.417 1175.32 253.336 1199.54 234.189C1208.52 227.091 1219.19 223.236 1227.87 215.898C1238.03 207.306 1245.13 195.131 1249.48 182.69C1256.89 161.493 1256.77 131.812 1265.79 111.247C1274.02 92.498 1290.74 84.2111 1307.8 72.9146C1325.69 61.0675 1338.21 46.14 1347.2 28.4047C1352.46 18.0024 1355.5 8.67408 1358 0H1107.68C1099.34 0.0436157 1091.01 0.0708755 1082.67 0.0817795C1068.81 0.0981354 1054.93 0.0763275 1041.06 0H697Z" fill="url(#paint3_linear_18_419)"/>
<path d="M1272.46 113.793C1270.25 119.164 1268.44 124.932 1268.48 130.891C1268.53 136.855 1270.71 143.065 1275.02 146.2C1278.25 148.55 1281.84 148.828 1285.42 147.814C1290.8 146.287 1296.14 141.833 1300.17 137.09C1309.6 125.989 1329.17 102.41 1313.21 91.0478C1299.76 81.4796 1278.39 99.3348 1272.46 113.793Z" fill="url(#paint4_linear_18_419)"/>
<path d="M1177.55 152.606C1140.01 152.606 1109.58 122.226 1109.58 84.7508C1109.58 47.2754 1140.01 16.8956 1177.55 16.8956C1215.09 16.8956 1245.53 47.2754 1245.53 84.7508C1245.53 122.226 1215.09 152.606 1177.55 152.606Z" fill="white" fill-opacity="0.4"/>
<mask id="mask0_18_419" style="mask-type:alpha" maskUnits="userSpaceOnUse" x="1109" y="16" width="137" height="137">
<path d="M1177.55 152.606C1140.01 152.606 1109.58 122.226 1109.58 84.7508C1109.58 47.2754 1140.01 16.8956 1177.55 16.8956C1215.09 16.8956 1245.53 47.2754 1245.53 84.7508C1245.53 122.226 1215.09 152.606 1177.55 152.606Z" fill="white"/>
</mask>
<g mask="url(#mask0_18_419)">
<path d="M1183.48 78.0383C1183.48 80.2296 1183.14 82.3489 1182.53 84.3369C1179.88 92.8861 1171.96 99.0893 1162.62 99.0893C1151.08 99.0893 1141.74 89.6657 1141.74 78.0383C1141.74 71.2846 1144.9 65.2739 1149.81 61.4311C1153.35 58.6515 1157.79 57 1162.61 57C1174.13 57 1183.48 66.4235 1183.48 78.0383Z" fill="url(#paint5_linear_18_419)"/>
<path d="M1183.48 78.0383C1183.48 80.2296 1183.14 82.3489 1182.53 84.3369C1176.65 87.1506 1169.55 88.7194 1162.62 85.7024C1153.38 81.6904 1150.53 70.484 1149.81 61.4311C1153.35 58.6515 1157.79 57 1162.61 57C1174.13 57 1183.48 66.4235 1183.48 78.0383Z" fill="#0B083C"/>
<path d="M1237 130.407V203H1119V120.98C1122.11 116.812 1126.46 113.689 1131.67 111.969C1131.7 111.962 1131.73 111.945 1131.76 111.945C1134.59 111.012 1137.67 110.501 1140.94 110.461C1141.1 110.454 1141.25 110.454 1141.4 110.454H1201.83C1202.48 110.454 1203.12 110.47 1203.75 110.51C1204.07 110.526 1204.38 110.549 1204.7 110.573C1204.89 110.589 1205.08 110.603 1205.27 110.628C1205.79 110.675 1206.3 110.738 1206.81 110.808C1215.24 111.978 1223.21 116.036 1229.6 121.853C1232.41 124.404 1234.91 127.284 1237 130.409V130.407Z" fill="#0B083C"/>
<path d="M1237 128.312V203H1127.97C1124.79 198.456 1121.8 193.706 1119 188.879V120.98C1122.11 116.812 1126.46 113.689 1131.67 111.969C1131.69 111.962 1131.73 111.945 1131.76 111.945C1134.51 110.942 1137.51 110.454 1140.58 110.454C1140.7 110.454 1140.82 110.454 1140.94 110.461C1141.1 110.454 1141.25 110.454 1141.4 110.454H1201.83C1202.48 110.454 1203.12 110.47 1203.75 110.51C1204.07 110.526 1204.38 110.549 1204.7 110.573C1204.89 110.589 1205.08 110.603 1205.27 110.628C1205.79 110.675 1206.3 110.738 1206.81 110.808C1215.24 111.978 1223.21 116.036 1229.6 121.853C1230.95 122.81 1232.25 123.886 1233.5 125.064L1237 128.312Z" fill="url(#paint6_linear_18_419)"/>
<path d="M1188.95 126.262L1168.34 110.501L1179.78 71.9053L1202.74 76.9894L1188.95 126.262Z" fill="#B499FF"/>
<path d="M1209.67 111.361C1209.67 111.361 1204.8 145.138 1179.43 142.936C1154.04 140.745 1146.23 110.45 1146.23 110.45H1201.83C1204.54 110.45 1207.17 110.762 1209.67 111.361Z" fill="#B499FF"/>
<path d="M1209.62 74.9242V75.1508C1209.62 76.2285 1209.5 77.3295 1209.27 78.4324C1207.63 85.9399 1200.78 90.9215 1193.39 90.3458C1192.69 90.2972 1191.99 90.1893 1191.29 90.0346C1190.45 89.8439 1189.63 89.592 1188.86 89.2682C1182.15 86.539 1178.18 79.2581 1179.78 71.9053C1181.32 64.8764 1187.43 60.0512 1194.27 59.9433C1195.42 59.9307 1196.59 60.0387 1197.76 60.3031C1204.75 61.8485 1209.52 68.0265 1209.62 74.9224L1209.62 74.9242Z" fill="#B499FF"/>
<path d="M1209.67 93.4726C1209.67 93.7478 1209.66 94.0231 1209.64 94.2983C1209.18 98.4182 1204.99 101.579 1200.87 100.669L1189.26 98.0944L1188.86 89.2699L1188.16 73.8357L1191.18 73.9922L1209.62 74.9259V75.1526L1209.67 93.4726Z" fill="#B499FF"/>
<path d="M1209.45 72.186C1209.45 72.186 1199.71 81.2137 1187.42 82.9102C1182.16 83.6353 1177.86 84.2307 1176.18 84.0652L1179.78 71.9089C1181.57 63.6979 1189.62 58.495 1197.76 60.2995C1203.78 61.6326 1208.27 66.4523 1209.45 72.186Z" fill="url(#paint7_linear_18_419)"/>
<path d="M1196.39 99.6721L1187.42 97.686L1194.97 104.76L1196.39 99.6721Z" fill="#0B083C"/>
<path d="M1183.5 85.2547C1181.01 84.1201 1179.9 81.164 1181.03 78.6521C1182.16 76.1403 1185.09 75.0238 1187.58 76.1585C1190.07 77.2932 1191.18 80.2493 1190.05 82.7611C1188.93 85.273 1185.99 86.3894 1183.5 85.2547Z" fill="#B499FF"/>
<path d="M1206.1 89.403H1203.58V88.4999H1205.2V84.6013H1206.1V89.403Z" fill="#0B083C"/>
<path d="M1201.33 94.2551C1198.49 94.2551 1196.58 91.6537 1196.5 91.5421L1197.23 91.0114C1197.24 91.0348 1198.95 93.352 1201.32 93.352V94.2551H1201.33Z" fill="#0B083C"/>
</g>
<path d="M960.946 100.164C937.069 100.164 917.713 80.8411 917.713 57.0058C917.713 33.1704 937.069 13.848 960.946 13.848C984.823 13.848 1004.18 33.1704 1004.18 57.0058C1004.18 80.8411 984.823 100.164 960.946 100.164Z" fill="white" fill-opacity="0.4"/>
<mask id="mask1_18_419" style="mask-type:alpha" maskUnits="userSpaceOnUse" x="917" y="13" width="88" height="88">
<path d="M960.946 100.164C937.069 100.164 917.713 80.8411 917.713 57.0058C917.713 33.1704 937.069 13.848 960.946 13.848C984.823 13.848 1004.18 33.1704 1004.18 57.0058C1004.18 80.8411 984.823 100.164 960.946 100.164Z" fill="white"/>
</mask>
<g mask="url(#mask1_18_419)">
<path d="M1002 84.2701V139.592H913.572V74.9225C915.785 73.5111 918.163 72.3357 920.684 71.457C922.441 70.8419 924.248 70.3586 926.121 70.04H926.127C926.571 69.9577 927.027 69.8863 927.478 69.8313H927.483C928.999 69.6281 930.542 69.5238 932.107 69.5238H973.71C976.489 69.5238 979.18 69.8478 981.773 70.4684H981.778C982.113 70.5508 982.432 70.6332 982.756 70.7211H982.767L982.772 70.7266C985.128 71.3636 987.38 72.2424 989.505 73.3408C994.509 75.9276 998.798 79.6952 1002 84.2701Z" fill="#FCBD9D"/>
<path d="M1002 80.3927V104.36C997.222 112.379 991.241 120.035 983.953 125.291C977.302 130.08 969.569 132.881 960.655 132.145C949.94 131.266 940.203 125.142 931.685 116.652C924.797 109.797 918.718 101.405 913.572 92.9806V72.8905C915.884 72.0337 918.278 71.5614 920.684 71.4625C922.441 70.8474 924.248 70.3641 926.121 70.0455H926.127C926.571 69.9632 927.027 69.8918 927.478 69.8368H927.483C928.999 69.6336 930.542 69.5293 932.107 69.5293H973.71C976.489 69.5293 979.18 69.8533 981.773 70.4739H981.778C982.113 70.5563 982.432 70.6387 982.756 70.7266H982.767L982.772 70.7321C985.128 71.3691 987.38 72.2479 989.505 73.3463C992.317 74.0603 995.031 75.3235 997.513 77.1358L1002 80.3927Z" fill="url(#paint8_linear_18_419)"/>
<path d="M954.883 55.0301C931.761 54.2502 926.121 70.0455 926.121 70.0455L961.753 95.2048L982.777 70.732C982.777 70.732 978.01 55.8155 954.888 55.0301H954.883Z" fill="#f2c75c"/>
<path d="M954.883 57.3423C949.508 57.3423 945.151 52.9851 945.151 47.6103C945.151 42.2355 949.508 37.8783 954.883 37.8783C960.258 37.8783 964.615 42.2355 964.615 47.6103C964.615 52.9851 960.258 57.3423 954.883 57.3423Z" fill="url(#paint9_linear_18_419)"/>
<path d="M961.281 81.9194L944.953 69.5402L954.021 39.2238L972.205 43.2166L961.281 81.9194Z" fill="#B499FF"/>
<path d="M971.482 46.7719C966.177 45.9107 962.574 40.9117 963.435 35.6063C964.296 30.3009 969.295 26.6981 974.601 27.5593C979.906 28.4205 983.509 33.4195 982.648 38.7249C981.787 44.0303 976.788 47.6331 971.482 46.7719Z" fill="url(#paint10_linear_18_419)"/>
<path d="M965.696 53.745C959.093 53.745 953.74 48.3919 953.74 41.7886C953.74 35.1854 959.093 29.8323 965.696 29.8323C972.299 29.8323 977.652 35.1854 977.652 41.7886C977.652 48.3919 972.299 53.745 965.696 53.745Z" fill="#B499FF"/>
<path d="M970.721 61.8128L961.522 59.7917L960.649 40.7396L977.647 41.5964L977.691 56.1615C977.74 59.7039 974.198 62.5762 970.721 61.8128Z" fill="#B499FF"/>
<path d="M977.422 39.4435H968.338C964.587 39.3886 964.34 45.2651 959.666 47.3027C955.816 48.9833 952.493 48.9009 951.159 48.7746L954.015 39.2238C955.431 32.7761 961.802 28.6899 968.256 30.1069C973.023 31.1559 976.45 34.6159 977.422 39.4435Z" fill="url(#paint11_linear_18_419)"/>
<path d="M960.155 50.0597C957.989 50.0597 956.233 48.3041 956.233 46.1383C956.233 43.9726 957.989 42.217 960.155 42.217C962.321 42.217 964.076 43.9726 964.076 46.1383C964.076 48.3041 962.321 50.0597 960.155 50.0597Z" fill="#B499FF"/>
<path d="M962.265 41.7887L960.656 58.6714C960.656 58.6714 963.22 63.3397 967.845 64.8061C972.469 66.2725 979.186 64.7841 980.026 63.0651C980.866 61.346 977.698 51.9216 977.698 51.9216C977.698 51.9216 973.375 51.7294 971.629 52.361C969.882 52.9926 969.179 54.8214 969.179 54.8214C969.179 54.8214 966.192 54.6182 965.703 51.0429C965.214 47.4675 965.494 40.0147 965.494 40.0147L962.27 41.7887H962.265Z" fill="#0B083C"/>
<path d="M977.242 51.658H975.457V51.0209H976.611V48.835H977.242V51.658Z" fill="#233559"/>
<path d="M975.457 56.2329C973.447 56.2329 972.101 54.4095 972.046 54.3326L972.557 53.9592C972.557 53.9592 973.776 55.6013 975.457 55.6013V56.2329Z" fill="#B499FF"/>
<path d="M926.675 69.2705L956.795 90.5332L955.683 92.108L925.564 70.8453L926.675 69.2705Z" fill="#25385E"/>
<path d="M981.983 70.1764L983.553 71.2947L968.893 91.877L967.323 90.7587L981.983 70.1764Z" fill="#25385E"/>
<path d="M950.198 81.9195H952.125V117.195H950.198V81.9195Z" fill="white"/>
<path d="M971.244 82.3314H973.172V117.607H971.244V82.3314Z" fill="white"/>
</g>
<path d="M1013.82 133.813C1013.82 144.99 1017.95 155.207 1024.76 163.019C1032.93 172.391 1044.97 178.312 1058.4 178.312C1071.82 178.312 1084.2 172.217 1092.38 162.61C1098.99 154.847 1102.97 144.793 1102.97 133.813C1102.97 109.236 1083.02 89.3141 1058.4 89.3141C1033.77 89.3141 1013.82 109.236 1013.82 133.813Z" fill="#f2c75c"/>
<mask id="mask2_18_419" style="mask-type:alpha" maskUnits="userSpaceOnUse" x="1013" y="89" width="90" height="90">
<path d="M1102.97 133.813C1102.97 144.99 1098.84 155.207 1092.03 163.019C1083.86 172.391 1071.82 178.312 1058.4 178.312C1044.97 178.312 1032.59 172.217 1024.41 162.61C1017.81 154.847 1013.82 144.793 1013.82 133.813C1013.82 109.236 1033.77 89.3141 1058.4 89.3141C1083.02 89.3141 1102.97 109.236 1102.97 133.813Z" fill="white"/>
</mask>
<g mask="url(#mask2_18_419)">
<path d="M1095.79 158.865V208H1017.79V153.978C1021.46 152.772 1025.38 152.119 1029.46 152.119H1074.41C1078.76 152.119 1082.91 152.86 1086.78 154.223C1090.01 155.362 1093.04 156.928 1095.79 158.868V158.865Z" fill="url(#paint12_linear_18_419)"/>
<path d="M1064.74 132.188C1066.74 132.188 1068.37 130.559 1068.37 128.549C1068.37 126.539 1066.74 124.91 1064.74 124.91C1062.73 124.91 1061.11 126.539 1061.11 128.549C1061.11 130.559 1062.73 132.188 1064.74 132.188Z" fill="url(#paint13_linear_18_419)"/>
<path d="M1055 165.531L1072.65 152.126L1062.85 119.304L1043.19 123.627L1055 165.531Z" fill="#B499FF"/>
<path d="M1041.14 123.27C1041.46 121.287 1040.12 119.418 1038.14 119.096C1036.16 118.774 1034.29 120.121 1033.97 122.104C1033.65 124.088 1034.99 125.957 1036.97 126.279C1038.95 126.601 1040.82 125.254 1041.14 123.27Z" fill="url(#paint14_linear_18_419)"/>
<path d="M1039.28 121.121C1041.13 120.352 1042.01 118.223 1041.24 116.366C1040.48 114.51 1038.35 113.628 1036.5 114.397C1034.64 115.166 1033.76 117.295 1034.53 119.151C1035.3 121.008 1037.42 121.89 1039.28 121.121Z" fill="url(#paint15_linear_18_419)"/>
<path d="M1041.52 116.92C1043.53 116.92 1045.16 115.291 1045.16 113.281C1045.16 111.271 1043.53 109.642 1041.52 109.642C1039.52 109.642 1037.89 111.271 1037.89 113.281C1037.89 115.291 1039.52 116.92 1041.52 116.92Z" fill="url(#paint16_linear_18_419)"/>
<path d="M1046.31 113.893C1048.32 113.893 1049.95 112.264 1049.95 110.254C1049.95 108.244 1048.32 106.615 1046.31 106.615C1044.31 106.615 1042.68 108.244 1042.68 110.254C1042.68 112.264 1044.31 113.893 1046.31 113.893Z" fill="url(#paint17_linear_18_419)"/>
<path d="M1053.97 113.002C1055.82 112.233 1056.7 110.104 1055.93 108.248C1055.17 106.391 1053.04 105.509 1051.19 106.278C1049.33 107.047 1048.45 109.176 1049.22 111.033C1049.99 112.889 1052.11 113.771 1053.97 113.002Z" fill="url(#paint18_linear_18_419)"/>
<path d="M1057.92 115.567C1059.93 115.567 1061.55 113.938 1061.55 111.928C1061.55 109.919 1059.93 108.289 1057.92 108.289C1055.91 108.289 1054.29 109.919 1054.29 111.928C1054.29 113.938 1055.91 115.567 1057.92 115.567Z" fill="url(#paint19_linear_18_419)"/>
<path d="M1061.4 119.978C1063.4 119.978 1065.03 118.349 1065.03 116.339C1065.03 114.33 1063.4 112.701 1061.4 112.701C1059.39 112.701 1057.76 114.33 1057.76 116.339C1057.76 118.349 1059.39 119.978 1061.4 119.978Z" fill="url(#paint20_linear_18_419)"/>
<path d="M1063.84 126.004C1065.84 126.004 1067.47 124.375 1067.47 122.366C1067.47 120.356 1065.84 118.727 1063.84 118.727C1061.83 118.727 1060.21 120.356 1060.21 122.366C1060.21 124.375 1061.83 126.004 1063.84 126.004Z" fill="url(#paint21_linear_18_419)"/>
<path d="M1037.31 121.869V122.072C1037.31 122.991 1037.4 123.925 1037.6 124.854C1038.52 129.073 1041.41 132.345 1045.08 133.946C1047.49 134.998 1050.24 135.334 1053 134.722C1053.72 134.568 1054.41 134.351 1055.08 134.075C1060.82 131.758 1064.23 125.567 1062.84 119.297C1061.32 112.32 1054.42 107.898 1047.46 109.44C1043.58 110.289 1040.5 112.799 1038.79 116.046C1037.86 117.815 1037.34 119.796 1037.3 121.866L1037.31 121.869Z" fill="#B499FF"/>
<path d="M1037.26 137.641C1037.25 138.371 1037.38 139.074 1037.62 139.72C1038.65 142.517 1041.76 144.429 1044.8 143.758L1054.73 141.569L1055.08 134.079L1055.68 120.946L1049.44 121.258L1037.31 121.866V122.068L1037.26 137.637V137.641Z" fill="#B499FF"/>
<path d="M1037.56 119.545H1047.37C1051.43 119.489 1051.69 125.847 1056.74 128.056C1060.91 129.877 1064.5 129.786 1065.94 129.647L1062.85 119.307C1061.32 112.323 1054.43 107.898 1047.46 109.432C1042.31 110.565 1038.6 114.316 1037.55 119.541L1037.56 119.545Z" fill="url(#paint22_linear_18_419)"/>
<path d="M1056.22 131.034C1058.56 131.034 1060.45 129.134 1060.45 126.791C1060.45 124.447 1058.56 122.547 1056.22 122.547C1053.88 122.547 1051.98 124.447 1051.98 126.791C1051.98 129.134 1053.88 131.034 1056.22 131.034Z" fill="#B499FF"/>
<path d="M1039.68 132.764H1037.75V129.713H1038.43V132.079H1039.68V132.764Z" fill="url(#paint23_linear_18_419)"/>
<path d="M1039.68 137.724V137.039C1041.5 137.039 1042.8 135.278 1042.81 135.26L1043.36 135.666C1043.3 135.75 1041.85 137.728 1039.68 137.728V137.724Z" fill="url(#paint24_linear_18_419)"/>
</g>
<path d="M813.02 43.3159C813.02 52.5188 817.389 60.6967 824.172 65.9034C828.984 69.5998 835.014 71.7969 841.551 71.7969C848.089 71.7969 854.692 69.3872 859.607 65.3691C866.002 60.1461 870.082 52.208 870.082 43.3159C870.082 27.587 857.308 14.8348 841.551 14.8348C825.794 14.8348 813.02 27.587 813.02 43.3159Z" fill="#181F6D"/>
<path d="M815.389 43.3159C815.389 51.7501 819.398 59.252 825.613 64.0279C830.026 67.419 835.554 69.4308 841.55 69.4308C847.547 69.4308 853.598 67.2227 858.104 63.5372C863.97 58.7504 867.711 51.4666 867.711 43.3159C867.711 28.89 855.996 17.201 841.55 17.201C827.104 17.201 815.389 28.8954 815.389 43.3159Z" fill="#242F65"/>
<path d="M841.885 46.9033C836.54 46.9033 832.207 42.578 832.207 37.2424C832.207 31.9068 836.54 27.5815 841.885 27.5815C847.23 27.5815 851.563 31.9068 851.563 37.2424C851.563 42.578 847.23 46.9033 841.885 46.9033Z" fill="url(#paint25_linear_18_419)"/>
<path d="M825.615 64.0279C830.028 67.419 835.555 69.4308 841.552 69.4308C847.548 69.4308 853.6 67.2228 858.106 63.5372C857.232 55.3647 850.301 49.0023 841.885 49.0023C833.469 49.0023 826.265 55.621 825.615 64.0279Z" fill="url(#paint26_linear_18_419)"/>
<path d="M1034.21 29.904C1034.21 35.6777 1036.95 40.808 1041.2 44.0737C1044.22 46.3908 1048 47.7701 1052.1 47.7701C1056.21 47.7701 1060.35 46.2599 1063.43 43.7357C1067.45 40.459 1070 35.4814 1070 29.8986C1070 20.0305 1061.99 12.0325 1052.1 12.0325C1042.22 12.0325 1034.21 20.0305 1034.21 29.8986V29.904Z" fill="black"/>
<path d="M1035.59 29.904C1035.59 35.2306 1038.12 39.9684 1042.04 42.9833C1044.83 45.1205 1048.32 46.3962 1052.1 46.3962C1055.89 46.3962 1059.71 45.0005 1062.56 42.6725C1066.26 39.6467 1068.63 35.0507 1068.63 29.904C1068.63 20.7992 1061.23 13.4118 1052.1 13.4118C1042.98 13.4118 1035.58 20.7938 1035.58 29.904H1035.59Z" fill="#242F65"/>
<path d="M1052.32 32.1666C1048.94 32.1666 1046.21 29.4352 1046.21 26.0659C1046.21 22.6965 1048.94 19.9651 1052.32 19.9651C1055.69 19.9651 1058.43 22.6965 1058.43 26.0659C1058.43 29.4352 1055.69 32.1666 1052.32 32.1666Z" fill="url(#paint27_linear_18_419)"/>
<path d="M1042.05 42.9833C1044.83 45.1204 1048.32 46.3962 1052.11 46.3962C1055.89 46.3962 1059.71 45.0005 1062.56 42.6725C1062.01 37.515 1057.63 33.4969 1052.31 33.4969C1046.99 33.4969 1042.45 37.6785 1042.04 42.9833H1042.05Z" fill="url(#paint28_linear_18_419)"/>
<path d="M1263.42 35.2688C1263.42 44.3027 1267.71 52.3389 1274.37 57.4474C1279.09 61.0784 1285.01 63.2319 1291.43 63.2319C1297.86 63.2319 1304.34 60.8657 1309.16 56.9185C1315.44 51.7937 1319.45 43.9974 1319.45 35.2633C1319.45 19.8179 1306.91 7.29474 1291.43 7.29474C1275.95 7.29474 1263.41 19.8124 1263.41 35.2633L1263.42 35.2688Z" fill="#0E0E44"/>
<path d="M1265.9 35.2688C1265.9 43.5012 1269.81 50.8232 1275.88 55.4792C1280.18 58.7885 1285.58 60.7513 1291.43 60.7513C1297.28 60.7513 1303.18 58.5977 1307.58 54.9994C1313.31 50.3271 1316.96 43.2232 1316.96 35.2688C1316.96 21.1918 1305.53 9.78629 1291.43 9.78629C1277.33 9.78629 1265.9 21.1972 1265.9 35.2688Z" fill="#242F65"/>
<path d="M1282.51 31.2906C1281.43 26.1962 1284.7 21.1969 1289.8 20.1243C1294.91 19.0516 1299.92 22.3119 1300.99 27.4063C1302.06 32.5007 1298.8 37.5 1293.7 38.5727C1288.59 39.6453 1283.58 36.385 1282.51 31.2906Z" fill="url(#paint29_linear_18_419)"/>
<path d="M1275.88 55.4792C1280.18 58.7885 1285.58 60.7513 1291.43 60.7513C1297.28 60.7513 1303.18 58.5977 1307.58 54.9994C1306.73 47.0232 1299.97 40.8134 1291.75 40.8134C1283.54 40.8134 1276.51 47.274 1275.87 55.4737L1275.88 55.4792Z" fill="url(#paint30_linear_18_419)"/>
<path d="M1282.02 454.879C1266.19 420.254 1257.9 406.7 1257.9 390.143C1257.9 373.585 1257.14 348.74 1254.13 330.673C1251.11 312.605 1245.83 293.032 1244.32 289.27C1242.82 285.509 1222.12 268.253 1220.95 260.664C1218.69 253.887 1219.11 251.276 1217.18 250.125C1213 247.634 1206.61 248.081 1202.85 261.416C1196.06 285.503 1217.18 299.809 1217.18 305.828C1217.18 311.847 1213.41 317.871 1213.41 317.871L1196.82 297.546L1111.61 378.846C1111.61 378.846 1133.65 417.871 1141.77 430.035C1153.84 448.102 1170.43 454.121 1173.44 456.384C1176.46 458.641 1190.87 489.483 1190.87 489.483L1282.04 454.879H1282.02Z" fill="url(#paint31_linear_18_419)"/>
<path d="M1097.27 224.534C1097.27 224.534 1079.92 207.971 1072.38 217.005C1064.84 226.038 1075.4 236.577 1078.42 240.339C1081.43 244.101 1096.52 260.664 1096.52 260.664L1097.27 224.528L1097.27 224.534Z" fill="url(#paint32_linear_18_419)"/>
<path d="M1147.79 386.381C1147.79 386.381 1124.72 385.339 1120.42 394.891L1115.25 385.759L1147.79 386.381Z" fill="black"/>
<path d="M1092.02 230.782C1092.02 230.782 1091.64 251.401 1087.66 251.139L1092.02 255.664V230.782Z" fill="black"/>
<path d="M1115.72 181.627H1177.61C1190.71 181.627 1201.34 192.233 1201.34 205.316V362.692C1201.34 375.775 1190.71 386.381 1177.61 386.381H1115.72C1102.61 386.381 1091.99 375.775 1091.99 362.692V205.316C1091.99 192.233 1102.61 181.627 1115.72 181.627Z" fill="#242F65"/>
<path d="M1091.24 262.169C1091.24 262.169 1079.17 265.178 1076.16 275.717C1073.14 286.255 1075.4 296.794 1076.91 299.804C1078.6 303.167 1089.73 301.308 1093.5 294.531C1097.27 287.755 1091.99 275.711 1091.99 274.959C1091.99 274.207 1091.24 262.163 1091.24 262.163L1091.24 262.169Z" fill="url(#paint33_linear_18_419)"/>
<path d="M1091.99 310.348C1091.99 310.348 1076.15 319.382 1074.64 326.158C1073.14 332.935 1078.41 350.245 1078.41 350.245C1078.41 350.245 1074.28 359.901 1077.66 370.57C1082.18 384.871 1089.72 384.118 1092.74 382.613C1095.75 381.109 1097.31 375.58 1095.75 372.075C1092.74 365.298 1090.47 354.759 1090.47 354.759C1090.47 354.759 1098.01 354.007 1098.77 346.478C1099.52 338.949 1091.98 320.128 1091.98 320.128V310.342L1091.99 310.348Z" fill="url(#paint34_linear_18_419)"/>
<path d="M1087.83 355.228C1088.72 355.228 1089.6 355.141 1090.44 354.961C1090.53 354.945 1090.58 354.857 1090.56 354.776C1090.54 354.688 1090.46 354.634 1090.37 354.656C1088.17 355.125 1085.66 354.956 1083.49 354.181C1081.09 353.331 1079.42 352.42 1078.46 350.485C1078.42 350.409 1078.33 350.376 1078.24 350.414C1078.17 350.452 1078.13 350.55 1078.17 350.627C1079.18 352.655 1080.91 353.609 1083.38 354.481C1084.78 354.977 1086.32 355.234 1087.83 355.234L1087.83 355.228Z" fill="black"/>
<path d="M1092.14 275.122C1092.14 275.122 1092.15 275.122 1092.16 275.122C1092.25 275.112 1092.31 275.03 1092.3 274.943C1091.98 272.751 1090.69 270.717 1088.83 269.502C1088.76 269.452 1088.66 269.474 1088.61 269.545C1088.57 269.616 1088.59 269.714 1088.66 269.763C1090.44 270.93 1091.68 272.882 1091.98 274.986C1092 275.063 1092.06 275.122 1092.14 275.122H1092.14Z" fill="black"/>
<path d="M1092.09 320.434C1092.09 320.434 1092.12 320.434 1092.13 320.428C1092.21 320.407 1092.26 320.314 1092.24 320.232C1091.8 318.711 1090.66 317.43 1089.2 316.808C1089.12 316.776 1089.02 316.808 1088.99 316.89C1088.96 316.972 1088.99 317.064 1089.07 317.097C1090.45 317.681 1091.52 318.885 1091.94 320.319C1091.96 320.39 1092.02 320.434 1092.09 320.434Z" fill="black"/>
<path d="M1201.28 362.403C1201.36 362.403 1201.43 362.338 1201.43 362.256C1202.22 347.568 1205.98 333.878 1213.64 317.866C1213.67 317.79 1213.64 317.691 1213.56 317.653C1213.48 317.615 1213.38 317.653 1213.35 317.73C1205.67 333.78 1201.9 347.508 1201.11 362.239C1201.11 362.327 1201.17 362.403 1201.26 362.403C1201.26 362.403 1201.26 362.403 1201.27 362.403H1201.28Z" fill="black"/>
<path d="M1224.89 425.221C1229.01 425.221 1233.07 424.457 1236.79 422.963C1241.63 421.023 1246.01 417.811 1249.48 413.668C1252.95 409.524 1255.33 404.645 1256.39 399.553C1256.4 399.465 1256.35 399.384 1256.27 399.367C1256.18 399.351 1256.1 399.405 1256.08 399.493C1255.04 404.53 1252.67 409.366 1249.24 413.472C1245.8 417.577 1241.46 420.761 1236.68 422.68C1231.89 424.599 1226.55 425.302 1221.23 424.714C1215.9 424.125 1210.84 422.271 1206.6 419.349C1206.53 419.3 1206.43 419.316 1206.38 419.387C1206.33 419.458 1206.35 419.556 1206.42 419.605C1210.71 422.555 1215.81 424.425 1221.19 425.024C1222.43 425.161 1223.66 425.231 1224.9 425.231L1224.89 425.221Z" fill="black"/>
<path d="M1176.64 453.118C1176.64 453.118 1176.67 453.118 1176.68 453.118C1181.04 451.962 1185.03 449.498 1188.22 445.982C1191.4 442.465 1193.47 438.256 1194.18 433.807C1194.2 433.72 1194.14 433.638 1194.05 433.627C1193.96 433.617 1193.88 433.671 1193.87 433.758C1192.43 442.667 1185.33 450.501 1176.59 452.813C1176.51 452.835 1176.46 452.922 1176.48 453.004C1176.5 453.075 1176.56 453.124 1176.63 453.124L1176.64 453.118Z" fill="black"/>
<path d="M1091.99 339.707C1091.99 339.707 1082.19 345.731 1081.43 348.74C1081.43 348.74 1078.69 340.617 1078.42 338.954C1077.66 334.44 1084.45 328.415 1087.47 332.93C1090.48 337.444 1091.99 339.707 1091.99 339.707Z" fill="url(#paint35_linear_18_419)" fill-opacity="0.31"/>
<path d="M1077.67 297.552C1077.67 297.552 1080.68 289.27 1087.47 289.27C1087.47 289.27 1085.21 281.741 1084.45 279.484C1083.7 277.227 1076.91 277.979 1076.16 283.998C1075.4 290.023 1077.67 297.547 1077.67 297.547V297.552Z" fill="url(#paint36_linear_18_419)" fill-opacity="0.31"/>
<path d="M1091.24 375.09C1091.24 375.09 1085.2 376.594 1085.2 380.362C1085.2 380.362 1081.56 375.046 1080.68 372.833C1079.17 369.071 1083.69 363.799 1086.71 368.318C1089.73 372.838 1091.24 375.095 1091.24 375.095V375.09Z" fill="url(#paint37_linear_18_419)" fill-opacity="0.31"/>
<path d="M1217.92 250.878C1217.8 250.567 1216.93 250.125 1216.6 250.153C1215.1 250.262 1211.13 250.839 1211.13 253.893C1211.13 257.654 1214.9 266.688 1216.42 268.193C1217.53 269.311 1221.14 268.357 1222.94 267.79C1223.5 267.61 1223.8 267.005 1223.6 266.448L1217.93 250.878H1217.92Z" fill="url(#paint38_linear_18_419)" fill-opacity="0.31"/>
<rect width="96.4657" height="191.068" rx="19" transform="matrix(-1 0 0 1 1195.27 187.716)" fill="#161438"/>
<path d="M1107.54 323.91L1105.96 316.861C1104.75 311.462 1100.54 307.246 1095.14 306.035L1088.09 304.455L1095.14 302.875C1100.54 301.664 1104.75 297.449 1105.96 292.049L1107.54 285L1109.12 292.049C1110.33 297.449 1114.55 301.664 1119.95 302.875L1127 304.453L1119.95 306.032C1114.55 307.243 1110.34 311.459 1109.12 316.859L1107.54 323.91Z" fill="url(#paint39_radial_18_419)"/>
<path d="M1065.5 419L1064.24 413.384C1063.28 409.082 1059.92 405.723 1055.62 404.759L1050 403.5L1055.62 402.241C1059.92 401.277 1063.28 397.918 1064.24 393.616L1065.5 388L1066.76 393.616C1067.72 397.918 1071.08 401.277 1075.38 402.241L1081 403.498L1075.38 404.757C1071.08 405.721 1067.72 409.08 1066.76 413.382L1065.5 419Z" fill="url(#paint40_radial_18_419)"/>
<path d="M865.499 189L864.24 183.384C863.276 179.082 859.917 175.723 855.616 174.759L850 173.5L855.616 172.241C859.917 171.277 863.276 167.918 864.24 163.616L865.499 158L866.758 163.616C867.722 167.918 871.081 171.277 875.382 172.241L881 173.498L875.384 174.757C871.083 175.721 867.724 179.08 866.76 183.382L865.499 189Z" fill="url(#paint41_radial_18_419)"/>
<path d="M1195 312L1192.89 302.579C1191.27 295.363 1185.64 289.73 1178.42 288.111L1169 286L1178.42 283.889C1185.64 282.27 1191.27 276.637 1192.89 269.42L1195 260L1197.11 269.42C1198.73 276.637 1204.36 282.27 1211.58 283.889L1221 285.996L1211.58 288.108C1204.36 289.726 1198.73 295.36 1197.11 302.576L1195 312Z" fill="url(#paint42_radial_18_419)"/>
<path d="M1146.99 274.387C1126.97 274.387 1110.74 258.183 1110.74 238.194C1110.74 218.204 1126.97 202 1146.99 202C1167.02 202 1183.25 218.204 1183.25 238.194C1183.25 258.183 1167.02 274.387 1146.99 274.387Z" fill="url(#paint43_linear_18_419)"/>
<mask id="mask3_18_419" style="mask-type:alpha" maskUnits="userSpaceOnUse" x="1110" y="202" width="74" height="73">
<path d="M1146.99 274.387C1126.97 274.387 1110.74 258.183 1110.74 238.194C1110.74 218.204 1126.97 202 1146.99 202C1167.02 202 1183.25 218.204 1183.25 238.194C1183.25 258.183 1167.02 274.387 1146.99 274.387Z" fill="white"/>
</mask>
<g mask="url(#mask3_18_419)">
<path d="M1105.78 263.826V316.131H1189.11V251.863C1185.87 249.812 1181.89 248.66 1177.43 248.66H1132.47C1132.31 248.66 1132.16 248.671 1132 248.671C1131.76 248.677 1131.51 248.683 1131.27 248.693C1131.14 248.698 1131.01 248.709 1130.88 248.714H1130.88C1130.65 248.726 1130.43 248.747 1130.2 248.763C1130.19 248.763 1130.18 248.768 1130.17 248.768C1130.11 248.768 1130.05 248.773 1130 248.785H1129.96C1129.9 248.79 1129.84 248.796 1129.78 248.801C1128.24 248.949 1126.71 249.24 1125.21 249.646C1124.83 249.739 1124.46 249.854 1124.09 249.969C1123.64 250.106 1123.18 250.259 1122.75 250.419C1122.29 250.584 1121.85 250.742 1121.41 250.929C1120.97 251.115 1120.54 251.303 1120.1 251.511C1119.67 251.709 1119.24 251.917 1118.81 252.147C1118.39 252.366 1117.97 252.586 1117.56 252.828C1117.14 253.074 1116.73 253.315 1116.32 253.573C1115.92 253.826 1115.52 254.094 1115.12 254.369C1114.72 254.638 1114.35 254.912 1113.96 255.191C1113.96 255.199 1113.96 255.202 1113.95 255.202C1113.57 255.493 1113.19 255.794 1112.82 256.096C1112.44 256.398 1112.08 256.711 1111.72 257.023C1111.69 257.044 1111.65 257.067 1111.62 257.099C1109.38 259.096 1107.41 261.361 1105.77 263.824L1105.78 263.826Z" fill="#E3F0FF"/>
<path d="M1105.78 263.826V280.38C1107.84 292.327 1111.35 306.149 1117.27 316.132H1164.24C1174.63 307.609 1182.78 297.724 1189.11 288.054V251.863C1185.87 249.812 1181.89 248.66 1177.43 248.66H1132.47C1132.31 248.66 1132.16 248.671 1132 248.671C1131.76 248.677 1131.51 248.683 1131.27 248.693C1131.14 248.698 1131.01 248.709 1130.88 248.714H1130.88C1130.65 248.726 1130.43 248.747 1130.2 248.763C1130.19 248.763 1130.18 248.768 1130.17 248.768C1130.11 248.768 1130.05 248.773 1130 248.785H1129.96C1129.9 248.79 1129.84 248.796 1129.78 248.801C1128.24 248.949 1126.71 249.24 1125.21 249.646C1124.83 249.739 1124.46 249.854 1124.09 249.969C1123.64 250.106 1123.18 250.259 1122.75 250.419C1122.29 250.584 1121.85 250.742 1121.41 250.929C1120.97 251.115 1120.54 251.303 1120.1 251.511C1119.67 251.709 1119.24 251.917 1118.81 252.147C1118.39 252.366 1117.97 252.586 1117.56 252.828C1117.14 253.074 1116.73 253.315 1116.32 253.573C1115.92 253.826 1115.52 254.094 1115.12 254.369C1114.72 254.638 1114.35 254.912 1113.96 255.191C1113.96 255.199 1113.96 255.202 1113.95 255.202C1113.57 255.493 1113.19 255.794 1112.82 256.096C1112.44 256.398 1112.08 256.711 1111.72 257.023C1111.69 257.044 1111.65 257.067 1111.62 257.099C1109.38 259.096 1107.41 261.361 1105.77 263.824L1105.78 263.826Z" fill="white"/>
<path d="M1142.06 260.305L1157.39 248.698L1148.88 220.276L1131.79 224.02L1142.06 260.305Z" fill="#FF747E"/>
<path d="M1122.25 217.745L1125 217.14C1129.42 216.171 1133.79 218.961 1134.77 223.373L1132.01 223.977C1127.59 224.947 1123.22 222.156 1122.25 217.745Z" fill="url(#paint44_linear_18_419)"/>
<path d="M1122.25 213.756L1125 213.151C1129.42 212.182 1133.79 214.972 1134.77 219.384L1132.01 219.988C1127.59 220.958 1123.22 218.167 1122.25 213.756Z" fill="url(#paint45_linear_18_419)"/>
<path d="M1128.46 211.403L1131.26 211.714C1135.76 212.212 1139 216.255 1138.5 220.744L1135.7 220.434C1131.2 219.936 1127.96 215.893 1128.46 211.403Z" fill="url(#paint46_linear_18_419)"/>
<path d="M1126.68 222.504V222.936C1126.68 223.642 1126.77 224.365 1126.93 225.087C1128.19 230.748 1133.52 234.461 1139.17 233.826C1139.55 233.782 1139.93 233.711 1140.31 233.632C1140.94 233.491 1141.55 233.305 1142.12 233.068C1147.11 231.058 1150.06 225.696 1148.87 220.274C1147.55 214.235 1141.56 210.407 1135.49 211.73C1134.14 212.03 1132.9 212.559 1131.79 213.273L1131.21 213.679L1131.12 213.74C1128.4 215.797 1126.74 219.028 1126.69 222.504H1126.68Z" fill="#FF747E"/>
<path d="M1126.63 236.154C1126.63 236.286 1126.63 236.418 1126.65 236.543C1126.85 239.69 1130.05 242.142 1133.18 241.454L1141.82 239.567L1142.12 233.069L1142.64 221.703L1141.04 221.782L1126.68 222.505V222.938L1126.63 236.155L1126.63 236.154Z" fill="#FF747E"/>
<path d="M1126.8 220.484H1135.42C1138.95 220.435 1139.18 225.941 1143.57 227.853C1147.19 229.43 1150.31 229.353 1151.56 229.231L1148.88 220.279C1147.55 214.232 1141.56 210.402 1135.5 211.729C1131.02 212.71 1127.68 216.26 1126.8 220.483V220.484Z" fill="url(#paint47_linear_18_419)"/>
<path d="M1136.52 240.725L1143.2 239.262L1137.58 244.471L1136.52 240.725Z" fill="#25385E"/>
<path d="M1141.14 228.505C1140.43 226.6 1141.41 224.488 1143.32 223.788C1145.23 223.087 1147.35 224.064 1148.05 225.968C1148.75 227.873 1147.77 229.985 1145.86 230.685C1143.95 231.386 1141.84 230.409 1141.14 228.505Z" fill="#FF747E"/>
<path d="M1127.88 232.65H1129.57V232.053H1128.48V229.474H1127.88V232.65Z" fill="#233559"/>
<path d="M1131.07 235.862C1132.97 235.862 1134.24 234.141 1134.3 234.067L1133.81 233.715C1133.8 233.73 1132.66 235.264 1131.07 235.264V235.862Z" fill="#233559"/>
<path d="M1128.19 249.027C1130.31 253.251 1132.6 257.395 1135.1 261.406C1137.25 264.889 1139.23 270.347 1144.1 269.245C1146.5 268.698 1149.25 265.488 1151.08 264.007C1154.03 261.609 1156.96 259.175 1159.82 256.688C1162.85 254.061 1165.82 251.389 1168.76 248.664H1163.56C1158.3 253.452 1152.88 258.09 1147.31 262.534C1146.53 263.151 1142.74 266.74 1141.63 265.056C1140.74 263.716 1139.85 262.367 1139 261C1137.58 258.716 1136.19 256.415 1134.88 254.07C1133.89 252.279 1132.93 250.48 1132 248.674C1130.7 248.692 1129.43 248.815 1128.19 249.027Z" fill="#625DF5"/>
</g>
<path d="M1274.96 439.624C1274.96 439.624 1273.38 436.152 1271.32 431.894C1236.86 441.522 1178.84 465.821 1178.84 465.821L1274.95 439.624H1274.96Z" fill="black"/>
<path d="M1174.42 460.866L1178.98 484.222H1307.78L1281.12 429.626C1281.12 429.626 1192.28 448.877 1174.42 460.871L1174.42 460.866Z" fill="url(#paint48_linear_18_419)"/>
<path d="M1137.7 364.413C1134.25 363.448 1131.16 361.605 1128.8 359.083L1128.78 359.054C1128.49 358.745 1128.21 358.427 1127.94 358.098L1121.32 350.479C1125.05 354.711 1130.65 356.809 1136.29 357.024C1147.85 357.468 1158.9 351.229 1166.5 342.983C1167.5 341.853 1168.46 340.694 1169.36 339.473C1175.66 330.827 1179.44 317.514 1171.93 308.488L1178.68 316.613C1179.59 317.687 1180.4 318.908 1181.07 320.286C1186.37 331.115 1180.43 343.769 1172.92 351.918C1171.86 353.03 1170.77 354.101 1169.6 355.111C1161.23 362.385 1148.89 367.541 1137.7 364.41V364.413Z" fill="url(#paint49_linear_18_419)"/>
<path d="M1166.5 342.983C1158.91 351.229 1147.86 357.465 1136.3 357.024C1130.07 356.785 1123.89 354.254 1120.23 349.087C1116.68 344.075 1116.21 337.622 1117.58 331.792C1120.19 320.642 1128.86 311.166 1138.93 305.913C1148.76 300.781 1162.99 298.78 1171.31 307.77C1179.65 316.796 1175.83 330.594 1169.36 339.47C1168.47 340.691 1167.51 341.85 1166.51 342.981L1166.5 342.983Z" fill="url(#paint50_linear_18_419)"/>
<mask id="mask4_18_419" style="mask-type:alpha" maskUnits="userSpaceOnUse" x="1116" y="301" width="61" height="57">
<path d="M1166.5 342.983C1158.91 351.229 1147.86 357.465 1136.3 357.024C1130.07 356.785 1123.89 354.254 1120.23 349.087C1116.68 344.075 1116.21 337.622 1117.58 331.792C1120.19 320.642 1128.86 311.166 1138.93 305.913C1148.76 300.781 1162.99 298.78 1171.3 307.77C1179.65 316.796 1175.83 330.594 1169.36 339.47C1168.47 340.691 1167.51 341.85 1166.51 342.981L1166.5 342.983Z" fill="url(#paint51_linear_18_419)"/>
</mask>
<g mask="url(#mask4_18_419)">
<path d="M1176.6 330.676L1178.08 340.711L1110.48 350.463L1109 340.428L1176.6 330.676Z" fill="url(#paint52_linear_18_419)"/>
<path d="M1180.92 324.479L1181.22 326.57L1113.63 336.323L1113.32 334.232L1180.92 324.479Z" fill="url(#paint53_linear_18_419)"/>
<path d="M1187.7 303.476L1188.65 309.9L1121.05 319.652L1120.1 313.228L1187.7 303.476Z" fill="url(#paint54_linear_18_419)"/>
</g>
<path d="M1119.84 336.121C1119.61 339.173 1119.9 343.613 1122.61 347.433C1124.07 349.499 1126.07 351.135 1128.55 352.3C1130.88 353.398 1133.6 354.037 1136.41 354.145C1141.41 354.337 1146.52 353.171 1151.59 350.682C1156.22 348.404 1160.63 345.079 1164.33 341.062C1165.38 339.882 1166.25 338.808 1166.99 337.786C1170.5 332.984 1172.73 327.284 1173.11 322.151C1173.49 317.152 1172.16 312.967 1169.15 309.718C1167.48 307.908 1165.44 306.546 1163.08 305.663C1160.88 304.836 1158.39 304.421 1155.69 304.43C1153.14 304.439 1150.46 304.818 1147.72 305.557C1145.18 306.243 1142.6 307.249 1140.27 308.464C1135.48 310.966 1131.13 314.435 1127.68 318.499C1124.06 322.761 1121.54 327.584 1120.4 332.448C1120.11 333.672 1119.92 334.908 1119.83 336.124M1116.93 335.909C1117.04 334.523 1117.25 333.143 1117.57 331.798C1120.19 320.648 1128.86 311.172 1138.92 305.919C1148.75 300.787 1162.98 298.786 1171.3 307.776C1175.15 311.94 1176.41 317.122 1176.01 322.369C1175.55 328.49 1172.84 334.697 1169.35 339.479C1168.47 340.7 1167.5 341.859 1166.5 342.989C1158.9 351.235 1147.85 357.471 1136.29 357.029C1130.07 356.791 1123.88 354.26 1120.22 349.093C1117.5 345.238 1116.59 340.532 1116.93 335.912L1116.93 335.909Z" fill="url(#paint55_linear_18_419)"/>
<path d="M870.061 209.706C869.489 205.116 870.171 200.521 872.05 196.444L872.073 196.398C872.304 195.901 872.553 195.409 872.818 194.929L878.754 183.224C875.48 189.783 875.766 197.501 878.362 204.312C883.68 218.271 896.888 228.262 910.792 233.135C912.681 233.758 914.583 234.318 916.523 234.761C930.26 237.895 948.414 235.682 955.609 222.203L949.122 234.323C948.273 235.949 947.196 237.52 945.856 239.015C935.336 250.768 916.893 250.083 903.153 245.275C901.259 244.573 899.397 243.809 897.575 242.936C884.459 236.648 871.92 224.588 870.064 209.706H870.061Z" fill="url(#paint56_linear_18_419)"/>
<path d="M910.791 233.135C896.884 228.262 883.678 218.271 878.36 204.312C875.496 196.79 875.447 188.166 879.893 181.215C884.206 174.472 891.837 170.661 899.638 169.351C914.559 166.842 930.51 172.366 942.018 181.681C953.26 190.78 962.918 206.688 956.165 221.098C949.389 235.559 930.628 237.978 916.522 234.761C914.582 234.318 912.679 233.758 910.791 233.135Z" fill="url(#paint57_linear_18_419)"/>
<mask id="mask5_18_419" style="mask-type:alpha" maskUnits="userSpaceOnUse" x="876" y="168" width="83" height="69">
<path d="M910.791 233.135C896.884 228.262 883.678 218.271 878.36 204.312C875.496 196.79 875.447 188.166 879.893 181.215C884.206 174.472 891.837 170.661 899.638 169.351C914.559 166.842 930.51 172.366 942.018 181.681C953.26 190.78 962.918 206.688 956.165 221.098C949.389 235.559 930.628 237.978 916.522 234.761C914.582 234.318 912.679 233.758 910.791 233.135Z" fill="url(#paint58_linear_18_419)"/>
</mask>
<g mask="url(#mask5_18_419)">
<path d="M884.75 163.52L930.916 238.935L919.429 245.748L873.263 170.332L884.75 163.52Z" fill="url(#paint59_linear_18_419)"/>
<path d="M894.492 165.524L940.658 240.939L938.267 242.357L892.101 166.942L894.492 165.524Z" fill="url(#paint60_linear_18_419)"/>
<path d="M923.551 163.004L969.717 238.419L962.365 242.779L916.199 167.364L923.551 163.004Z" fill="url(#paint61_linear_18_419)"/>
</g>
<path d="M895.508 174.219C891.671 175.483 886.405 178.069 883.117 183.213C881.341 185.992 880.357 189.192 880.189 192.724C880.033 196.054 880.634 199.606 881.927 202.997C884.231 209.044 888.242 214.528 893.845 219.294C898.97 223.653 905.258 227.21 912.034 229.592C914.006 230.24 915.753 230.737 917.378 231.106C925.012 232.848 933.09 232.627 939.548 230.498C945.837 228.427 950.263 224.735 952.702 219.527C954.059 216.628 954.688 213.514 954.573 210.271C954.463 207.236 953.707 204.068 952.327 200.86C951.028 197.839 949.206 194.844 946.916 191.962C944.791 189.288 942.259 186.734 939.595 184.577C934.118 180.144 927.677 176.714 920.973 174.662C913.943 172.511 906.785 171.951 900.275 173.045C898.638 173.321 897.033 173.716 895.506 174.219M894.296 170.664C896.04 170.09 897.833 169.652 899.634 169.351C914.555 166.842 930.506 172.366 942.014 181.681C953.256 190.78 962.914 206.688 956.161 221.098C953.034 227.773 947.352 231.882 940.755 234.056C933.058 236.594 924.114 236.494 916.518 234.761C914.578 234.318 912.675 233.758 910.787 233.135C896.88 228.262 883.674 218.271 878.356 204.312C875.492 196.79 875.443 188.166 879.889 181.215C883.206 176.029 888.487 172.579 894.296 170.664Z" fill="url(#paint62_linear_18_419)"/>
<path d="M946.659 354.565C948.473 349.061 951.676 344.214 955.927 340.59L955.977 340.549C956.497 340.106 957.032 339.683 957.583 339.278L970.378 329.159C963.265 334.858 959.465 343.755 958.701 352.849C957.136 371.487 966.4 389.806 979.165 402.695C980.918 404.4 982.72 406.043 984.629 407.573C998.134 418.402 1019.37 425.51 1034.5 414.049L1020.87 424.349C1019.07 425.74 1017.04 426.95 1014.77 427.936C996.877 435.681 976.869 425.134 964.255 412.407C962.537 410.608 960.885 408.756 959.341 406.803C948.204 392.728 940.78 372.416 946.661 354.569L946.659 354.565Z" fill="url(#paint63_linear_18_419)"/>
<path d="M979.163 402.694C966.398 389.804 957.135 371.485 958.7 352.847C959.544 342.807 964.088 333.007 972.706 327.482C981.064 322.125 991.528 321.851 1000.84 324.496C1018.67 329.558 1033.34 344.27 1041.09 360.923C1048.65 377.19 1050.84 400.334 1035.7 413.088C1020.51 425.889 998.494 418.688 984.627 407.569C982.721 406.039 980.917 404.398 979.163 402.692V402.694Z" fill="url(#paint64_linear_18_419)"/>
<mask id="mask6_18_419" style="mask-type:alpha" maskUnits="userSpaceOnUse" x="958" y="322" width="89" height="98">
<path d="M979.163 402.694C966.398 389.804 957.135 371.485 958.7 352.847C959.544 342.806 964.088 333.007 972.706 327.482C981.064 322.125 991.528 321.851 1000.84 324.496C1018.67 329.558 1033.34 344.27 1041.09 360.923C1048.65 377.19 1050.84 400.334 1035.7 413.088C1020.51 425.889 998.494 418.687 984.627 407.569C982.721 406.039 980.917 404.398 979.163 402.692V402.694Z" fill="url(#paint65_linear_18_419)"/>
</mask>
<g mask="url(#mask6_18_419)">
<path d="M987.515 309.999L998.304 419.926L981.985 421.559L971.196 311.632L987.515 309.999Z" fill="url(#paint66_linear_18_419)"/>
<path d="M997.208 317.428L1008 427.355L1004.6 427.695L993.809 317.768L997.208 317.428Z" fill="url(#paint67_linear_18_419)"/>
<path d="M1030.65 329.969L1041.44 439.896L1030.99 440.942L1020.2 331.014L1030.65 329.969Z" fill="url(#paint68_linear_18_419)"/>
</g>
<path d="M993.686 327.83C988.772 327.23 981.577 327.371 975.203 331.456C971.76 333.664 968.966 336.768 966.901 340.684C964.954 344.374 963.724 348.719 963.344 353.246C962.666 361.322 964.173 369.659 967.824 378.031C971.161 385.683 976.212 393.052 982.43 399.337C984.262 401.117 985.93 402.605 987.527 403.886C995.029 409.904 1004.07 413.933 1012.34 414.943C1020.39 415.927 1027.25 414.087 1032.72 409.477C1035.77 406.912 1038.12 403.715 1039.72 399.978C1041.22 396.48 1042.07 392.491 1042.26 388.122C1042.43 384.009 1042.02 379.653 1041.02 375.173C1040.1 371.016 1038.67 366.78 1036.87 362.925C1033.18 354.998 1027.9 347.701 1021.59 341.824C1014.97 335.662 1007.36 331.236 999.584 329.029C997.627 328.474 995.644 328.071 993.688 327.832M994.247 323.162C996.481 323.435 998.693 323.89 1000.84 324.502C1018.67 329.563 1033.34 344.276 1041.09 360.929C1048.65 377.195 1050.84 400.34 1035.7 413.093C1028.69 419 1020.23 420.648 1011.78 419.617C1001.92 418.413 992.096 413.562 984.629 407.575C982.723 406.045 980.919 404.404 979.165 402.699C966.4 389.81 957.137 371.49 958.702 352.853C959.546 342.812 964.089 333.013 972.708 327.488C979.135 323.369 986.809 322.255 994.247 323.164V323.162Z" fill="url(#paint69_linear_18_419)"/>
</g>
<defs>
<filter id="filter0_f_18_419" x="841.597" y="-63.0651" width="619.672" height="621.592" filterUnits="userSpaceOnUse" color-interpolation-filters="sRGB">
<feFlood flood-opacity="0" result="BackgroundImageFix"/>
<feBlend mode="normal" in="SourceGraphic" in2="BackgroundImageFix" result="shape"/>
<feGaussianBlur stdDeviation="92" result="effect1_foregroundBlur_18_419"/>
</filter>
<filter id="filter1_f_18_419" x="950.37" y="-14.0185" width="459.672" height="461.592" filterUnits="userSpaceOnUse" color-interpolation-filters="sRGB">
<feFlood flood-opacity="0" result="BackgroundImageFix"/>
<feBlend mode="normal" in="SourceGraphic" in2="BackgroundImageFix" result="shape"/>
<feGaussianBlur stdDeviation="52" result="effect1_foregroundBlur_18_419"/>
</filter>
<linearGradient id="paint0_linear_18_419" x1="1196.76" y1="-332.14" x2="756.048" y2="1067.77" gradientUnits="userSpaceOnUse">
<stop stop-color="#2810EF"/>
<stop offset="1" stop-color="#FEC897"/>
</linearGradient>
<linearGradient id="paint1_linear_18_419" x1="1598" y1="270" x2="1408.47" y2="537.288" gradientUnits="userSpaceOnUse">
<stop offset="0.00246429" stop-color="#6461FF"/>
<stop offset="1" stop-color="#f2c75c" stop-opacity="0"/>
</linearGradient>
<linearGradient id="paint2_linear_18_419" x1="117.179" y1="0" x2="117.179" y2="269.666" gradientUnits="userSpaceOnUse">
<stop stop-color="#550AFB"/>
<stop offset="1" stop-color="#550AFB" stop-opacity="0"/>
</linearGradient>
<linearGradient id="paint3_linear_18_419" x1="1163.41" y1="62.5679" x2="1264.42" y2="62.5332" gradientUnits="userSpaceOnUse">
<stop stop-color="#A374FF"/>
<stop offset="1" stop-color="#FFDBA4"/>
</linearGradient>
<linearGradient id="paint4_linear_18_419" x1="1304.32" y1="102.579" x2="1312.08" y2="102.578" gradientUnits="userSpaceOnUse">
<stop stop-color="#A374FF"/>
<stop offset="1" stop-color="#FFDBA4"/>
</linearGradient>
<linearGradient id="paint5_linear_18_419" x1="1162.61" y1="57" x2="1162.61" y2="99.0893" gradientUnits="userSpaceOnUse">
<stop stop-color="#0B083C"/>
<stop offset="1" stop-color="#1C186C"/>
</linearGradient>
<linearGradient id="paint6_linear_18_419" x1="1239.55" y1="168.771" x2="1148.8" y2="168.284" gradientUnits="userSpaceOnUse">
<stop offset="0.00246429" stop-color="#FFF9F0"/>
<stop offset="1" stop-color="#f2c75c"/>
</linearGradient>
<linearGradient id="paint7_linear_18_419" x1="1192.81" y1="59.942" x2="1192.81" y2="84.0931" gradientUnits="userSpaceOnUse">
<stop stop-color="#0B083C"/>
<stop offset="1" stop-color="#1C186C"/>
</linearGradient>
<linearGradient id="paint8_linear_18_419" x1="1003.91" y1="109.059" x2="935.902" y2="108.656" gradientUnits="userSpaceOnUse">
<stop offset="0.00246429" stop-color="#FFF9F0"/>
<stop offset="1" stop-color="#f2c75c"/>
</linearGradient>
<linearGradient id="paint9_linear_18_419" x1="954.883" y1="37.8783" x2="954.883" y2="57.3423" gradientUnits="userSpaceOnUse">
<stop stop-color="#0B083C"/>
<stop offset="1" stop-color="#1C186C"/>
</linearGradient>
<linearGradient id="paint10_linear_18_419" x1="974.601" y1="27.5593" x2="971.482" y2="46.7719" gradientUnits="userSpaceOnUse">
<stop stop-color="#0B083C"/>
<stop offset="1" stop-color="#1C186C"/>
</linearGradient>
<linearGradient id="paint11_linear_18_419" x1="964.29" y1="29.8262" x2="964.29" y2="48.8342" gradientUnits="userSpaceOnUse">
<stop stop-color="#0B083C"/>
<stop offset="1" stop-color="#1C186C"/>
</linearGradient>
<linearGradient id="paint12_linear_18_419" x1="1029.05" y1="168.257" x2="1041.54" y2="168.273" gradientUnits="userSpaceOnUse">
<stop offset="0.00246429" stop-color="#C8ACFF"/>
<stop offset="1" stop-color="#5949F1"/>
</linearGradient>
<linearGradient id="paint13_linear_18_419" x1="1064.74" y1="124.91" x2="1064.74" y2="132.188" gradientUnits="userSpaceOnUse">
<stop stop-color="#0B083C"/>
<stop offset="1" stop-color="#1C186C"/>
</linearGradient>
<linearGradient id="paint14_linear_18_419" x1="1033.97" y1="122.104" x2="1041.14" y2="123.267" gradientUnits="userSpaceOnUse">
<stop stop-color="#0B083C"/>
<stop offset="1" stop-color="#1C186C"/>
</linearGradient>
<linearGradient id="paint15_linear_18_419" x1="1036.5" y1="114.397" x2="1039.28" y2="121.117" gradientUnits="userSpaceOnUse">
<stop stop-color="#0B083C"/>
<stop offset="1" stop-color="#1C186C"/>
</linearGradient>
<linearGradient id="paint16_linear_18_419" x1="1041.52" y1="109.642" x2="1041.52" y2="116.92" gradientUnits="userSpaceOnUse">
<stop stop-color="#0B083C"/>
<stop offset="1" stop-color="#1C186C"/>
</linearGradient>
<linearGradient id="paint17_linear_18_419" x1="1046.31" y1="106.615" x2="1046.31" y2="113.893" gradientUnits="userSpaceOnUse">
<stop stop-color="#0B083C"/>
<stop offset="1" stop-color="#1C186C"/>
</linearGradient>
<linearGradient id="paint18_linear_18_419" x1="1051.19" y1="106.278" x2="1053.98" y2="112.999" gradientUnits="userSpaceOnUse">
<stop stop-color="#0B083C"/>
<stop offset="1" stop-color="#1C186C"/>
</linearGradient>
<linearGradient id="paint19_linear_18_419" x1="1057.92" y1="108.289" x2="1057.92" y2="115.567" gradientUnits="userSpaceOnUse">
<stop stop-color="#0B083C"/>
<stop offset="1" stop-color="#1C186C"/>
</linearGradient>
<linearGradient id="paint20_linear_18_419" x1="1061.4" y1="112.701" x2="1061.4" y2="119.978" gradientUnits="userSpaceOnUse">
<stop stop-color="#0B083C"/>
<stop offset="1" stop-color="#1C186C"/>
</linearGradient>
<linearGradient id="paint21_linear_18_419" x1="1063.84" y1="118.727" x2="1063.84" y2="126.004" gradientUnits="userSpaceOnUse">
<stop stop-color="#0B083C"/>
<stop offset="1" stop-color="#1C186C"/>
</linearGradient>
<linearGradient id="paint22_linear_18_419" x1="1051.75" y1="109.128" x2="1051.75" y2="129.713" gradientUnits="userSpaceOnUse">
<stop stop-color="#0B083C"/>
<stop offset="1" stop-color="#1C186C"/>
</linearGradient>
<linearGradient id="paint23_linear_18_419" x1="1038.71" y1="129.713" x2="1038.71" y2="132.764" gradientUnits="userSpaceOnUse">
<stop stop-color="#0B083C"/>
<stop offset="1" stop-color="#1C186C"/>
</linearGradient>
<linearGradient id="paint24_linear_18_419" x1="1041.52" y1="135.26" x2="1041.52" y2="137.728" gradientUnits="userSpaceOnUse">
<stop stop-color="#0B083C"/>
<stop offset="1" stop-color="#1C186C"/>
</linearGradient>
<linearGradient id="paint25_linear_18_419" x1="845.865" y1="32.1621" x2="848.822" y2="32.1617" gradientUnits="userSpaceOnUse">
<stop stop-color="#A374FF"/>
<stop offset="1" stop-color="#FFDBA4"/>
</linearGradient>
<linearGradient id="paint26_linear_18_419" x1="848.541" y1="53.8453" x2="853.506" y2="53.8442" gradientUnits="userSpaceOnUse">
<stop stop-color="#A374FF"/>
<stop offset="1" stop-color="#FFDBA4"/>
</linearGradient>
<linearGradient id="paint27_linear_18_419" x1="1054.83" y1="22.8577" x2="1056.7" y2="22.8575" gradientUnits="userSpaceOnUse">
<stop stop-color="#A374FF"/>
<stop offset="1" stop-color="#FFDBA4"/>
</linearGradient>
<linearGradient id="paint28_linear_18_419" x1="1056.52" y1="36.5549" x2="1059.65" y2="36.5542" gradientUnits="userSpaceOnUse">
<stop stop-color="#A374FF"/>
<stop offset="1" stop-color="#FFDBA4"/>
</linearGradient>
<linearGradient id="paint29_linear_18_419" x1="1297.41" y1="32.1205" x2="1298" y2="34.9399" gradientUnits="userSpaceOnUse">
<stop stop-color="#A374FF"/>
<stop offset="1" stop-color="#FFDBA4"/>
</linearGradient>
<linearGradient id="paint30_linear_18_419" x1="1298.25" y1="45.5401" x2="1303.09" y2="45.539" gradientUnits="userSpaceOnUse">
<stop stop-color="#A374FF"/>
<stop offset="1" stop-color="#FFDBA4"/>
</linearGradient>
<linearGradient id="paint31_linear_18_419" x1="1198.97" y1="292.951" x2="1171.35" y2="485.835" gradientUnits="userSpaceOnUse">
<stop stop-color="#AD8CDE"/>
<stop offset="1" stop-color="#3B1672"/>
</linearGradient>
<linearGradient id="paint32_linear_18_419" x1="1083.84" y1="222.79" x2="1077.55" y2="259.649" gradientUnits="userSpaceOnUse">
<stop stop-color="#AD8CDE"/>
<stop offset="1" stop-color="#3B1672"/>
</linearGradient>
<linearGradient id="paint33_linear_18_419" x1="1085.02" y1="269.349" x2="1078.91" y2="300.284" gradientUnits="userSpaceOnUse">
<stop stop-color="#AD8CDE"/>
<stop offset="1" stop-color="#3B1672"/>
</linearGradient>
<linearGradient id="paint34_linear_18_419" x1="1086.91" y1="323.706" x2="1070.31" y2="378.449" gradientUnits="userSpaceOnUse">
<stop stop-color="#AD8CDE"/>
<stop offset="1" stop-color="#3B1672"/>
</linearGradient>
<linearGradient id="paint35_linear_18_419" x1="1085.18" y1="331.332" x2="1085.18" y2="348.74" gradientUnits="userSpaceOnUse">
<stop stop-color="#FFEFEC" stop-opacity="0.56"/>
<stop offset="1" stop-color="#FFEFEC" stop-opacity="0"/>
</linearGradient>
<linearGradient id="paint36_linear_18_419" x1="1081.74" y1="278.314" x2="1081.74" y2="297.552" gradientUnits="userSpaceOnUse">
<stop stop-color="#FFEFEC" stop-opacity="0.56"/>
<stop offset="1" stop-color="#FFEFEC" stop-opacity="0"/>
</linearGradient>
<linearGradient id="paint37_linear_18_419" x1="1085.81" y1="366.576" x2="1085.81" y2="380.362" gradientUnits="userSpaceOnUse">
<stop stop-color="#FFEFEC" stop-opacity="0.56"/>
<stop offset="1" stop-color="#FFEFEC" stop-opacity="0"/>
</linearGradient>
<linearGradient id="paint38_linear_18_419" x1="1217.4" y1="250.151" x2="1217.4" y2="268.711" gradientUnits="userSpaceOnUse">
<stop stop-color="#FFEFEC" stop-opacity="0.56"/>
<stop offset="1" stop-color="#FFEFEC" stop-opacity="0"/>
</linearGradient>
<radialGradient id="paint39_radial_18_419" cx="0" cy="0" r="1" gradientUnits="userSpaceOnUse" gradientTransform="translate(1118.19 310.595) rotate(180) scale(35.7429 35.7429)">
<stop stop-color="#f2c75c"/>
<stop offset="0.2" stop-color="#f2c75c"/>
<stop offset="0.42" stop-color="#FFC367"/>
<stop offset="0.63" stop-color="#FFD087"/>
<stop offset="0.83" stop-color="#FFE3B8"/>
<stop offset="1" stop-color="#FFE2B5"/>
</radialGradient>
<radialGradient id="paint40_radial_18_419" cx="0" cy="0" r="1" gradientUnits="userSpaceOnUse" gradientTransform="translate(1073.98 408.392) rotate(180) scale(28.4743 28.4763)">
<stop stop-color="#f2c75c"/>
<stop offset="0.2" stop-color="#f2c75c"/>
<stop offset="0.42" stop-color="#FFC367"/>
<stop offset="0.63" stop-color="#FFD087"/>
<stop offset="0.83" stop-color="#FFE3B8"/>
<stop offset="1" stop-color="#FFE2B5"/>
</radialGradient>
<radialGradient id="paint41_radial_18_419" cx="0" cy="0" r="1" gradientUnits="userSpaceOnUse" gradientTransform="translate(873.981 178.392) rotate(180) scale(28.4743 28.4763)">
<stop stop-color="#f2c75c"/>
<stop offset="0.2" stop-color="#f2c75c"/>
<stop offset="0.42" stop-color="#FFC367"/>
<stop offset="0.63" stop-color="#FFD087"/>
<stop offset="0.83" stop-color="#FFE3B8"/>
<stop offset="1" stop-color="#FFE2B5"/>
</radialGradient>
<radialGradient id="paint42_radial_18_419" cx="0" cy="0" r="1" gradientUnits="userSpaceOnUse" gradientTransform="translate(1209.23 294.206) rotate(180) scale(47.7634 47.7667)">
<stop stop-color="#f2c75c"/>
<stop offset="0.2" stop-color="#f2c75c"/>
<stop offset="0.42" stop-color="#FFC367"/>
<stop offset="0.63" stop-color="#FFD087"/>
<stop offset="0.83" stop-color="#FFE3B8"/>
<stop offset="1" stop-color="#FFE2B5"/>
</radialGradient>
<linearGradient id="paint43_linear_18_419" x1="1146.99" y1="271.801" x2="1148.34" y2="204.609" gradientUnits="userSpaceOnUse">
<stop offset="0.00246429" stop-color="#7B61FF"/>
<stop offset="1" stop-color="#f2c75c"/>
</linearGradient>
<linearGradient id="paint44_linear_18_419" x1="1128.51" y1="216.948" x2="1128.51" y2="224.17" gradientUnits="userSpaceOnUse">
<stop stop-color="#0B083C"/>
<stop offset="1" stop-color="#1C186C"/>
</linearGradient>
<linearGradient id="paint45_linear_18_419" x1="1128.51" y1="212.959" x2="1128.51" y2="220.181" gradientUnits="userSpaceOnUse">
<stop stop-color="#0B083C"/>
<stop offset="1" stop-color="#1C186C"/>
</linearGradient>
<linearGradient id="paint46_linear_18_419" x1="1133.48" y1="211.403" x2="1133.48" y2="220.744" gradientUnits="userSpaceOnUse">
<stop stop-color="#0B083C"/>
<stop offset="1" stop-color="#1C186C"/>
</linearGradient>
<linearGradient id="paint47_linear_18_419" x1="1139.18" y1="211.466" x2="1139.18" y2="229.289" gradientUnits="userSpaceOnUse">
<stop stop-color="#0B083C"/>
<stop offset="1" stop-color="#1C186C"/>
</linearGradient>
<linearGradient id="paint48_linear_18_419" x1="1241" y1="399.498" x2="1288.41" y2="442.863" gradientUnits="userSpaceOnUse">
<stop stop-color="#A374FF"/>
<stop offset="1" stop-color="#FFDBA4"/>
</linearGradient>
<linearGradient id="paint49_linear_18_419" x1="1170.81" y1="354.042" x2="1144.53" y2="327.498" gradientUnits="userSpaceOnUse">
<stop stop-color="#1A3697"/>
<stop offset="0.09" stop-color="#333F93"/>
<stop offset="0.33" stop-color="#755789"/>
<stop offset="0.56" stop-color="#A96B82"/>
<stop offset="0.75" stop-color="#CF797C"/>
<stop offset="0.9" stop-color="#E68179"/>
<stop offset="1" stop-color="#EF8578"/>
</linearGradient>
<linearGradient id="paint50_linear_18_419" x1="1163.44" y1="346.094" x2="1129.79" y2="312.12" gradientUnits="userSpaceOnUse">
<stop stop-color="#FEBB77"/>
<stop offset="1" stop-color="#F8D776"/>
</linearGradient>
<linearGradient id="paint51_linear_18_419" x1="1163.44" y1="346.094" x2="1129.79" y2="312.12" gradientUnits="userSpaceOnUse">
<stop stop-color="#FEBB77"/>
<stop offset="1" stop-color="#F8D776"/>
</linearGradient>
<linearGradient id="paint52_linear_18_419" x1="1160.16" y1="318.579" x2="1127.38" y2="362.982" gradientUnits="userSpaceOnUse">
<stop stop-color="#FCDF8C"/>
<stop offset="1" stop-color="#FDECBA" stop-opacity="0"/>
</linearGradient>
<linearGradient id="paint53_linear_18_419" x1="1166.03" y1="322.875" x2="1165.04" y2="338.826" gradientUnits="userSpaceOnUse">
<stop stop-color="#FCDF8C"/>
<stop offset="1" stop-color="#FDECBA" stop-opacity="0"/>
</linearGradient>
<linearGradient id="paint54_linear_18_419" x1="1172.04" y1="296.42" x2="1154.88" y2="334.75" gradientUnits="userSpaceOnUse">
<stop stop-color="#FCDF8C"/>
<stop offset="1" stop-color="#FDECBA" stop-opacity="0"/>
</linearGradient>
<linearGradient id="paint55_linear_18_419" x1="1148.54" y1="300.919" x2="1144.45" y2="357.593" gradientUnits="userSpaceOnUse">
<stop stop-color="#FCDF8C"/>
<stop offset="1" stop-color="#FDECBA"/>
</linearGradient>
<linearGradient id="paint56_linear_18_419" x1="938.399" y1="246.426" x2="877.453" y2="184.505" gradientUnits="userSpaceOnUse">
<stop stop-color="#7849D5"/>
<stop offset="0.56" stop-color="#FFBD56"/>
<stop offset="0.75" stop-color="#FFDDA9"/>
<stop offset="0.9" stop-color="#FFDEAB"/>
<stop offset="1" stop-color="#FFCE84"/>
</linearGradient>
<linearGradient id="paint57_linear_18_419" x1="947.238" y1="231.908" x2="888.363" y2="172.091" gradientUnits="userSpaceOnUse">
<stop stop-color="#FEBB77"/>
<stop offset="1" stop-color="#F8D776"/>
</linearGradient>
<linearGradient id="paint58_linear_18_419" x1="947.238" y1="231.908" x2="888.363" y2="172.091" gradientUnits="userSpaceOnUse">
<stop stop-color="#FEBB77"/>
<stop offset="1" stop-color="#F8D776"/>
</linearGradient>
<linearGradient id="paint59_linear_18_419" x1="937.415" y1="213.238" x2="876.717" y2="185.268" gradientUnits="userSpaceOnUse">
<stop stop-color="#FCDF8C"/>
<stop offset="1" stop-color="#FDECBA" stop-opacity="0"/>
</linearGradient>
<linearGradient id="paint60_linear_18_419" x1="934.606" y1="222.689" x2="914.707" y2="229.733" gradientUnits="userSpaceOnUse">
<stop stop-color="#FCDF8C"/>
<stop offset="1" stop-color="#FDECBA" stop-opacity="0"/>
</linearGradient>
<linearGradient id="paint61_linear_18_419" x1="970.389" y1="216.171" x2="914.957" y2="214.647" gradientUnits="userSpaceOnUse">
<stop stop-color="#FCDF8C"/>
<stop offset="1" stop-color="#FDECBA" stop-opacity="0"/>
</linearGradient>
<linearGradient id="paint62_linear_18_419" x1="952.943" y1="190.626" x2="881.954" y2="214.899" gradientUnits="userSpaceOnUse">
<stop stop-color="#FCDF8C"/>
<stop offset="1" stop-color="#FDECBA"/>
</linearGradient>
<linearGradient id="paint63_linear_18_419" x1="1016.46" y1="427.297" x2="928.15" y2="366.712" gradientUnits="userSpaceOnUse">
<stop stop-color="#7849D5"/>
<stop offset="0.56" stop-color="#FFBD56"/>
<stop offset="0.75" stop-color="#FFDDA9"/>
<stop offset="0.9" stop-color="#FFDEAB"/>
<stop offset="1" stop-color="#FFCE84"/>
</linearGradient>
<linearGradient id="paint64_linear_18_419" x1="1040.01" y1="408.916" x2="964.85" y2="334.481" gradientUnits="userSpaceOnUse">
<stop stop-color="#FEBB77"/>
<stop offset="1" stop-color="#F8D776"/>
</linearGradient>
<linearGradient id="paint65_linear_18_419" x1="1040.01" y1="408.916" x2="964.85" y2="334.481" gradientUnits="userSpaceOnUse">
<stop stop-color="#FEBB77"/>
<stop offset="1" stop-color="#F8D776"/>
</linearGradient>
<linearGradient id="paint66_linear_18_419" x1="1019.13" y1="394.254" x2="949.799" y2="337.974" gradientUnits="userSpaceOnUse">
<stop stop-color="#FCDF8C"/>
<stop offset="1" stop-color="#FDECBA" stop-opacity="0"/>
</linearGradient>
<linearGradient id="paint67_linear_18_419" x1="1012.6" y1="403.286" x2="986.895" y2="400.516" gradientUnits="userSpaceOnUse">
<stop stop-color="#FCDF8C"/>
<stop offset="1" stop-color="#FDECBA" stop-opacity="0"/>
</linearGradient>
<linearGradient id="paint68_linear_18_419" x1="1053.92" y1="415.064" x2="993.24" y2="384.498" gradientUnits="userSpaceOnUse">
<stop stop-color="#FCDF8C"/>
<stop offset="1" stop-color="#FDECBA" stop-opacity="0"/>
</linearGradient>
<linearGradient id="paint69_linear_18_419" x1="1048.41" y1="376.843" x2="957.131" y2="366.063" gradientUnits="userSpaceOnUse">
<stop stop-color="#FCDF8C"/>
<stop offset="1" stop-color="#FDECBA"/>
</linearGradient>
<clipPath id="clip0_18_419">
<rect width="1640" height="484" fill="white" transform="matrix(-1 0 0 1 1640 0)"/>
</clipPath>
<clipPath id="clip1_18_419">
<rect width="903" height="484" fill="white" transform="matrix(-1 0 0 1 1600 0)"/>
</clipPath>
</defs>
</svg>
