<svg width="16" height="16" viewBox="0 0 16 16" xmlns="http://www.w3.org/2000/svg">
    <path d="m5.805 6.862 3.33 3.33c.26.26.26.682 0 .943l-3.33 3.33a.667.667 0 0 1-.943-.943l2.192-2.193H2a.667.667 0 0 1 0-1.332h5.053L4.862 7.804a.667.667 0 0 1-.056-.88l.056-.063c.26-.26.682-.26.943 0zm1.057-1.06-.057-.065-.02-.029a.682.682 0 0 1-.118-.378.666.666 0 0 1 .182-.458l3.343-3.343a.667.667 0 1 1 .943.942L8.94 4.662l4.992.001a.667.667 0 1 1 0 1.334h-4.99l2.192 2.191c.24.24.258.619.055.88l-.055.063a.667.667 0 0 1-.943 0L6.849 5.788l-.019-.022.032.035z" fill="#FFF" fill-rule="nonzero" opacity="1"/>
</svg>
