<svg width="24" height="24" viewBox="0 0 24 24" fill="none" xmlns="http://www.w3.org/2000/svg">
<path fill-rule="evenodd" clip-rule="evenodd" d="M11.998 21V21C7.029 21 3 16.971 3 12.002V11.998C3 7.029 7.029 3 11.998 3H12.002C16.971 3 21 7.029 21 11.998V11.998C21 16.97 16.97 21 11.998 21Z" stroke="white" stroke-width="1.5" stroke-linecap="round" stroke-linejoin="round"/>
<path d="M17.4888 11.5L15.9888 10L14.4888 11.5" stroke="white" stroke-width="1.5" stroke-linecap="round" stroke-linejoin="round"/>
<path d="M6.5 12.5L8 14L9.5 12.5" stroke="white" stroke-width="1.5" stroke-linecap="round" stroke-linejoin="round"/>
<path d="M8 14V10C8 8.895 8.895 8 10 8H13" stroke="white" stroke-width="1.5" stroke-linecap="round" stroke-linejoin="round"/>
<path d="M15.989 10V14C15.989 15.1 15.089 16 13.989 16H11" stroke="white" stroke-width="1.5" stroke-linecap="round" stroke-linejoin="round"/>
</svg>
