<svg width="24" height="24" viewBox="0 0 24 24" xmlns="http://www.w3.org/2000/svg">
    <path d="M10.434 7.999c-.018-4.248 4.778-6.575 8.045-3.861l.054.047.064-.015c.265-.066.62-.17.968-.292l.147-.053c1.603-.593 1.828-.645 2.467-.117.618.509.62.829.413 2.088-.2 1.215-.819 2.412-1.61 3.138l-.073.062.019.261c.51 8.625-6.639 13.714-15.635 11.014l-.294-.091c-1.44-.457-1.824-.594-2.228-.84-.484-.292-.799-.702-.77-1.285.058-1.144.157-1.176 3.382-1.855l.234-.05.082-.02-.18-.178c-1.851-1.885-2.867-4.169-3.033-6.76l-.017-.34c-.078-2.225-.005-2.752.96-3.299.986-.557 1.45-.343 3.75 1.15 1.003.651 2.004 1.098 2.976 1.324l.281.058-.002-.086zm-5.972-.595c-.026.238-.023.557.005 1.377.099 2.796 1.36 5.127 3.85 6.948a1 1 0 0 1-.134 1.698c-.52.266-1.351.512-2.388.73l-.216.046-.12.024.145.047c8.003 2.541 14.01-1.803 13.29-9.375l-.028-.268a1 1 0 0 1 .538-1.005c.472-.241 1.057-1.195 1.215-2.153l-.032.16-.033.013-.148.055c-.845.312-1.742.544-2.2.544a1 1 0 0 1-.716-.301c-2.183-2.235-5.747-.324-4.931 3.016a1 1 0 0 1-.972 1.237c-1.825 0-3.69-.644-5.496-1.816-.952-.617-1.277-.817-1.58-.957l-.049-.023v.003z" fill="#FFF" fill-rule="nonzero" opacity=".7"/>
</svg>