<svg width="24" height="24" viewBox="0 0 24 24" xmlns="http://www.w3.org/2000/svg">
    <path d="M12.396 2c1.092.009 1.584.103 2.077.596.423.423.557.91.587 1.674.001.04.038.09.101.117.06.025.116.016.148-.014.558-.516.998-.765 1.594-.765.642 0 1.01.207 1.7.864l.317.31.633.642c.689.723.848 1.038.848 1.681 0 .6-.251 1.04-.774 1.604-.026.029-.035.08-.011.136.024.06.071.094.107.095.768.03 1.257.162 1.681.587.46.46.568.797.59 1.82L22 12c0 1.554-.05 1.927-.596 2.473-.427.428-.918.56-1.698.588-.025 0-.063.028-.084.078-.02.047-.013.087.007.108.53.571.784 1.01.784 1.615 0 .686-.181 1-.993 1.832l-.335.338c-.868.869-1.106 1.073-1.614 1.239-.18.059-.366.089-.556.089-.583 0-1.02-.243-1.559-.733-.042-.039-.11-.05-.18-.02-.072.03-.115.089-.117.14-.031.752-.166 1.237-.586 1.657-.46.46-.797.568-1.82.59L12 22c-1.554 0-1.927-.05-2.473-.596-.425-.425-.558-.913-.587-1.682-.001-.035-.035-.082-.094-.106-.055-.023-.105-.015-.134.011-.565.524-1.004.776-1.605.776-.643 0-.959-.16-1.682-.848l-.488-.48c-.76-.76-1.011-1.037-1.173-1.435l-.066-.18a1.778 1.778 0 0 1-.089-.555c0-.596.25-1.035.764-1.593.03-.033.04-.09.014-.15-.026-.064-.077-.1-.118-.102-.763-.03-1.25-.164-1.673-.587-.493-.493-.587-.985-.595-2.084v-.785c.008-1.092.102-1.584.595-2.077.422-.422.908-.556 1.667-.587.044-.001.099-.04.127-.108.027-.065.017-.126-.016-.162-.509-.552-.756-.99-.756-1.584 0-.733.271-1.11 1.174-2.016l.33-.329c.957-.948 1.265-1.152 1.994-1.152.604 0 1.043.253 1.614.783.025.023.07.03.122.01.056-.023.086-.066.088-.097.029-.774.161-1.263.587-1.69.493-.492.985-.586 2.084-.594zm-.007 2h-.77l-.247.004-.418.014-.016.341a2.121 2.121 0 0 1-1.322 1.87 2.11 2.11 0 0 1-2.248-.392c-.102-.095-.17-.155-.212-.192L7.11 5.6c-.029.03-.102.097-.244.234l-.387.378-.552.557-.296.312a.424.424 0 0 1 .024.023l.19.212c.57.619.714 1.51.391 2.285a2.157 2.157 0 0 1-1.893 1.338l-.325.015-.017.657v.77c0 .094.002.176.003.247l.014.417h.034l.296.016a2.146 2.146 0 0 1 1.886 1.333c.321.772.176 1.66-.391 2.274l-.208.232c.037.051.105.131.224.258l.271.28.542.54.428.412.253-.23a2.121 2.121 0 0 1 2.259-.392 2.132 2.132 0 0 1 1.326 1.878l.013.25.002.089L12 20l1.045-.024.016-.312a2.17 2.17 0 0 1 1.344-1.903 2.165 2.165 0 0 1 2.299.388l.206.185.03-.022c.1-.079.28-.246.614-.578l.341-.342.505-.525a.312.312 0 0 1-.018-.018l-.218-.24a2.097 2.097 0 0 1-.391-2.232 2.107 2.107 0 0 1 1.86-1.315c.212-.008.311-.018.352-.016L20 12l-.015-1.047-.011.002-.327-.017a2.134 2.134 0 0 1-1.879-1.327 2.124 2.124 0 0 1 .392-2.261l.168-.186.06-.065c-.035-.033-.119-.127-.307-.321l-.303-.31-.474-.47-.396-.377-.242.221a2.134 2.134 0 0 1-2.272.392c-.77-.32-1.3-1.05-1.333-1.886l-.016-.33-.656-.017zM12 8.3a3.7 3.7 0 1 1 0 7.4 3.7 3.7 0 0 1 0-7.4zm0 2a1.7 1.7 0 1 0 0 3.4 1.7 1.7 0 0 0 0-3.4z" fill="#FFF" fill-rule="nonzero" opacity=".5"/>
</svg>
