<svg width="24" height="24" viewBox="0 0 24 24" xmlns="http://www.w3.org/2000/svg">
    <path d="M5.718 7c.557 0 .892.065 1.242.252.337.18.608.45.788.788.187.35.252.685.252 1.242v10.436c0 .557-.065.892-.252 1.242-.18.337-.45.608-.788.788-.35.187-.685.252-1.242.252H4.282c-.557 0-.892-.065-1.242-.252a1.909 1.909 0 0 1-.788-.788C2.065 20.61 2 20.275 2 19.718V9.282c0-.557.065-.892.252-1.242.18-.337.45-.608.788-.788C3.39 7.065 3.725 7 4.282 7h1.436zm.152 2H4.13c-.057.002-.09.003-.11.006l-.013.001-.001.012c-.003.02-.004.054-.005.111v10.74c0 .057.002.09.005.11l.001.012.012.002c.02.003.054.004.111.005l.152.001h1.436c.16 0 .228-.002.263-.006l.011-.002.002-.011A1.95 1.95 0 0 0 6 19.803V9.282c0-.16-.002-.228-.006-.263l-.002-.012-.011-.001A1.239 1.239 0 0 0 5.87 9zm13.848 4c.557 0 .892.065 1.242.252.337.18.608.45.788.788.187.35.252.685.252 1.242v4.436c0 .557-.065.892-.252 1.242-.18.337-.45.608-.788.788-.35.187-.685.252-1.242.252h-1.436c-.557 0-.892-.065-1.242-.252a1.909 1.909 0 0 1-.788-.788c-.187-.35-.252-.685-.252-1.242v-4.436c0-.557.065-.892.252-1.242.18-.337.45-.608.788-.788.35-.187.685-.252 1.242-.252h1.436zm.152 2h-1.74c-.057.002-.09.003-.11.006l-.013.001-.001.012c-.003.02-.004.054-.005.111v4.74c0 .057.002.09.005.11l.001.012.012.002c.028.003.077.005.178.006h1.521c.16 0 .228-.002.263-.006l.011-.002.002-.011a1.95 1.95 0 0 0 .006-.178v-4.521c0-.16-.002-.228-.006-.263l-.002-.012-.011-.001A1.239 1.239 0 0 0 19.87 15zM12.718 3c.557 0 .892.065 1.242.252.337.18.608.45.788.788.187.35.252.685.252 1.242v14.436c0 .557-.065.892-.252 1.242-.18.337-.45.608-.788.788-.35.187-.685.252-1.242.252h-1.436c-.557 0-.892-.065-1.242-.252a1.909 1.909 0 0 1-.788-.788C9.065 20.61 9 20.275 9 19.718V5.282c0-.557.065-.892.252-1.242.18-.337.45-.608.788-.788.35-.187.685-.252 1.242-.252h1.436zm-1.436 2c-.16 0-.228.002-.263.006l-.012.001-.001.012c-.003.02-.004.054-.005.111v14.74c0 .057.002.09.005.11l.001.012.012.002c.028.003.077.005.178.006h1.521c.16 0 .228-.002.263-.006l.011-.002.002-.011a1.95 1.95 0 0 0 .006-.178V5.282c0-.16-.002-.228-.006-.263l-.002-.012-.011-.001A1.239 1.239 0 0 0 12.87 5L12.718 5h-1.436z" fill="#FFF" fill-rule="nonzero" opacity=".5"/>
</svg>
