<svg width="16" height="16" viewBox="0 0 16 16" xmlns="http://www.w3.org/2000/svg">
    <path d="M6.35 1.435c.335.077.636.201.928.383.213.132.396.274.648.508l.077.073.08-.075c.22-.204.389-.339.57-.457l.078-.05c.291-.182.593-.306.927-.382.298-.068.576-.095 1.066-.1l2.233-.002c.643 0 .985.066 1.342.257.333.179.6.444.777.778.191.356.257.699.257 1.341v7.248c0 .643-.066.985-.257 1.342-.178.333-.444.6-.777.777-.357.191-.7.257-1.342.257H9.485c-.295.148-.472.28-.53.368-.08.123-.186.495-.277 1.07l-.019-.003a.667.667 0 0 1-1.318-.003c-.09-.569-.196-.94-.277-1.064-.057-.088-.234-.22-.529-.367H3.043c-.643 0-.985-.067-1.342-.258a1.878 1.878 0 0 1-.777-.777c-.191-.357-.257-.7-.257-1.342V3.71c0-.642.066-.985.257-1.341.178-.334.444-.6.777-.778.357-.19.7-.257 1.342-.257H5.09c.613 0 .924.025 1.259.102zM5.091 2.667H3.043c-.442 0-.576.026-.713.099a.545.545 0 0 0-.23.23c-.074.138-.1.272-.1.713v7.361c.005.353.033.475.1.6.053.101.129.177.23.23.137.074.271.1.713.1h4.29V3.606l-.03-.028c-.37-.368-.537-.51-.73-.63a1.655 1.655 0 0 0-.521-.214c-.22-.05-.44-.068-.961-.068zm7.866 0h-2.04c-.522 0-.741.017-.961.068a1.654 1.654 0 0 0-.522.214c-.191.12-.36.26-.73.629l-.037.035V12l4.29.001c.442 0 .576-.026.713-.1a.545.545 0 0 0 .23-.23c.074-.137.1-.271.1-.713V3.71c0-.441-.026-.575-.1-.712a.545.545 0 0 0-.23-.231c-.137-.073-.271-.1-.713-.1z" fill="#FFF" fill-rule="nonzero" opacity=".5"/>
</svg>
