<svg width="16" height="16" viewBox="0 0 16 16" xmlns="http://www.w3.org/2000/svg">
    <path d="M12 2a3.333 3.333 0 0 1 3.333 3.333v5.334A3.333 3.333 0 0 1 12 14H4a3.333 3.333 0 0 1-3.333-3.333V5.333A3.333 3.333 0 0 1 4 2h8zm0 1.333H4a2 2 0 0 0-2 2v5.334a2 2 0 0 0 2 2h8a2 2 0 0 0 2-2V5.333a2 2 0 0 0-2-2zM7.24 4.667l.162.008c.52.047.792.22 2.087 1.192.78.585.97.742 1.174 1.03.048.067.09.136.126.209a2 2 0 0 1 0 1.788 1.577 1.577 0 0 1-.126.21c-.205.287-.394.444-1.174 1.03-1.295.97-1.568 1.144-2.087 1.191a2 2 0 0 1-1.881-.94c-.26-.422-.296-.733-.299-2.152V8c0-1.62.025-1.941.299-2.385a2 2 0 0 1 1.72-.948zm-.585 1.65c-.068.11-.095.393-.099 1.381v.604c.004.988.031 1.272.1 1.382a.667.667 0 0 0 .626.313c.141-.012.42-.19 1.407-.93.631-.474.8-.615.887-.736a.667.667 0 0 0 0-.662c-.086-.121-.256-.262-.887-.736-.987-.74-1.266-.918-1.407-.93a.667.667 0 0 0-.627.313z" fill="#FFF" fill-rule="nonzero" opacity=".5"/>
</svg>
