<svg width="16" height="16" viewBox="0 0 16 16" xmlns="http://www.w3.org/2000/svg">
    <path d="M6.831 1.566 3.013 3.77a2.333 2.333 0 0 0-1.166 2.021V10.2c0 .834.444 1.604 1.166 2.02l3.818 2.205a2.333 2.333 0 0 0 2.334 0l3.818-2.204A2.333 2.333 0 0 0 14.15 10.2V5.79c0-.834-.445-1.604-1.167-2.02L9.165 1.565a2.333 2.333 0 0 0-2.334 0zM8.498 2.72l3.818 2.204a1 1 0 0 1 .5.866V10.2a1 1 0 0 1-.5.866L8.498 13.27a1 1 0 0 1-1 0L3.68 11.066a1 1 0 0 1-.5-.866V5.79a1 1 0 0 1 .5-.866l3.818-2.204a1 1 0 0 1 1 0z" fill="#FFF" fill-rule="nonzero" opacity=".5"/>
</svg>
