<svg width="16" height="16" viewBox="0 0 16 16" xmlns="http://www.w3.org/2000/svg">
    <path d="M6.956 5.333C6.944 2.5 10.141.95 12.32 2.759l.036.031.043-.01c.176-.044.414-.113.645-.195l.099-.035c1.068-.395 1.218-.43 1.644-.078.412.34.413.553.275 1.392-.132.81-.546 1.608-1.074 2.092l-.048.041.013.175c.34 5.75-4.426 9.142-10.423 7.342l-.196-.06c-.96-.306-1.216-.397-1.486-.56-.322-.196-.532-.469-.513-.857.039-.763.105-.784 2.255-1.237a13.3 13.3 0 0 0 .156-.034l.054-.013-.12-.119C2.445 9.378 1.768 7.856 1.657 6.128L1.646 5.9c-.052-1.483-.003-1.834.64-2.199.657-.371.966-.228 2.5.767.669.434 1.336.732 1.984.882l.187.039v-.057zm-3.981-.397c-.018.159-.016.372.003.918.066 1.864.907 3.418 2.567 4.632.4.293.352.906-.09 1.132-.346.177-.9.341-1.591.487l-.145.03-.08.016.097.031c5.335 1.695 9.34-1.201 8.86-6.25l-.019-.178a.667.667 0 0 1 .359-.67c.315-.16.705-.796.81-1.436l-.021.107-.022.009-.099.036c-.564.209-1.161.363-1.467.363a.667.667 0 0 1-.477-.2c-1.455-1.49-3.831-.216-3.287 2.01a.667.667 0 0 1-.648.825c-1.217 0-2.46-.429-3.665-1.21-.634-.412-.85-.545-1.053-.639l-.032-.015v.002z" fill="#FFF" fill-rule="nonzero" opacity=".5"/>
</svg>
