<svg width="58" height="56" viewBox="0 0 58 56" fill="none" xmlns="http://www.w3.org/2000/svg">
<g filter="url(#filter0_i_2878_3647)">
<ellipse cx="29.031" cy="28" rx="27.9939" ry="28" fill="url(#paint0_linear_2878_3647)"/>
</g>
<path d="M54.3832 28C54.3832 42.0049 43.0325 53.3579 29.031 53.3579C15.0294 53.3579 3.67871 42.0049 3.67871 28C3.67871 13.9951 15.0294 2.64209 29.031 2.64209C43.0325 2.64209 54.3832 13.9951 54.3832 28Z" fill="url(#paint1_linear_2878_3647)" fill-opacity="0.8"/>
<path d="M54.3832 28C54.3832 42.0049 43.0325 53.3579 29.031 53.3579C15.0294 53.3579 3.67871 42.0049 3.67871 28C3.67871 13.9951 15.0294 2.64209 29.031 2.64209C43.0325 2.64209 54.3832 13.9951 54.3832 28Z" stroke="url(#paint2_linear_2878_3647)" style="mix-blend-mode:overlay"/>
<path opacity="0.6" d="M20.9097 54.6172L46.6572 28.5185L38.1899 19.8765L29.0314 19.4574L19.7001 11.5802L0.691958 30.7654C0.0913706 31.0657 3.62059 38.9798 10.1055 47.3894C16.5904 55.7991 16.9067 55.5183 20.9097 54.6172Z" fill="url(#paint3_linear_2878_3647)"/>
<path d="M29.0312 46.321L46.657 28.5195V19.8674L29.0312 37.669V46.321Z" fill="url(#paint4_linear_2878_3647)"/>
<path d="M29.031 46.321L11.4053 28.5195V19.8674L29.031 37.669V46.321Z" fill="url(#paint5_linear_2878_3647)"/>
<path d="M29.0312 46.321L46.657 28.5195V19.8674L29.0312 37.669V46.321Z" fill="url(#paint6_linear_2878_3647)"/>
<path d="M46.657 28.4904L37.9346 19.7028V11.0618L46.657 19.8492V28.4904Z" fill="url(#paint7_linear_2878_3647)"/>
<path d="M29.031 46.321L11.4053 28.5195V19.8674L29.031 37.669V46.321Z" fill="url(#paint8_linear_2878_3647)"/>
<path d="M29.0674 19.9803L20.1278 28.9835V37.6282L29.0674 28.625V19.9803Z" fill="url(#paint9_linear_2878_3647)"/>
<path d="M29.0312 19.9803L37.9346 28.9835V37.6282L29.0312 28.625V19.9803Z" fill="url(#paint10_linear_2878_3647)"/>
<path d="M11.4053 28.4904L20.1277 19.7028V11.0618L11.4053 19.8492V28.4904Z" fill="url(#paint11_linear_2878_3647)"/>
<path d="M28.9951 28.7097L37.9347 19.7065V11.0618L28.9951 20.065V28.7097Z" fill="#D28A1C"/>
<path d="M29.0313 28.7097L20.1279 19.7065V11.0618L29.0313 20.065V28.7097Z" fill="#f2c75c"/>
<path fill-rule="evenodd" clip-rule="evenodd" d="M19.7686 10.2272L29.0307 19.4914L38.2929 10.2272V19.9113L34.0655 24.341L38.2929 28.9721V38.6518L29.0307 29.3876L19.7686 38.6518V28.9698L24.0944 24.3411L19.7686 19.9137V10.2272ZM20.4598 11.8963V19.632L25.0505 24.3305L20.4598 29.2426V36.9827L29.0307 28.4099L37.6017 36.9827V29.2402L33.1199 24.3305L37.6017 19.6343V11.8963L29.0307 20.4691L20.4598 11.8963Z" fill="white"/>
<defs>
<filter id="filter0_i_2878_3647" x="1.03711" y="0" width="55.9873" height="62" filterUnits="userSpaceOnUse" color-interpolation-filters="sRGB">
<feFlood flood-opacity="0" result="BackgroundImageFix"/>
<feBlend mode="normal" in="SourceGraphic" in2="BackgroundImageFix" result="shape"/>
<feColorMatrix in="SourceAlpha" type="matrix" values="0 0 0 0 0 0 0 0 0 0 0 0 0 0 0 0 0 0 127 0" result="hardAlpha"/>
<feOffset dy="7"/>
<feGaussianBlur stdDeviation="3"/>
<feComposite in2="hardAlpha" operator="arithmetic" k2="-1" k3="1"/>
<feColorMatrix type="matrix" values="0 0 0 0 1 0 0 0 0 1 0 0 0 0 1 0 0 0 0.3 0"/>
<feBlend mode="normal" in2="shape" result="effect1_innerShadow_2878_3647"/>
</filter>
<linearGradient id="paint0_linear_2878_3647" x1="51.2119" y1="3.67213" x2="4.39244" y2="49.5635" gradientUnits="userSpaceOnUse">
<stop stop-color="#f2c75c"/>
<stop offset="0.504337" stop-color="#4D259B"/>
<stop offset="0.714734" stop-color="#291D99"/>
<stop offset="1" stop-color="#120C40"/>
</linearGradient>
<linearGradient id="paint1_linear_2878_3647" x1="53.0257" y1="-5.49998" x2="13.0239" y2="43.9915" gradientUnits="userSpaceOnUse">
<stop stop-color="#FB9800"/>
<stop offset="0.619557" stop-color="#3D38D5"/>
<stop offset="1" stop-color="#0C0965"/>
</linearGradient>
<linearGradient id="paint2_linear_2878_3647" x1="16.3343" y1="13.0055" x2="52.1374" y2="48.0359" gradientUnits="userSpaceOnUse">
<stop stop-color="white"/>
<stop offset="1"/>
</linearGradient>
<linearGradient id="paint3_linear_2878_3647" x1="30.5212" y1="24.5633" x2="14.0004" y2="46.7826" gradientUnits="userSpaceOnUse">
<stop stop-opacity="0.71"/>
<stop offset="0.978714" stop-opacity="0"/>
</linearGradient>
<linearGradient id="paint4_linear_2878_3647" x1="29.0312" y1="33.0942" x2="46.657" y2="33.0942" gradientUnits="userSpaceOnUse">
<stop stop-color="#A5ABB2"/>
<stop offset="0.21" stop-color="#9FA5AC"/>
<stop offset="0.49" stop-color="#8C939A"/>
<stop offset="0.83" stop-color="#6F767E"/>
<stop offset="1" stop-color="#5D656D"/>
</linearGradient>
<linearGradient id="paint5_linear_2878_3647" x1="11.4053" y1="33.0942" x2="29.031" y2="33.0942" gradientUnits="userSpaceOnUse">
<stop stop-color="#3E4147"/>
<stop offset="0.3" stop-color="#44474D"/>
<stop offset="0.71" stop-color="#56585F"/>
<stop offset="1" stop-color="#67686F"/>
</linearGradient>
<linearGradient id="paint6_linear_2878_3647" x1="71.1635" y1="59.858" x2="34.3318" y2="24.3302" gradientUnits="userSpaceOnUse">
<stop stop-color="#f2c75c"/>
<stop offset="0.21" stop-color="#f2c75c"/>
<stop offset="0.49" stop-color="#f2c75c"/>
<stop offset="0.719569" stop-color="#D58710"/>
<stop offset="1" stop-color="#955A00"/>
</linearGradient>
<linearGradient id="paint7_linear_2878_3647" x1="37.6927" y1="15.5313" x2="46.6289" y2="22.4729" gradientUnits="userSpaceOnUse">
<stop stop-color="white"/>
<stop offset="1" stop-color="#FFC772" stop-opacity="0.47"/>
</linearGradient>
<linearGradient id="paint8_linear_2878_3647" x1="53.5376" y1="59.858" x2="16.7059" y2="24.3301" gradientUnits="userSpaceOnUse">
<stop stop-color="#f2c75c"/>
<stop offset="0.21" stop-color="#f2c75c"/>
<stop offset="0.49" stop-color="#f2c75c"/>
<stop offset="0.719569" stop-color="#D58710"/>
<stop offset="1" stop-color="#955A00"/>
</linearGradient>
<linearGradient id="paint9_linear_2878_3647" x1="20.7367" y1="32.9433" x2="28.7219" y2="24.8561" gradientUnits="userSpaceOnUse">
<stop stop-color="#FFBD57"/>
<stop offset="1" stop-color="#D28A1C" stop-opacity="0.62"/>
</linearGradient>
<linearGradient id="paint10_linear_2878_3647" x1="29.6376" y1="32.9433" x2="37.6232" y2="24.8885" gradientUnits="userSpaceOnUse">
<stop stop-color="#FFBD57"/>
<stop offset="1" stop-color="#D28A1C" stop-opacity="0.62"/>
</linearGradient>
<linearGradient id="paint11_linear_2878_3647" x1="20.333" y1="14.0414" x2="9.90624" y2="22.9675" gradientUnits="userSpaceOnUse">
<stop stop-color="white"/>
<stop offset="1" stop-color="#FFC772" stop-opacity="0.63"/>
</linearGradient>
</defs>
</svg>
