<svg width="36" height="34" viewBox="0 0 36 34" fill="none" xmlns="http://www.w3.org/2000/svg">
    <g clip-path="url(#clip0_6160_40269)">
        <path d="M4.84255 20.7143L5.95684 12.3143L-3.74316 5.5714L5.11398 8.5714L7.19969 5.35712L14.8426 0.614258L31.6854 9.88569L32.5568 24.0428L25.0568 34.4714L19.1283 35.3714L22.1997 29.7571V24.3571L19.9711 20.1428L17.6997 18.6428L14.214 22.2285V26.0285L11.4997 28.5714L8.04255 28.9857L6.51398 29.8571L3.99969 29.0571L2.95684 25.2857L4.84255 22.6428V20.7143Z" fill="white"/>
        <path d="M20.3147 5.51429C18.4719 5.12858 16.4433 5.22858 16.4433 5.22858C16.4433 5.22858 15.7862 8.30001 11.6719 9.10001C11.7004 9.10001 17.1147 10.9429 20.3147 5.51429Z" fill="#94A6C3"/>
        <path d="M21.9854 33.3286C24.2139 31.5858 25.8854 29.1858 26.6568 26.4572C26.6854 26.3572 26.9997 26.1715 27.214 26.0429C27.5568 25.8286 27.9139 25.6572 27.9854 25.3858C28.1282 24.5858 28.1997 23.7429 28.1997 22.9143C28.1997 22.6 27.8854 22.2858 27.5711 21.9715C27.3282 21.7572 27.0854 21.5143 27.0854 21.3429C26.7425 18.1715 25.2711 15.2 22.9425 13.0429L22.6997 13.2858C24.9711 15.4143 26.4282 18.3 26.7425 21.3715C26.7711 21.6572 27.0568 21.9286 27.3282 22.2143C27.5711 22.4286 27.8568 22.7429 27.8568 22.8715C27.8568 23.6715 27.7854 24.4715 27.6425 25.2715C27.614 25.4143 27.2997 25.5572 27.0568 25.6858C26.7139 25.8572 26.3997 26.0286 26.3282 26.3143C25.4854 29.2715 23.5711 31.8572 21.0282 33.5286C21.4854 32.5572 22.914 29.3858 23.6711 27.7715L23.5282 22.6143L19.0997 18.3286L16.5854 18.6715L13.8282 23.1286C13.8282 23.1286 15.114 24.7715 13.2997 26.6858C11.5282 28.5715 10.1282 28.9858 10.1282 28.9858L8.84252 28.2858C9.22824 27.8 9.99967 27.0715 10.5854 26.5715C11.5997 25.7286 12.6139 25.6715 12.6139 24.7572C12.6425 22.8715 10.6282 23.4 10.6282 23.4L9.89966 24.1L9.58538 26.6858L8.05681 28.6L7.88538 28.5715L5.37109 28.0143C5.37109 28.0143 6.89966 27.2143 7.14252 26.3C7.38538 25.4286 6.65681 22.5286 6.61395 22.3572C6.64252 22.3858 7.34252 22.9858 7.65681 23.9572C8.21395 22.4286 8.94252 20.9572 9.15681 20.8143C9.37109 20.6715 12.1854 19.1715 12.1854 19.1715L11.2425 21.6429L11.9425 21.2572L13.6139 17.1429C13.6139 17.1429 15.2568 16.3429 16.4711 16.3429C18.6711 16.3143 21.914 13.6286 20.4425 8.81433C20.8568 8.98576 28.114 12.6143 29.3711 19.7286C30.3282 25.2429 27.2282 30.3715 21.9854 33.3286Z" fill="#94A6C3"/>
        <path d="M13.6996 6.27145C14.4996 5.32859 14.1853 3.92859 14.1853 3.92859L11.8425 7.38573C11.8139 7.38573 12.6853 7.42859 13.6996 6.27145Z" fill="#1B314F"/>
        <path d="M5.84272 25.1428L6.12843 23.7428C6.12843 23.7428 4.97129 25.7714 4.87129 26.0428C4.77129 26.3571 4.94272 26.9142 5.39986 26.8857C5.85701 26.8571 6.41415 26.1857 6.41415 25.6999C6.39986 25.0714 5.84272 25.1428 5.84272 25.1428Z" fill="#1B314F"/>
        <path d="M26.5573 2.95709C26.5573 2.95709 28.3001 3.02852 30.1144 3.2428C26.0287 0.0285187 22.1716 -0.900055 19.0287 -0.900055C14.7001 -0.900055 11.7716 0.871373 11.6001 0.985659L12.9573 -1.17148C12.9573 -1.17148 7.51441 -1.70006 5.60013 4.05709C5.11441 2.8428 4.65727 1.05709 4.65727 1.05709C4.65727 1.05709 1.8287 3.52852 3.15727 7.6428C-0.0855846 6.45709 -4.72844 4.81423 -4.89987 4.78566C-5.14273 4.75709 -5.21416 4.85709 -5.21416 4.85709C-5.21416 4.85709 -5.28559 4.95709 -5.0713 5.1428C-4.68559 5.45709 2.6287 10.8571 4.24299 11.9142C3.90013 13.1714 3.90013 13.7571 4.24299 14.3571C4.7287 15.1571 4.77156 15.5714 4.70013 16.1714C4.6287 16.7571 4.00013 21.8857 3.85727 22.5142C3.71441 23.1428 2.25727 25.3714 2.3287 26.0428C2.40013 26.6999 3.30013 29.5285 4.10013 29.8428C4.68584 30.0571 6.15727 30.4999 7.1287 30.4999C7.47156 30.4999 7.78584 30.4285 7.9287 30.2857C8.51441 29.7571 8.70013 29.6571 9.11442 29.6571C9.14299 29.6571 9.18584 29.6571 9.21441 29.6571C9.38584 29.6571 9.60013 29.6857 9.84299 29.6857C10.4001 29.6857 11.1287 29.5857 11.6573 29.0999C12.4287 28.3285 13.743 27.2857 14.1716 26.7999C14.7001 26.1428 14.9716 25.2285 14.8287 24.3285C14.7287 23.4857 15.1716 22.7571 15.7001 22.0285C16.3573 21.1571 17.5858 19.5857 17.5858 19.5857C19.9858 21.3999 21.4858 24.1571 21.4858 27.2285C21.4858 32.6714 16.743 37.0571 10.8858 37.0571C9.98584 37.0571 9.11441 36.9571 8.24299 36.7428C10.9287 37.6857 13.2001 37.9999 15.043 37.9999C18.9858 37.9999 21.0716 36.5714 21.0716 36.5714C21.0716 36.5714 20.343 37.5142 19.1573 38.5999C19.1858 38.5999 19.1858 38.5999 19.1858 38.5999C25.7001 37.6999 28.8858 32.3285 28.8858 32.3285C28.8858 32.3285 28.643 34.0714 28.3287 35.2571C37.0144 28.7428 35.543 20.5714 35.5144 20.2999C35.5858 20.3999 36.4573 21.4571 36.9144 22.0142C38.3144 7.59995 26.5573 2.95709 26.5573 2.95709ZM13.2001 25.8999C13.0573 26.0714 12.4716 26.5999 12.043 26.9857C11.6287 27.3714 11.1716 27.7571 10.8287 28.0999C10.6858 28.2428 10.4144 28.3142 9.98584 28.3142C9.84299 28.3142 9.70013 28.3142 9.60013 28.3142C9.5287 28.3142 9.45727 28.3142 9.38584 28.3142C9.31441 28.3142 9.28584 28.3142 9.24299 28.3142C9.14299 28.3142 9.0287 28.3142 8.9287 28.3142C9.45727 27.6142 10.9858 26.0142 11.5144 25.6714C12.143 25.2571 12.4573 24.8285 12.0716 24.0999C11.6858 23.3714 10.6716 23.5428 10.6716 23.5428C10.6716 23.5428 11.2573 23.2999 11.7858 23.2999C11.1287 23.1285 10.2858 23.2999 9.90013 23.6857C9.48584 24.0714 9.55727 25.4285 9.37156 26.2999C9.20013 27.1999 8.60013 27.6571 7.70013 28.4999C7.21441 28.9571 6.85727 29.0857 6.58584 29.0857C6.00013 28.9857 5.30013 28.7999 4.81441 28.6285C4.47156 28.1714 3.94299 26.6714 3.80013 26.0428C3.90013 25.6999 4.3287 24.9571 4.5287 24.5428C4.94299 23.7428 5.18584 23.2857 5.25727 22.8714C5.40013 22.2857 5.84299 18.6142 6.0287 17.0857C6.48584 17.6714 7.11442 18.6571 6.97156 19.2857C7.98584 17.8571 7.25727 16.4571 6.90013 15.8999C6.58584 15.3428 6.17156 14.2285 6.51442 13.0428C6.85727 11.8571 8.11442 8.58566 8.11442 8.58566C8.11442 8.58566 8.5287 9.31423 9.1287 9.17138C9.71441 9.02852 14.5001 1.8428 14.5001 1.8428C14.5001 1.8428 15.7858 4.67138 14.4287 6.72852C13.0287 8.78566 11.6716 9.17138 11.6716 9.17138C11.6716 9.17138 13.5858 9.51423 15.3716 8.22852C16.1001 9.9428 16.8001 11.7142 16.843 11.9571C16.743 12.1999 15.343 15.5428 15.2001 15.7571C15.1287 15.8285 14.643 15.9714 14.3001 16.0428C13.7144 16.2142 13.3573 16.3285 13.2144 16.4285C12.9716 16.6428 11.8573 19.6999 11.3287 21.1999C10.7001 21.3714 10.0716 21.7285 9.61442 22.4142C9.85727 22.2428 10.6287 22.1285 11.1858 22.0714C11.6716 22.0428 13.1716 22.8428 13.5573 24.3428C13.5573 24.3714 13.5573 24.3714 13.5573 24.4142C13.6573 24.9714 13.4858 25.4857 13.2001 25.8999ZM9.9287 26.3285C10.243 25.8714 10.2144 25.1142 10.243 24.8571C10.2716 24.6142 10.343 24.1571 10.6287 24.0857C10.9144 24.0142 11.5716 24.1142 11.5716 24.6142C11.5716 25.0714 11.0858 25.1714 10.7287 25.4857C10.4858 25.7285 10.0001 26.2571 9.9287 26.3285ZM23.843 19.6714C24.1858 17.8999 24.2287 16.3571 24.1287 15.0999C25.4858 16.9142 26.3287 19.1142 26.5716 21.3714C26.6001 21.6571 26.8858 21.9285 27.1573 22.2142C27.4001 22.4285 27.6858 22.6999 27.6858 22.8714C27.6858 23.6714 27.6144 24.4714 27.4716 25.2714C27.443 25.3714 27.1287 25.5571 26.8858 25.6857C26.543 25.8571 26.2287 26.0285 26.1573 26.3142C25.3858 28.9999 23.7573 31.3714 21.5573 33.0428C24.7858 29.6714 26.3573 24.0999 23.843 19.6714ZM21.643 33.3714C23.9144 31.6285 25.6573 29.1857 26.4144 26.4285C26.443 26.3285 26.7573 26.1428 26.9716 26.0142C27.3144 25.8428 27.6716 25.6285 27.743 25.3571C27.8858 24.5571 27.9573 23.7142 27.9573 22.8857C27.9573 22.5714 27.643 22.2571 27.3287 21.9428C27.1573 21.7285 26.8716 21.4857 26.8716 21.3142C26.5858 18.7714 25.5858 16.3571 24.0144 14.3714C23.3144 10.1857 20.5287 8.89995 20.4573 8.85709C20.5287 8.95709 22.343 11.5714 21.0858 14.6428C19.8001 17.7428 16.4858 17.2571 16.2001 17.2857C15.9144 17.2857 14.843 18.6857 13.4858 21.2571C13.3144 21.1857 12.5858 21.0142 11.743 21.1571C12.3716 19.4142 13.3144 16.9428 13.4858 16.7285C13.5573 16.6571 14.0716 16.5142 14.4287 16.4142C15.0858 16.2428 15.4001 16.1285 15.5144 15.9999C15.5858 15.8999 15.9287 15.0999 16.2858 14.2571C16.6001 14.2571 17.4001 14.1857 17.4716 14.1571C17.543 14.0857 18.2001 12.3857 18.2001 12.1714C18.2001 11.9999 16.843 8.61423 16.3144 7.32852C16.5573 7.0428 16.8001 6.69995 17.043 6.31423C24.1858 7.08566 29.7716 13.1428 29.7716 20.4999C29.7716 26.1571 26.4573 31.0714 21.643 33.3714Z" fill="#1B314F"/>
        <path d="M12.3716 14.5429C13.0287 13.7715 12.6859 12.3429 11.4716 12.1C11.7859 11.3715 12.243 9.90002 12.243 9.90002C12.243 9.90002 8.68589 15.4857 8.3716 15.5857C8.05732 15.6857 7.74303 14.4715 7.74303 14.4715C7.08589 17.0143 8.85732 17.3715 9.0716 16.5572C10.0287 16.3143 11.7002 15.2715 12.3716 14.5429Z" fill="#1B314F"/>
        <path d="M9.34277 15.9L11.1571 12.8C11.1571 12.8 12.1999 13.3286 11.6856 14.1572C11.0142 15.1286 9.34277 15.9 9.34277 15.9Z" fill="#FFD923"/>
        <path d="M31.7567 30.2714C31.2281 30.9714 30.6424 31.7 29.9424 32.4C34.4424 23.7571 30.1567 15.8429 29.971 15.5286C30.2852 15.8429 30.5995 16.1857 30.871 16.5C34.3424 20.3286 34.7567 26.0857 31.7567 30.2714Z" fill="#D82122"/>
        <path d="M35.943 19.1429C34.3715 14.9286 32.143 11.3286 27.2287 8.08576C22.4858 4.94291 17.4001 5.18576 17.1144 5.22862C17.0858 5.22862 17.043 5.22862 17.043 5.22862C17.2144 5.15719 17.3858 5.12862 17.5715 5.08576C18.6573 4.74291 20.043 4.45719 21.443 4.28576C25.143 3.75719 28.8715 5.01433 31.4144 7.70005C31.443 7.72862 31.443 7.72862 31.4858 7.77148C34.3715 10.8429 35.8715 14.6858 35.943 19.1429Z" fill="#D82122"/>
        <path d="M26.0997 1.88569C20.8997 0.914261 17.5568 1.39997 15.1568 2.29997C15.0854 2.01426 14.8425 1.45712 14.6283 1.01426C13.8997 1.88569 13.1283 2.92855 12.6425 3.59998C11.314 4.49998 10.7568 5.3714 10.7568 5.3714C11.5283 2.75712 13.7568 0.799976 16.4711 0.314261C17.2425 0.171404 18.0711 0.0999756 18.9854 0.0999756C21.3997 0.142833 23.7997 0.728547 26.0997 1.88569Z" fill="#D82122"/>
        <path d="M6.90009 8.57145C2.81437 8.42859 4.1858 3.68574 4.25723 3.41431C4.24295 3.45716 4.52866 7.14288 6.90009 8.57145Z" fill="#D82122"/>
        <path d="M10.8999 0.0285645C7.757 1.91428 8.38557 6.41428 8.38557 6.41428C5.39986 1.84285 10.657 0.14285 10.8999 0.0285645Z" fill="#D82122"/>
        <path d="M5.74333 9.82853C5.95762 9.99995 6.15762 10.3142 5.91476 10.7714C5.7719 11.0142 5.5719 10.9857 5.25762 10.8428C4.84333 10.6285 2.32905 9.17139 0.0576172 7.67139C2.64333 8.57139 5.25762 9.5571 5.6719 9.7571C5.6719 9.7571 5.71476 9.79995 5.74333 9.82853Z" fill="white"/>
    </g>
    <defs>
        <clipPath id="clip0_6160_40269">
            <rect width="36" height="33.5714" fill="white"/>
        </clipPath>
    </defs>
</svg>