
<svg width="24" height="24" viewBox="0 0 24 24" fill="none" xmlns="http://www.w3.org/2000/svg">
<path d="M22.8615 8.1925L18.1582 1.28463C17.4195 0.201927 15.7492 0.776687 15.8038 2.0921C15.8538 3.29115 16.2976 4.5603 17.3598 6.11776C17.3603 6.11862 17.3605 6.11962 17.3604 6.12062C17.3603 6.12161 17.3599 6.12254 17.3592 6.12327C17.3585 6.124 17.3576 6.12449 17.3566 6.12468C17.3557 6.12487 17.3547 6.12473 17.3538 6.1243C16.9192 5.7972 10.3678 0.829958 2.58025 3.47479H2.57145C1.71198 3.80002 1.27322 4.50983 1.49075 5.34206C1.69208 6.11262 2.47472 6.57523 3.25274 6.44486C4.90689 6.16682 6.54855 6.03458 8.1629 6.17757C9.77726 6.32056 11.3564 6.73831 12.8268 7.46775C14.2973 8.19718 15.6293 9.22941 16.8535 10.4116C18.2304 11.7401 19.9387 14.5733 19.9387 14.5733C20.0388 14.7528 20.1985 14.8909 20.3896 14.9631C20.5808 15.0354 20.791 15.0371 20.9833 14.9681C21.4461 14.8009 21.6618 14.2621 21.4878 13.7999C21.1249 12.8339 20.6806 11.9011 20.1599 11.0116C20.1592 11.0108 20.1587 11.0097 20.1587 11.0086C20.1587 11.0074 20.1591 11.0063 20.1599 11.0054C20.1606 11.0046 20.1616 11.004 20.1627 11.0039C20.1639 11.0037 20.165 11.004 20.1659 11.0046C20.7417 11.2233 21.2744 11.4957 21.9048 11.3467C22.419 11.2247 22.8703 10.8715 23.0799 10.3771C23.2317 10.0245 23.2913 9.63849 23.2531 9.256C23.2148 8.87351 23.08 8.50733 22.8615 8.1925Z" fill="url(#paint0_linear_0_1)"/>
<path d="M1.15587 15.7737L5.88553 22.7203C6.62606 23.8063 8.2654 23.211 8.21495 21.8942C8.16867 20.6895 7.72574 19.4152 6.65845 17.8498C6.65521 17.8451 6.65845 17.8391 6.66401 17.8423C7.09953 18.1694 13.6527 23.1362 21.4371 20.4918C21.4402 20.492 21.4433 20.492 21.4463 20.4918C22.3058 20.1675 22.7423 19.4591 22.5266 18.626C22.3257 17.8559 21.5431 17.3933 20.7655 17.5241C19.1109 17.8045 17.4697 17.9339 15.8549 17.7909C14.2401 17.6479 12.6614 17.2302 11.1914 16.5012C9.72146 15.7723 8.38897 14.7391 7.16479 13.5573C5.78833 12.2288 4.07956 9.39568 4.07956 9.39568C3.97594 9.2091 3.8081 9.0674 3.60788 8.99746C3.40766 8.92752 3.18897 8.93421 2.9933 9.01624C2.55269 9.20316 2.36432 9.72885 2.53325 10.1793C2.89557 11.1422 3.33872 12.072 3.85787 12.9587C3.8584 12.9596 3.85864 12.9607 3.85856 12.9617C3.85848 12.9628 3.85809 12.9638 3.85743 12.9646C3.85678 12.9654 3.85589 12.966 3.85489 12.9663C3.8539 12.9666 3.85284 12.9665 3.85185 12.9662C3.27609 12.7475 2.74106 12.4751 2.113 12.6242C1.5988 12.7438 1.14707 13.0989 0.939263 13.5919C0.787717 13.9439 0.728057 14.3293 0.765977 14.7113C0.803896 15.0932 0.938129 15.459 1.15587 15.7737Z" fill="url(#paint1_linear_0_1)"/>
<defs>
<linearGradient id="paint0_linear_0_1" x1="24.4198" y1="21.5606" x2="-3.47511" y2="-12.4668" gradientUnits="userSpaceOnUse">
<stop offset="0.15" stop-color="#B32EFF"/>
<stop offset="0.42" stop-color="#CE60D3"/>
<stop offset="0.65" stop-color="#E185B3"/>
<stop offset="0.84" stop-color="#EE9C9F"/>
<stop offset="0.96" stop-color="#F2A498"/>
</linearGradient>
<linearGradient id="paint1_linear_0_1" x1="-0.40387" y1="2.40649" x2="27.492" y2="36.4348" gradientUnits="userSpaceOnUse">
<stop offset="0.15" stop-color="#B32EFF"/>
<stop offset="0.42" stop-color="#CE60D3"/>
<stop offset="0.65" stop-color="#E185B3"/>
<stop offset="0.84" stop-color="#EE9C9F"/>
<stop offset="0.96" stop-color="#F2A498"/>
</linearGradient>
</defs>
</svg>
