<svg width="94" height="94" viewBox="0 0 94 94" fill="none" xmlns="http://www.w3.org/2000/svg">
<path fill-rule="evenodd" clip-rule="evenodd" d="M47 94C72.9572 94 94 72.9572 94 47C94 21.0428 72.9572 0 47 0C21.0428 0 0 21.0428 0 47C0 72.9572 21.0428 94 47 94Z" fill="#02B397"/>
<path fill-rule="evenodd" clip-rule="evenodd" d="M47 16.168L18.048 32.383V57.762L47 74.165L75.952 57.762V32.383L47 16.168ZM69.936 54.238L47 67.398L24.158 54.614L41.454 44.368L48.692 48.786L37.694 55.93L43.992 59.596L69.936 44.838V54.238ZM54.144 44.744L47.094 40.514L56.4 34.78L50.102 31.114L24.158 46.624V36.472L47.094 23.312L69.936 36.096L54.144 44.744Z" fill="#F4FCFA"/>
</svg>
