<svg width="22" height="20" viewBox="0 0 22 20" fill="none" xmlns="http://www.w3.org/2000/svg">
<path d="M9.35821 12.6596V14.3194C9.35821 14.7841 8.99307 15.1493 8.52833 15.1493H6.86858C6.40384 15.1493 6.0387 14.7841 6.0387 14.3194V6.02059C6.0387 5.55586 6.40384 5.19071 6.86858 5.19071H7.34991C8.0968 5.19071 8.46194 4.29445 7.93082 3.77992L4.97645 0.792359C4.89988 0.71356 4.80828 0.650921 4.70708 0.608147C4.60587 0.565374 4.49711 0.543335 4.38724 0.543335C4.27737 0.543335 4.16861 0.565374 4.0674 0.608147C3.96619 0.650921 3.8746 0.71356 3.79803 0.792359L0.82706 3.77992C0.295938 4.29445 0.677682 5.19071 1.40798 5.19071H1.8893C2.35404 5.19071 2.71918 5.55586 2.71918 6.02059V17.6389C2.71918 18.1036 3.08433 18.4688 3.54906 18.4688H11.8478C12.3126 18.4688 12.6777 18.1036 12.6777 17.6389V12.6596C12.6777 12.1949 12.3126 11.8297 11.8478 11.8297H10.1881C9.73996 11.8297 9.35821 12.1949 9.35821 12.6596Z" fill="#615CCD"/>
<path d="M20.1468 15.1493C19.6821 15.1493 19.3169 14.7841 19.3169 14.3194V2.70109C19.3169 2.23636 18.9518 1.87122 18.4871 1.87122H10.1883C9.72354 1.87122 9.3584 2.23636 9.3584 2.70109V7.68036C9.3584 8.1451 9.72354 8.51024 10.1883 8.51024H11.848C12.3128 8.51024 12.6779 8.1451 12.6779 7.68036V6.02061C12.6779 5.55588 13.0431 5.19073 13.5078 5.19073H15.1675C15.6323 5.19073 15.9974 5.55588 15.9974 6.02061V14.3194C15.9974 14.7841 15.6323 15.1493 15.1675 15.1493H14.6862C13.9393 15.1493 13.5742 16.0455 14.1053 16.5601L17.0763 19.531C17.4082 19.863 17.9227 19.863 18.2547 19.531L21.2257 16.5601C21.7402 16.0455 21.375 15.1493 20.6447 15.1493H20.1468V15.1493Z" fill="#615CCD"/>
</svg>
