<svg width="23" height="32" viewBox="0 0 23 32" fill="none" xmlns="http://www.w3.org/2000/svg">
<g clip-path="url(#clip0_5129_337)">
<path d="M9.56738 15.9972L21.179 22.5406C21.4669 22.7143 21.8478 22.6183 22.0197 22.335C22.0754 22.2391 22.1079 22.1294 22.1079 22.0197V9.96547C22.1079 9.63646 21.8432 9.3623 21.5087 9.35773C21.3926 9.35773 21.2812 9.38514 21.179 9.44912L9.56738 15.9972Z" fill="#31CB9E"/>
<path d="M20.9305 6.55303L12.9928 0.809203C12.7141 0.599008 12.3193 0.653841 12.1057 0.92344C12.0546 0.987412 12.0174 1.06052 11.9988 1.14277L9.10059 13.9373L20.8608 7.54003C21.1488 7.39381 21.2602 7.04653 21.1116 6.76322C21.0698 6.68097 21.0048 6.60786 20.9305 6.5576" fill="#31CB9E"/>
<path d="M12.9835 31.1826L20.9305 25.4388C21.1999 25.2515 21.2602 24.8859 21.0698 24.6209C21.0187 24.5478 20.9491 24.4884 20.8654 24.4472L9.10059 18.05L11.9988 30.8445C12.0778 31.1781 12.4169 31.3791 12.7559 31.3015C12.8395 31.2832 12.9185 31.2466 12.9835 31.1964" fill="#31CB9E"/>
<path d="M6.54689 15.7653L9.56591 1.86952C9.63093 1.54966 9.41728 1.23893 9.09215 1.17496C8.93424 1.14297 8.76703 1.17496 8.63698 1.27092L0.903661 7.10613C0.508867 7.40772 0.276636 7.86923 0.276636 8.36273V23.1678C0.267346 23.6659 0.499578 24.1411 0.903661 24.4473L8.59982 30.2596C8.87386 30.447 9.24543 30.3784 9.43121 30.1088C9.5241 29.9763 9.55662 29.8164 9.52875 29.661L6.54689 15.7653Z" fill="#31CB9E"/>
</g>
<defs>
<clipPath id="clip0_5129_337">
<rect width="21.8298" height="30.6383" fill="white" transform="translate(0.276367 0.680847)"/>
</clipPath>
</defs>
</svg>
