<svg width="39" height="36" viewBox="0 0 39 36" fill="none" xmlns="http://www.w3.org/2000/svg">
<path fill-rule="evenodd" clip-rule="evenodd" d="M0.599609 14.4187C0.599609 14.4187 0.6131 14.4344 0.650198 14.4344C0.677179 14.4344 0.700787 14.4406 0.700787 14.4469C0.700787 14.4531 0.761494 14.4594 0.862671 14.4594C0.963849 14.4594 1.02456 14.4625 1.02456 14.4719C1.02456 14.4813 1.08526 14.4845 1.1797 14.4845C1.27413 14.4845 1.33483 14.4876 1.33483 14.497C1.33483 14.5064 1.39217 14.5095 1.47648 14.5095C1.5608 14.5095 1.61813 14.5126 1.61813 14.522C1.61813 14.5314 1.67547 14.5346 1.76653 14.5346C1.85759 14.5346 1.91492 14.5377 1.91492 14.5471C1.91492 14.5565 1.97563 14.5596 2.07006 14.5596C2.16449 14.5596 2.2252 14.5627 2.2252 14.5721C2.2252 14.5815 2.28253 14.5847 2.37359 14.5847C2.46465 14.5847 2.52199 14.5878 2.52199 14.5972C2.52199 14.6066 2.57932 14.6097 2.66364 14.6097C2.74795 14.6097 2.80528 14.6128 2.80528 14.6222C2.80528 14.6316 2.85925 14.6348 2.94693 14.6348C3.02787 14.6348 3.09195 14.641 3.09533 14.6473C3.0987 14.6535 3.16278 14.6598 3.24372 14.6598C3.32466 14.6598 3.38537 14.6629 3.38874 14.6692C3.38874 14.6755 3.5169 14.6849 3.66867 14.688C3.82043 14.6911 3.94522 14.7005 3.94522 14.7068C3.94522 14.713 4.0093 14.7162 4.08687 14.7162C4.17456 14.7162 4.22852 14.7193 4.22852 14.7287C4.22852 14.7381 4.27911 14.7412 4.36005 14.7412C4.44099 14.7412 4.49158 14.7444 4.49158 14.7537C4.49158 14.7631 4.54554 14.7663 4.62648 14.7663C4.70743 14.7663 4.76139 14.7694 4.76139 14.7788C4.76139 14.7882 4.81872 14.7913 4.90304 14.7913C4.98735 14.7913 5.04468 14.7945 5.04468 14.8038C5.04468 14.8132 5.09865 14.8164 5.17959 14.8164C5.26053 14.8164 5.31449 14.8195 5.31449 14.8289C5.31449 14.8383 5.36508 14.8414 5.44602 14.8414C5.52697 14.8414 5.57755 14.8446 5.57755 14.8539C5.57755 14.8633 5.63152 14.8665 5.71246 14.8665C5.7934 14.8665 5.84736 14.8696 5.84736 14.879C5.84736 14.8884 5.9047 14.8915 5.98901 14.8915C6.07332 14.8915 6.13066 14.8947 6.13066 14.904C6.13066 14.9134 6.18125 14.9166 6.26219 14.9166C6.34313 14.9166 6.39372 14.9197 6.39372 14.9291C6.39372 14.9385 6.44431 14.9416 6.51851 14.9416C6.5927 14.9416 6.64329 14.9448 6.64329 14.9541C6.64329 14.9635 6.69388 14.9667 6.77482 14.9667C6.85577 14.9667 6.90635 14.9698 6.90635 14.9792C6.90635 14.9886 6.96032 14.9917 7.04126 14.9917C7.1222 14.9917 7.17616 14.9949 7.17616 15.0042C7.17616 15.0136 7.22675 15.0168 7.30769 15.0168C7.38864 15.0168 7.43922 15.0199 7.43922 15.0293C7.43922 15.0387 7.49319 15.0418 7.57413 15.0418C7.65507 15.0418 7.70903 15.045 7.70903 15.0543C7.70903 15.0637 7.75625 15.0669 7.82707 15.0669C7.8979 15.0669 7.94511 15.07 7.94511 15.0794C7.94511 15.0888 7.99907 15.0919 8.08002 15.0919C8.16096 15.0919 8.21492 15.0951 8.21492 15.1044C8.21492 15.1138 8.26214 15.117 8.33296 15.117C8.39704 15.117 8.45437 15.1232 8.45775 15.1295C8.46112 15.1358 8.52183 15.142 8.59602 15.142C8.67022 15.142 8.72418 15.1452 8.72418 15.1514C8.72418 15.1577 8.8321 15.1639 8.96701 15.1702C9.09854 15.1733 9.20984 15.1827 9.20984 15.189C9.20984 15.1953 9.26717 15.1984 9.34137 15.1984C9.41893 15.1984 9.4729 15.2015 9.4729 15.2109C9.4729 15.2203 9.52349 15.2234 9.59768 15.2234C9.67188 15.2234 9.72247 15.2266 9.72247 15.236C9.72247 15.2454 9.76968 15.2485 9.84051 15.2485C9.91133 15.2485 9.95855 15.2516 9.95855 15.261C9.95855 15.2704 10.0091 15.2735 10.0833 15.2735C10.1575 15.2735 10.2081 15.2767 10.2081 15.2861C10.2081 15.2955 10.2553 15.2986 10.3262 15.2986C10.397 15.2986 10.4442 15.3017 10.4442 15.3111C10.4442 15.3205 10.4948 15.3236 10.569 15.3236C10.6432 15.3236 10.6938 15.3268 10.6938 15.3362C10.6938 15.3456 10.741 15.3487 10.8118 15.3487C10.8826 15.3487 10.9299 15.3518 10.9299 15.3612C10.9299 15.3706 10.9804 15.3737 11.0546 15.3737C11.1288 15.3737 11.1794 15.3769 11.1794 15.3863C11.1794 15.3957 11.2233 15.3988 11.284 15.3988C11.3447 15.3988 11.3885 15.4019 11.3885 15.4113C11.3885 15.4207 11.4391 15.4238 11.5133 15.4238C11.5875 15.4238 11.6381 15.427 11.6381 15.4364C11.6381 15.4458 11.6853 15.4489 11.7561 15.4489C11.827 15.4489 11.8742 15.452 11.8742 15.4614C11.8742 15.4708 11.918 15.4739 11.9855 15.4739C12.0529 15.4739 12.0968 15.4771 12.0968 15.4865C12.0968 15.4959 12.144 15.499 12.2148 15.499C12.2856 15.499 12.3329 15.5021 12.3329 15.5115C12.3329 15.5209 12.3767 15.524 12.4441 15.524C12.5116 15.524 12.5554 15.5272 12.5554 15.5366C12.5554 15.546 12.6027 15.5491 12.6735 15.5491C12.7443 15.5491 12.7915 15.5522 12.7915 15.5616C12.7915 15.571 12.8354 15.5741 12.9028 15.5741C12.9635 15.5741 13.0141 15.5804 13.0141 15.5835C13.0141 15.5867 13.0613 15.5961 13.122 15.5992C13.4121 15.6148 13.4728 15.6211 13.4728 15.6274C13.4728 15.6336 13.5706 15.6399 13.6886 15.6462C13.8067 15.6493 13.9045 15.6587 13.9045 15.6649C13.9045 15.6712 13.9551 15.6743 14.0158 15.6743C14.0832 15.6743 14.1271 15.6775 14.1271 15.6869C14.1271 15.6963 14.1709 15.6994 14.2316 15.6994C14.2923 15.6994 14.3362 15.7057 14.3362 15.7119C14.3362 15.7182 14.38 15.7244 14.4475 15.7244C14.5149 15.7244 14.5588 15.7276 14.5588 15.737C14.5588 15.7464 14.6026 15.7495 14.6633 15.7495C14.724 15.7495 14.7679 15.7526 14.7679 15.762C14.7679 15.7714 14.8117 15.7745 14.8792 15.7745C14.9466 15.7745 14.9905 15.7777 14.9905 15.7871C14.9905 15.7965 15.0343 15.7996 15.095 15.7996C15.1557 15.7996 15.1996 15.8027 15.1996 15.8121C15.1996 15.8215 15.2434 15.8246 15.3109 15.8246C15.3783 15.8246 15.4221 15.8278 15.4221 15.8372C15.4221 15.8466 15.4626 15.8497 15.52 15.8497C15.5773 15.8497 15.6178 15.856 15.6178 15.8622C15.6178 15.8685 15.6616 15.8747 15.7223 15.8747C15.783 15.8747 15.8269 15.8779 15.8269 15.8873C15.8269 15.8967 15.8673 15.8998 15.9247 15.8998C15.982 15.8998 16.0225 15.9061 16.0225 15.9123C16.0225 15.9186 16.0663 15.9248 16.127 15.9248C16.1877 15.9248 16.2316 15.928 16.2316 15.9374C16.2316 15.9468 16.272 15.9499 16.3294 15.9499C16.3867 15.9499 16.4272 15.9562 16.4272 15.9624C16.4272 15.9687 16.471 15.9749 16.5317 15.9749C16.5924 15.9749 16.6363 15.9812 16.6363 15.9875C16.6363 15.9937 16.6768 16 16.7341 16C16.7914 16 16.8319 16.0063 16.8319 16.0125C16.8319 16.0188 16.8724 16.025 16.9297 16.025C16.987 16.025 17.0275 16.0313 17.0275 16.0376C17.0275 16.0438 17.0713 16.0501 17.1321 16.0501C17.1928 16.0501 17.2366 16.0532 17.2366 16.0626C17.2366 16.072 17.2771 16.0751 17.3344 16.0751C17.3917 16.0751 17.4322 16.0814 17.4322 16.0877C17.4322 16.0939 17.4727 16.1002 17.5233 16.1002C17.5739 16.1002 17.6177 16.1033 17.6211 16.1096C17.6245 16.1159 17.7155 16.1221 17.8201 16.1284C17.9246 16.1315 18.0123 16.1409 18.0123 16.1472C18.0123 16.1534 18.0528 16.1566 18.1067 16.1566C18.1607 16.1566 18.2012 16.1628 18.2012 16.1691C18.2012 16.1753 18.2416 16.1816 18.299 16.1816C18.3563 16.1816 18.3968 16.1879 18.3968 16.1941C18.3968 16.2004 18.4372 16.2067 18.4912 16.2067C18.5452 16.2067 18.5856 16.2129 18.5856 16.2192C18.5856 16.2254 18.6261 16.2317 18.6834 16.2317C18.7408 16.2317 18.7812 16.238 18.7812 16.2442C18.7812 16.2505 18.8183 16.2568 18.8689 16.2568C18.9195 16.2568 18.9566 16.263 18.9566 16.2693C18.9566 16.2755 18.9971 16.2818 19.0511 16.2818C19.105 16.2818 19.1455 16.2881 19.1455 16.2943C19.1455 16.3006 19.186 16.3069 19.2433 16.3069C19.3006 16.3069 19.3411 16.3131 19.3411 16.3194C19.3411 16.3256 19.3748 16.3319 19.422 16.3319C19.4693 16.3319 19.503 16.3382 19.503 16.3444C19.503 16.3507 19.5435 16.357 19.6008 16.357C19.6581 16.357 19.6986 16.3632 19.6986 16.3695C19.6986 16.3757 19.7357 16.382 19.7863 16.382C19.8369 16.382 19.874 16.3883 19.874 16.3945C19.874 16.4008 19.9077 16.4071 19.9549 16.4071C20.0021 16.4071 20.0359 16.4133 20.0359 16.4196C20.0359 16.4258 20.0763 16.4321 20.1337 16.4321C20.191 16.4321 20.2315 16.4384 20.2315 16.4446C20.2315 16.4509 20.2686 16.4572 20.3192 16.4572C20.3697 16.4572 20.4068 16.4634 20.4068 16.4697C20.4068 16.4759 20.4406 16.4822 20.4878 16.4822C20.535 16.4822 20.5687 16.4885 20.5687 16.4947C20.5687 16.501 20.6058 16.5073 20.6564 16.5073C20.707 16.5073 20.7441 16.5135 20.7441 16.5198C20.7441 16.526 20.7846 16.5323 20.8419 16.5323C20.8992 16.5323 20.9397 16.5386 20.9397 16.5448C20.9397 16.5511 20.9734 16.5574 21.0206 16.5574C21.0679 16.5574 21.1016 16.5636 21.1016 16.5699C21.1016 16.5761 21.1387 16.5824 21.1893 16.5824C21.2399 16.5824 21.277 16.5855 21.277 16.5918C21.277 16.5981 21.3478 16.6043 21.4321 16.6106C21.5164 16.6137 21.5872 16.6231 21.5872 16.6294C21.5872 16.6356 21.6277 16.6388 21.6749 16.6388C21.7221 16.6388 21.7626 16.645 21.7626 16.6513C21.7626 16.6576 21.7963 16.6638 21.8436 16.6638C21.8908 16.6638 21.9245 16.6701 21.9245 16.6763C21.9245 16.6826 21.9616 16.6889 22.0122 16.6889C22.0628 16.6889 22.0999 16.6951 22.0999 16.7014C22.0999 16.7077 22.1336 16.7139 22.1741 16.7139C22.2145 16.7139 22.2483 16.7202 22.2483 16.7264C22.2483 16.7327 22.282 16.739 22.3292 16.739C22.3764 16.739 22.4102 16.7452 22.4102 16.7515C22.4102 16.7578 22.4439 16.764 22.4844 16.764C22.5248 16.764 22.5585 16.7703 22.5585 16.7765C22.5585 16.7828 22.5956 16.7891 22.6462 16.7891C22.6968 16.7891 22.7339 16.7953 22.7339 16.8016C22.7339 16.8079 22.7677 16.8141 22.8081 16.8141C22.8486 16.8141 22.8823 16.8204 22.8823 16.8266C22.8823 16.8329 22.9127 16.8392 22.9498 16.8392C22.9869 16.8392 23.0172 16.8454 23.0172 16.8517C23.0172 16.858 23.0543 16.8642 23.1049 16.8642C23.1555 16.8642 23.1926 16.8705 23.1926 16.8768C23.1926 16.883 23.2263 16.8893 23.2668 16.8893C23.3073 16.8893 23.341 16.8955 23.341 16.9018C23.341 16.9081 23.3713 16.9143 23.4084 16.9143C23.4455 16.9143 23.4759 16.9206 23.4759 16.9269C23.4759 16.9331 23.5096 16.9394 23.5501 16.9394C23.5906 16.9394 23.6243 16.9456 23.6243 16.9519C23.6243 16.9582 23.658 16.9644 23.6985 16.9644C23.739 16.9644 23.7727 16.9707 23.7727 16.977C23.7727 16.9832 23.803 16.9895 23.8401 16.9895C23.8772 16.9895 23.9076 16.9957 23.9076 17.002C23.9076 17.0083 23.9413 17.0145 23.9818 17.0145C24.0223 17.0145 24.056 17.0208 24.056 17.0271C24.056 17.0333 24.0897 17.0396 24.1302 17.0396C24.1706 17.0396 24.2044 17.0458 24.2044 17.0521C24.2044 17.0584 24.2381 17.0646 24.2786 17.0646C24.319 17.0646 24.3528 17.0709 24.3561 17.074C24.3561 17.0803 24.4168 17.0897 24.4877 17.0928C24.5585 17.0959 24.6158 17.1053 24.6158 17.1116C24.6158 17.1179 24.6496 17.121 24.69 17.121C24.7305 17.121 24.7642 17.1273 24.7642 17.1335C24.7642 17.1398 24.7878 17.146 24.8216 17.146C24.8553 17.146 24.8789 17.1523 24.8789 17.1586C24.8789 17.1648 24.9126 17.1711 24.9531 17.1711C24.9936 17.1711 25.0273 17.1774 25.0273 17.1836C25.0273 17.1899 25.0543 17.1961 25.088 17.1961C25.1217 17.1961 25.1487 17.2024 25.1487 17.2087C25.1487 17.2149 25.1757 17.2212 25.2094 17.2212C25.2431 17.2212 25.2701 17.2275 25.2701 17.2337C25.2701 17.24 25.3005 17.2462 25.3376 17.2462C25.3747 17.2462 25.405 17.2525 25.405 17.2588C25.405 17.265 25.432 17.2713 25.4657 17.2713C25.4995 17.2713 25.5264 17.2776 25.5264 17.2838C25.5264 17.2901 25.5534 17.2963 25.5871 17.2963C25.6209 17.2963 25.6478 17.3026 25.6478 17.3089C25.6478 17.3151 25.6748 17.3214 25.7085 17.3214C25.7423 17.3214 25.7693 17.3277 25.7693 17.3339C25.7693 17.3402 25.7929 17.3464 25.8266 17.3464C25.8603 17.3464 25.8839 17.3527 25.8839 17.359C25.8839 17.3652 25.9109 17.3715 25.9446 17.3715C25.9784 17.3715 26.0053 17.3778 26.0053 17.384C26.0053 17.3903 26.0323 17.3965 26.066 17.3965C26.0998 17.3965 26.1268 17.4028 26.1268 17.4091C26.1268 17.4153 26.1537 17.4216 26.1875 17.4216C26.2212 17.4216 26.2482 17.4279 26.2482 17.4341C26.2482 17.4404 26.2718 17.4466 26.3055 17.4466C26.3392 17.4466 26.3628 17.4529 26.3628 17.4592C26.3628 17.4654 26.3864 17.4717 26.4134 17.4717C26.4404 17.4717 26.464 17.478 26.464 17.4842C26.464 17.4905 26.491 17.4967 26.5247 17.4967C26.5584 17.4967 26.5854 17.503 26.5854 17.5093C26.5854 17.5155 26.6124 17.5218 26.6461 17.5218C26.6799 17.5218 26.7068 17.5281 26.7068 17.5343C26.7068 17.5406 26.7271 17.5468 26.7507 17.5468C26.7743 17.5468 26.7979 17.5531 26.8013 17.5594C26.8046 17.5656 26.835 17.5719 26.8653 17.5719C26.8957 17.5719 26.9193 17.575 26.9193 17.5813C26.9193 17.5875 26.9632 17.5938 27.0171 17.6001C27.0711 17.6032 27.1149 17.6126 27.1149 17.6189C27.1149 17.6251 27.1385 17.6283 27.1655 17.6283C27.1925 17.6283 27.2161 17.6345 27.2161 17.6408C27.2161 17.647 27.2397 17.6533 27.2734 17.6533C27.3072 17.6533 27.3308 17.6596 27.3308 17.6658C27.3308 17.6721 27.3544 17.6784 27.3814 17.6784C27.4083 17.6784 27.4319 17.6846 27.4319 17.6909C27.4319 17.6971 27.4556 17.7034 27.4825 17.7034C27.5095 17.7034 27.5331 17.7097 27.5331 17.7159C27.5331 17.7222 27.5567 17.7285 27.5837 17.7285C27.6107 17.7285 27.6343 17.7347 27.6343 17.741C27.6343 17.7472 27.6579 17.7535 27.6849 17.7535C27.7119 17.7535 27.7355 17.7598 27.7355 17.766C27.7355 17.7723 27.749 17.7786 27.7658 17.7786C27.7827 17.7786 27.7962 17.7848 27.7962 17.7911C27.7962 17.7973 27.8198 17.8036 27.8468 17.8036C27.8738 17.8036 27.8974 17.8099 27.8974 17.8161C27.8974 17.8224 27.921 17.8287 27.948 17.8287C27.9749 17.8287 27.9985 17.8349 27.9985 17.8412C27.9985 17.8474 28.0154 17.8537 28.0356 17.8537C28.0559 17.8537 28.0727 17.86 28.0727 17.8662C28.0727 17.8725 28.0963 17.8788 28.1233 17.8788C28.1503 17.8788 28.1739 17.885 28.1739 17.8913C28.1739 17.8975 28.1874 17.9038 28.2043 17.9038C28.2211 17.9038 28.2346 17.9101 28.2346 17.9163C28.2346 17.9226 28.2582 17.9289 28.2852 17.9289C28.3122 17.9289 28.3358 17.9351 28.3358 17.9414C28.3358 17.9476 28.3527 17.9539 28.3729 17.9539C28.3931 17.9539 28.41 17.9602 28.41 17.9664C28.41 17.9727 28.4269 17.979 28.4471 17.979C28.4673 17.979 28.4842 17.9852 28.4842 17.9915C28.4842 17.9977 28.5078 18.004 28.5348 18.004C28.5618 18.004 28.5854 18.0103 28.5854 18.0165C28.5854 18.0228 28.6022 18.0291 28.6225 18.0291C28.6427 18.0291 28.6596 18.0353 28.6596 18.0416C28.6596 18.0478 28.6764 18.0541 28.6967 18.0541C28.7169 18.0541 28.7338 18.0604 28.7338 18.0635C28.7338 18.0666 28.7641 18.0792 28.8012 18.0823C28.8383 18.0854 28.8687 18.0948 28.8687 18.1011C28.8687 18.1073 28.8788 18.1105 28.8923 18.1105C28.9058 18.1105 28.9159 18.1167 28.9159 18.123C28.9159 18.1293 28.9327 18.1355 28.953 18.1355C28.9732 18.1355 28.9901 18.1418 28.9901 18.148C28.9901 18.1543 29.0069 18.1606 29.0272 18.1606C29.0474 18.1606 29.0643 18.1668 29.0643 18.1731C29.0643 18.1794 29.0744 18.1856 29.0879 18.1856C29.1014 18.1856 29.1115 18.1919 29.1115 18.1981C29.1115 18.2044 29.1284 18.2107 29.1486 18.2107C29.1688 18.2107 29.1857 18.2169 29.1857 18.2232C29.1857 18.2295 29.1924 18.2357 29.2059 18.2357C29.2194 18.2357 29.2262 18.242 29.2262 18.2482C29.2262 18.2545 29.243 18.2608 29.2633 18.2608C29.2835 18.2608 29.3004 18.267 29.3004 18.2733C29.3004 18.2796 29.3105 18.2858 29.324 18.2858C29.3375 18.2858 29.3476 18.2921 29.3476 18.2983C29.3476 18.3046 29.3577 18.3109 29.3712 18.3109C29.3847 18.3109 29.3948 18.3171 29.3948 18.3234C29.3948 18.3297 29.4049 18.3359 29.4184 18.3359C29.4319 18.3359 29.442 18.3422 29.442 18.3484C29.442 18.3547 29.4521 18.361 29.4656 18.361C29.4791 18.361 29.4892 18.3672 29.4892 18.3735C29.4892 18.3798 29.4993 18.386 29.5128 18.386C29.5263 18.386 29.5364 18.3923 29.5364 18.3985C29.5364 18.4048 29.5466 18.4111 29.5601 18.4111C29.5735 18.4111 29.5837 18.4173 29.5837 18.4236C29.5837 18.4299 29.5938 18.4361 29.6073 18.4361C29.6208 18.4361 29.6309 18.4424 29.6309 18.4486C29.6309 18.4549 29.641 18.4612 29.6545 18.4612C29.668 18.4612 29.6815 18.4674 29.6848 18.48C29.6882 18.4894 29.6983 18.4987 29.7084 18.4987C29.7186 18.4987 29.7354 18.5081 29.7489 18.5207C29.7624 18.5332 29.7793 18.5426 29.786 18.5426C29.8096 18.5426 30.039 18.7555 30.039 18.7774C30.039 18.7868 30.0457 18.7962 30.0524 18.7962C30.0592 18.7962 30.0659 18.815 30.0659 18.8401C30.0659 18.8651 30.0727 18.887 30.0828 18.8902C30.0963 18.8933 30.0963 18.8964 30.0828 18.8964C30.0727 18.8964 30.0659 18.9152 30.0659 18.9434C30.0659 18.9684 30.0592 18.9904 30.0524 18.9904C30.0457 18.9904 30.039 18.9998 30.039 19.0123C30.039 19.0248 30.0288 19.0373 30.0154 19.0405C30.0019 19.0436 29.9917 19.0561 29.9917 19.0655C29.9917 19.0749 29.9749 19.0968 29.9546 19.1156C29.9344 19.1344 29.9175 19.1532 29.9175 19.1594C29.9175 19.1782 29.759 19.3223 29.7422 19.3223C29.7321 19.3223 29.7186 19.3348 29.7084 19.3473C29.6747 19.3912 29.6241 19.4381 29.6106 19.4381C29.6039 19.4381 29.587 19.4475 29.5769 19.4601C29.5668 19.4726 29.5432 19.4851 29.523 19.4882C29.5027 19.4914 29.4892 19.5008 29.4892 19.507C29.4892 19.5133 29.4791 19.5195 29.4656 19.5195C29.4521 19.5195 29.4353 19.5289 29.4251 19.5415C29.415 19.554 29.3982 19.5634 29.388 19.5634C29.3779 19.5634 29.3611 19.5728 29.3509 19.5853C29.3408 19.5978 29.324 19.6072 29.3105 19.6072C29.297 19.6072 29.2869 19.6135 29.2869 19.6197C29.2869 19.626 29.2768 19.6323 29.2633 19.6323C29.2498 19.6323 29.2329 19.6417 29.2228 19.6542C29.2127 19.6667 29.1992 19.6761 29.1891 19.6761C29.1789 19.6761 29.1722 19.6824 29.1722 19.6886C29.1722 19.6949 29.1621 19.7012 29.1486 19.7012C29.1351 19.7012 29.125 19.7074 29.125 19.7137C29.125 19.7199 29.1149 19.7262 29.1014 19.7262C29.0879 19.7262 29.0778 19.7325 29.0778 19.7387C29.0778 19.745 29.0677 19.7513 29.0542 19.7513C29.0407 19.7513 29.0306 19.7575 29.0306 19.7638C29.0306 19.77 29.0204 19.7763 29.0069 19.7763C28.9935 19.7763 28.9833 19.7826 28.9833 19.7888C28.9833 19.7951 28.9732 19.8014 28.9597 19.8014C28.9462 19.8014 28.9361 19.8076 28.9361 19.8139C28.9361 19.8201 28.926 19.8264 28.9125 19.8264C28.899 19.8264 28.8889 19.8327 28.8889 19.8389C28.8889 19.8452 28.8788 19.8515 28.8653 19.8515C28.8518 19.8515 28.8417 19.8577 28.8417 19.864C28.8417 19.8702 28.8316 19.8765 28.8181 19.8765C28.8046 19.8765 28.7945 19.8828 28.7945 19.889C28.7945 19.8953 28.7844 19.9016 28.7709 19.9016C28.7574 19.9016 28.7473 19.9078 28.7473 19.9141C28.7473 19.9203 28.7405 19.9266 28.7304 19.9266C28.7203 19.9266 28.7102 19.9329 28.7102 19.9391C28.7102 19.9454 28.6933 19.9517 28.6731 19.9517C28.6528 19.9517 28.636 19.9579 28.636 19.9611C28.636 19.9642 28.6124 19.9736 28.5854 19.9798C28.5584 19.983 28.5348 19.9924 28.5348 19.9986C28.5348 20.0049 28.5179 20.008 28.4977 20.008C28.4774 20.008 28.4606 20.0143 28.4606 20.0205C28.4606 20.0268 28.4505 20.0331 28.437 20.0331C28.4235 20.0331 28.4134 20.0393 28.4134 20.0456C28.4134 20.0519 28.3965 20.0581 28.3763 20.0581C28.356 20.0581 28.3392 20.0613 28.3392 20.0675C28.3392 20.08 28.2785 20.1051 28.2515 20.1051C28.238 20.1051 28.2279 20.1114 28.2279 20.1176C28.2279 20.1239 28.2178 20.1301 28.2043 20.1301C28.1908 20.1301 28.1807 20.1364 28.1807 20.1427C28.1807 20.1489 28.1638 20.1552 28.1436 20.1552C28.1233 20.1552 28.1065 20.1615 28.1065 20.1677C28.1065 20.174 28.0896 20.1802 28.0694 20.1802C28.0491 20.1802 28.0323 20.1865 28.0323 20.1928C28.0323 20.199 28.0221 20.2053 28.0087 20.2053C27.9952 20.2053 27.985 20.2116 27.985 20.2178C27.985 20.2241 27.9682 20.2303 27.948 20.2303C27.9277 20.2303 27.9109 20.2366 27.9109 20.2429C27.9109 20.2491 27.894 20.2554 27.8738 20.2554C27.8535 20.2554 27.8367 20.2617 27.8367 20.2679C27.8367 20.2742 27.8198 20.2804 27.7996 20.2804C27.7793 20.2804 27.7625 20.2867 27.7625 20.293C27.7625 20.2992 27.749 20.3055 27.7321 20.3055C27.7152 20.3055 27.7018 20.3118 27.7018 20.318C27.7018 20.3243 27.6849 20.3305 27.6647 20.3305C27.6444 20.3305 27.6276 20.3368 27.6276 20.3431C27.6276 20.3493 27.6107 20.3556 27.5905 20.3556C27.5702 20.3556 27.5534 20.3619 27.5534 20.3681C27.5534 20.3744 27.5365 20.3806 27.5163 20.3806C27.496 20.3806 27.4792 20.3869 27.4792 20.3932C27.4792 20.3994 27.4623 20.4057 27.4421 20.4057C27.4218 20.4057 27.405 20.412 27.405 20.4182C27.405 20.4245 27.3881 20.4307 27.3679 20.4307C27.3476 20.4307 27.3308 20.437 27.3308 20.4401C27.3308 20.4433 27.3004 20.4558 27.2633 20.4589C27.2262 20.4621 27.1959 20.4715 27.1959 20.4777C27.1959 20.484 27.1723 20.4871 27.1453 20.4871C27.1183 20.4871 27.0947 20.4934 27.0947 20.4996C27.0947 20.5059 27.0778 20.5122 27.0576 20.5122C27.0373 20.5122 27.0205 20.5184 27.0205 20.5247C27.0205 20.5309 27.0036 20.5372 26.9834 20.5372C26.9632 20.5372 26.9463 20.5435 26.9463 20.5497C26.9463 20.556 26.9261 20.5623 26.9024 20.5623C26.8788 20.5623 26.8552 20.5685 26.8519 20.5748C26.8485 20.581 26.8316 20.5873 26.8148 20.5873C26.7979 20.5873 26.7844 20.5936 26.7844 20.5998C26.7844 20.6061 26.7608 20.6124 26.7338 20.6124C26.7068 20.6124 26.6832 20.6186 26.6832 20.6249C26.6832 20.6311 26.6664 20.6374 26.6461 20.6374C26.6259 20.6374 26.609 20.6437 26.609 20.6499C26.609 20.6562 26.5854 20.6625 26.5584 20.6625C26.5315 20.6625 26.5079 20.6687 26.5079 20.675C26.5079 20.6812 26.491 20.6875 26.4708 20.6875C26.4505 20.6875 26.4337 20.6938 26.4337 20.7C26.4337 20.7063 26.41 20.7126 26.3831 20.7126C26.3561 20.7126 26.3325 20.7188 26.3325 20.7251C26.3325 20.7313 26.3122 20.7376 26.2886 20.7376C26.265 20.7376 26.2448 20.7439 26.2448 20.7501C26.2448 20.7564 26.2212 20.7627 26.1942 20.7627C26.1672 20.7627 26.1436 20.7689 26.1436 20.7752C26.1436 20.7814 26.12 20.7877 26.093 20.7877C26.066 20.7877 26.0424 20.794 26.0424 20.8002C26.0424 20.8065 26.0256 20.8128 26.0053 20.8128C25.9851 20.8128 25.9682 20.819 25.9682 20.8253C25.9682 20.8315 25.9446 20.8378 25.9177 20.8378C25.8907 20.8378 25.8671 20.8441 25.8671 20.8503C25.8671 20.8566 25.8468 20.8629 25.8232 20.8629C25.7996 20.8629 25.7794 20.8691 25.7794 20.8754C25.7794 20.8816 25.7558 20.8879 25.7288 20.8879C25.7018 20.8879 25.6782 20.8942 25.6782 20.9004C25.6782 20.9067 25.6512 20.913 25.6175 20.913C25.5838 20.913 25.5568 20.9161 25.5568 20.9224C25.5568 20.9286 25.5163 20.9349 25.4624 20.9411C25.4118 20.9443 25.3679 20.9537 25.3612 20.9599C25.3578 20.9662 25.3342 20.9693 25.3106 20.9693C25.287 20.9693 25.2667 20.9756 25.2667 20.9818C25.2667 20.9881 25.2431 20.9944 25.2162 20.9944C25.1892 20.9944 25.1656 21.0006 25.1656 21.0069C25.1656 21.0132 25.1386 21.0194 25.1049 21.0194C25.0711 21.0194 25.0442 21.0257 25.0442 21.0319C25.0442 21.0382 25.0205 21.0445 24.9936 21.0445C24.9666 21.0445 24.943 21.0507 24.943 21.057C24.943 21.0633 24.9194 21.0695 24.8856 21.0695C24.8519 21.0695 24.8283 21.0758 24.8283 21.082C24.8283 21.0883 24.8047 21.0946 24.7777 21.0946C24.7507 21.0946 24.7271 21.1008 24.7271 21.1071C24.7271 21.1134 24.7001 21.1196 24.6664 21.1196C24.6327 21.1196 24.6057 21.1259 24.6057 21.1322C24.6057 21.1384 24.5821 21.1447 24.5551 21.1447C24.5281 21.1447 24.5045 21.1509 24.5045 21.1572C24.5045 21.1635 24.4776 21.1697 24.4438 21.1697C24.4101 21.1697 24.3831 21.176 24.3831 21.1823C24.3831 21.1885 24.3595 21.1948 24.3258 21.1948C24.2921 21.1948 24.2685 21.201 24.2685 21.2073C24.2685 21.2136 24.2448 21.2198 24.2179 21.2198C24.1909 21.2198 24.1673 21.2261 24.1673 21.2324C24.1673 21.2386 24.1403 21.2449 24.1066 21.2449C24.0728 21.2449 24.0459 21.2511 24.0459 21.2574C24.0459 21.2637 24.0189 21.2699 23.9852 21.2699C23.9514 21.2699 23.9245 21.2762 23.9245 21.2825C23.9245 21.2887 23.9008 21.295 23.8671 21.295C23.8334 21.295 23.8098 21.3012 23.8098 21.3075C23.8098 21.3138 23.7828 21.32 23.7491 21.32C23.7153 21.32 23.6884 21.3263 23.6884 21.3326C23.6884 21.3388 23.6614 21.3451 23.6277 21.3451C23.5939 21.3451 23.567 21.3513 23.567 21.3576C23.567 21.3639 23.54 21.3701 23.5062 21.3701C23.4725 21.3701 23.4455 21.3764 23.4455 21.3827C23.4455 21.3889 23.4219 21.3952 23.3882 21.3952C23.3545 21.3952 23.3309 21.3983 23.3309 21.4046C23.3309 21.4108 23.2702 21.4171 23.196 21.4234C23.1218 21.4265 23.0611 21.4359 23.0611 21.4421C23.0611 21.4484 23.0375 21.4515 23.0071 21.4515C22.9768 21.4515 22.9498 21.4578 22.943 21.4641C22.9397 21.4703 22.9059 21.4766 22.8688 21.4766C22.8317 21.4766 22.8014 21.4829 22.8014 21.4891C22.8014 21.4954 22.7744 21.5016 22.7407 21.5016C22.7069 21.5016 22.68 21.5079 22.68 21.5142C22.68 21.5204 22.653 21.5267 22.6193 21.5267C22.5855 21.5267 22.5585 21.533 22.5585 21.5392C22.5585 21.5455 22.5248 21.5517 22.4844 21.5517C22.4439 21.5517 22.4102 21.558 22.4102 21.5643C22.4102 21.5705 22.3798 21.5768 22.3427 21.5768C22.3056 21.5768 22.2753 21.5831 22.2753 21.5893C22.2753 21.5956 22.2483 21.6018 22.2145 21.6018C22.1808 21.6018 22.1538 21.6081 22.1538 21.6144C22.1538 21.6206 22.1201 21.6269 22.0796 21.6269C22.0392 21.6269 22.0054 21.6332 22.0054 21.6394C22.0054 21.6457 21.9751 21.6519 21.938 21.6519C21.9009 21.6519 21.8705 21.6582 21.8705 21.6645C21.8705 21.6707 21.8368 21.677 21.7963 21.677C21.7559 21.677 21.7221 21.6833 21.7221 21.6895C21.7221 21.6958 21.6884 21.702 21.648 21.702C21.6075 21.702 21.5738 21.7083 21.5738 21.7146C21.5738 21.7208 21.5434 21.7271 21.5063 21.7271C21.4692 21.7271 21.4389 21.7334 21.4389 21.7396C21.4389 21.7459 21.4051 21.7521 21.3647 21.7521C21.3242 21.7521 21.2905 21.7584 21.2905 21.7647C21.2905 21.7709 21.2567 21.7772 21.2163 21.7772C21.1758 21.7772 21.1421 21.7835 21.1421 21.7897C21.1421 21.796 21.1083 21.8022 21.0679 21.8022C21.0274 21.8022 20.9937 21.8085 20.9937 21.8148C20.9937 21.821 20.9633 21.8273 20.9262 21.8273C20.8891 21.8273 20.8588 21.8336 20.8588 21.8398C20.8588 21.8461 20.8217 21.8523 20.7711 21.8523C20.7205 21.8523 20.6834 21.8586 20.6834 21.8649C20.6834 21.8711 20.6497 21.8774 20.6092 21.8774C20.5687 21.8774 20.535 21.8837 20.5316 21.8868C20.5316 21.893 20.4608 21.9024 20.3765 21.9056C20.2922 21.9087 20.2247 21.9181 20.2247 21.9244C20.2247 21.9306 20.1842 21.9338 20.137 21.9338C20.0898 21.9338 20.0493 21.94 20.0493 21.9463C20.0493 21.9525 20.019 21.9588 19.9819 21.9588C19.9448 21.9588 19.9144 21.9651 19.9144 21.9713C19.9144 21.9776 19.8773 21.9839 19.8268 21.9839C19.7762 21.9839 19.7391 21.9901 19.7391 21.9964C19.7391 22.0026 19.702 22.0089 19.6514 22.0089C19.6008 22.0089 19.5637 22.0152 19.5637 22.0214C19.5637 22.0277 19.53 22.034 19.4827 22.034C19.4355 22.034 19.4018 22.0402 19.4018 22.0465C19.4018 22.0527 19.3647 22.059 19.3141 22.059C19.2635 22.059 19.2264 22.0653 19.2264 22.0715C19.2264 22.0778 19.1893 22.0841 19.1387 22.0841C19.0882 22.0841 19.0511 22.0903 19.0511 22.0966C19.0511 22.1028 19.0173 22.1091 18.9701 22.1091C18.9229 22.1091 18.8892 22.1154 18.8892 22.1216C18.8892 22.1279 18.8521 22.1342 18.8015 22.1342C18.7509 22.1342 18.7138 22.1404 18.7138 22.1467C18.7138 22.1529 18.6767 22.1592 18.6261 22.1592C18.5755 22.1592 18.5384 22.1655 18.5384 22.1717C18.5384 22.178 18.4979 22.1843 18.444 22.1843C18.39 22.1843 18.3496 22.1905 18.3496 22.1968C18.3496 22.203 18.3125 22.2093 18.2619 22.2093C18.2113 22.2093 18.1742 22.2156 18.1742 22.2218C18.1742 22.2281 18.1337 22.2344 18.0798 22.2344C18.0258 22.2344 17.9853 22.2406 17.9853 22.2469C17.9853 22.2531 17.9482 22.2594 17.8976 22.2594C17.847 22.2594 17.8099 22.2657 17.8099 22.2719C17.8099 22.2782 17.7695 22.2845 17.7121 22.2845C17.6548 22.2845 17.6143 22.2907 17.6143 22.297C17.6143 22.3032 17.5739 22.3095 17.5199 22.3095C17.4659 22.3095 17.4255 22.3158 17.4255 22.322C17.4255 22.3283 17.385 22.3346 17.3277 22.3346C17.2703 22.3346 17.2299 22.3408 17.2299 22.3471C17.2299 22.3533 17.1894 22.3596 17.1354 22.3596C17.0815 22.3596 17.041 22.3627 17.041 22.369C17.041 22.3753 16.9533 22.3815 16.842 22.3878C16.7341 22.3909 16.643 22.4003 16.643 22.4066C16.643 22.4128 16.5958 22.416 16.5385 22.416C16.4778 22.416 16.4339 22.4191 16.4339 22.4285C16.4339 22.4379 16.3935 22.441 16.3361 22.441C16.2788 22.441 16.2383 22.4473 16.2383 22.4535C16.2383 22.4598 16.1945 22.4661 16.1338 22.4661C16.0731 22.4661 16.0292 22.4692 16.0292 22.4786C16.0292 22.488 15.9887 22.4911 15.9314 22.4911C15.8741 22.4911 15.8336 22.4974 15.8336 22.5036C15.8336 22.5099 15.7898 22.5162 15.7223 22.5162C15.6549 22.5162 15.611 22.5224 15.611 22.5287C15.611 22.535 15.5672 22.5412 15.5065 22.5412C15.4458 22.5412 15.4019 22.5444 15.4019 22.5537C15.4019 22.5631 15.3513 22.5663 15.2771 22.5663C15.2029 22.5663 15.1523 22.5694 15.1523 22.5788C15.1523 22.5882 15.1085 22.5913 15.0478 22.5913C14.9871 22.5913 14.9432 22.5945 14.9432 22.6038C14.9432 22.6132 14.8927 22.6164 14.8185 22.6164C14.7443 22.6164 14.6937 22.6195 14.6937 22.6289C14.6937 22.6352 14.6633 22.6414 14.6262 22.6414C14.5723 22.6414 14.5588 22.6446 14.5588 22.6602C14.5588 22.6759 14.6566 22.6759 15.3581 22.6759C15.8842 22.6759 16.1574 22.6727 16.1574 22.6633C16.1574 22.6539 16.3935 22.6508 16.8454 22.6508C17.2973 22.6508 17.5334 22.6477 17.5334 22.6383C17.5334 22.6289 17.7121 22.6258 18.0427 22.6258C18.3732 22.6258 18.5519 22.6226 18.5519 22.6132C18.5519 22.6038 18.7071 22.6007 18.9903 22.6007C19.2736 22.6007 19.4288 22.5976 19.4288 22.5882C19.4288 22.5788 19.5603 22.5757 19.7998 22.5757C20.0392 22.5757 20.1708 22.5725 20.1708 22.5631C20.1708 22.5537 20.2922 22.5506 20.5114 22.5506C20.7306 22.5506 20.852 22.5475 20.852 22.5381C20.852 22.5287 20.9599 22.5256 21.1488 22.5256C21.3377 22.5256 21.4456 22.5224 21.4456 22.513C21.4456 22.5036 21.5501 22.5005 21.7356 22.5005C21.9211 22.5005 22.0257 22.4974 22.0257 22.488C22.0257 22.4786 22.1235 22.4755 22.2921 22.4755C22.4607 22.4755 22.5585 22.4723 22.5585 22.4629C22.5585 22.4535 22.653 22.4504 22.8115 22.4504C22.97 22.4504 23.0644 22.4473 23.0644 22.4379C23.0644 22.4285 23.1488 22.4254 23.2938 22.4254C23.4388 22.4254 23.5231 22.4222 23.5231 22.4128C23.5231 22.4034 23.6074 22.4003 23.7524 22.4003C23.8975 22.4003 23.9818 22.3972 23.9818 22.3878C23.9818 22.3784 24.0594 22.3753 24.1875 22.3753C24.3157 22.3753 24.3932 22.3721 24.3932 22.3627C24.3932 22.3533 24.4708 22.3502 24.599 22.3502C24.7103 22.3502 24.8047 22.3471 24.8047 22.3408C24.8047 22.3346 24.9733 22.3283 25.1791 22.322C25.3848 22.3189 25.5568 22.3095 25.5568 22.3032C25.5568 22.297 25.6411 22.2939 25.7389 22.2939C25.8502 22.2939 25.9177 22.2907 25.9177 22.2813C25.9177 22.2719 25.9817 22.2688 26.0863 22.2688C26.1908 22.2688 26.2549 22.2657 26.2549 22.2563C26.2549 22.2469 26.319 22.2438 26.4202 22.2438C26.5213 22.2438 26.5888 22.2375 26.5955 22.2312C26.5989 22.225 26.6664 22.2187 26.7574 22.2187C26.8519 22.2187 26.9126 22.2156 26.9126 22.2062C26.9126 22.1968 26.9733 22.1937 27.0677 22.1937C27.1621 22.1937 27.2228 22.1905 27.2228 22.1811C27.2228 22.1717 27.2802 22.1686 27.3712 22.1686C27.4623 22.1686 27.5196 22.1655 27.5196 22.1561C27.5196 22.1467 27.577 22.1436 27.6613 22.1436C27.7456 22.1436 27.8029 22.1404 27.8029 22.131C27.8029 22.1216 27.8569 22.1185 27.9378 22.1185C28.0188 22.1185 28.0727 22.1154 28.0727 22.106C28.0727 22.0966 28.1301 22.0935 28.2144 22.0935C28.2987 22.0935 28.356 22.0903 28.356 22.0809C28.356 22.0715 28.4066 22.0684 28.4808 22.0684C28.555 22.0684 28.6056 22.0653 28.6056 22.0559C28.6056 22.0465 28.6562 22.0434 28.7371 22.0434C28.8181 22.0434 28.8687 22.0402 28.8687 22.0308C28.8687 22.0214 28.9193 22.0183 28.9935 22.0183C29.0677 22.0183 29.1182 22.0152 29.1182 22.0058C29.1182 21.9964 29.1655 21.9933 29.2363 21.9933C29.3071 21.9933 29.3543 21.9901 29.3543 21.9807C29.3543 21.9713 29.4049 21.9682 29.4791 21.9682C29.5533 21.9682 29.6039 21.9651 29.6039 21.9557C29.6039 21.9463 29.6477 21.9432 29.7084 21.9432C29.7691 21.9432 29.813 21.9369 29.813 21.9306C29.813 21.9244 29.8568 21.9181 29.9243 21.9181C29.9917 21.9181 30.0356 21.915 30.0356 21.9056C30.0356 21.8962 30.0794 21.893 30.1401 21.893C30.2008 21.893 30.2447 21.8899 30.2447 21.8805C30.2447 21.8711 30.2885 21.868 30.356 21.868C30.4167 21.868 30.4673 21.8649 30.4673 21.8586C30.4673 21.8492 30.8383 21.8242 30.8686 21.8336C30.8754 21.8336 30.8787 21.8336 30.8787 21.8242C30.8787 21.8148 30.9158 21.8085 31.1553 21.7928C31.216 21.7897 31.2632 21.7803 31.2632 21.7741C31.2632 21.7678 31.3037 21.7647 31.3509 21.7647C31.3981 21.7647 31.4386 21.7584 31.4386 21.7521C31.4386 21.7459 31.4791 21.7396 31.533 21.7396C31.587 21.7396 31.6274 21.7334 31.6274 21.7271C31.6274 21.7208 31.6645 21.7146 31.7151 21.7146C31.7657 21.7146 31.8028 21.7083 31.8028 21.702C31.8028 21.6958 31.8399 21.6895 31.8905 21.6895C31.9411 21.6895 31.9782 21.6833 31.9782 21.677C31.9782 21.6707 32.0119 21.6645 32.0591 21.6645C32.1064 21.6645 32.1401 21.6582 32.1401 21.6519C32.1401 21.6457 32.1772 21.6394 32.2278 21.6394C32.2784 21.6394 32.3155 21.6332 32.3155 21.6269C32.3155 21.6206 32.3526 21.6144 32.4031 21.6144C32.4537 21.6144 32.4908 21.6081 32.4908 21.6018C32.4908 21.5956 32.5212 21.5893 32.5583 21.5893C32.5954 21.5893 32.6257 21.5831 32.6257 21.5768C32.6257 21.5705 32.6595 21.5643 32.6999 21.5643C32.7404 21.5643 32.7741 21.558 32.7741 21.5517C32.7741 21.5455 32.8112 21.5392 32.8618 21.5392C32.9124 21.5392 32.9495 21.533 32.9495 21.5267C32.9495 21.5204 32.9799 21.5142 33.017 21.5142C33.0541 21.5142 33.0844 21.5079 33.0844 21.5016C33.0844 21.4954 33.1181 21.4891 33.1586 21.4891C33.1991 21.4891 33.2328 21.4829 33.2328 21.4766C33.2328 21.4703 33.2598 21.4641 33.2935 21.4641C33.3272 21.4641 33.3542 21.4578 33.3542 21.4515C33.3542 21.4453 33.3879 21.439 33.4284 21.439C33.4689 21.439 33.5026 21.4328 33.5026 21.4265C33.5026 21.4202 33.533 21.414 33.5701 21.414C33.6072 21.414 33.6375 21.4077 33.6375 21.4014C33.6375 21.3952 33.6645 21.3889 33.6982 21.3889C33.7319 21.3889 33.7589 21.3858 33.7589 21.3795C33.7589 21.3733 33.8095 21.367 33.8736 21.3607C33.9377 21.3576 33.995 21.3482 34.0018 21.3419C34.0152 21.3326 34.0658 21.3263 34.2041 21.3106C34.2412 21.3075 34.2682 21.2981 34.2682 21.295C34.2682 21.2918 34.2918 21.2856 34.3188 21.2856C34.3458 21.2856 34.3694 21.2793 34.3694 21.2731C34.3694 21.2668 34.393 21.2605 34.4233 21.2605C34.4537 21.2605 34.4807 21.2543 34.4874 21.248C34.4908 21.2417 34.5211 21.2355 34.5515 21.2355C34.5818 21.2355 34.6054 21.2292 34.6054 21.223C34.6054 21.2167 34.6291 21.2104 34.656 21.2104C34.683 21.2104 34.7066 21.2042 34.7066 21.1979C34.7066 21.1916 34.7336 21.1854 34.7673 21.1854C34.8011 21.1854 34.828 21.1791 34.828 21.1729C34.828 21.1666 34.8516 21.1603 34.8786 21.1603C34.9056 21.1603 34.9292 21.1541 34.9292 21.1478C34.9292 21.1415 34.9494 21.1353 34.9731 21.1353C34.9967 21.1353 35.0169 21.129 35.0169 21.1228C35.0169 21.1165 35.0439 21.1102 35.0776 21.1102C35.1113 21.1102 35.1383 21.104 35.1383 21.0977C35.1383 21.0914 35.1619 21.0852 35.1889 21.0852C35.2159 21.0852 35.2395 21.0789 35.2395 21.0727C35.2395 21.0664 35.2631 21.0601 35.2901 21.0601C35.3171 21.0601 35.3407 21.0539 35.3407 21.0476C35.3407 21.0413 35.3643 21.0351 35.3913 21.0351C35.4182 21.0351 35.4418 21.0288 35.4418 21.0226C35.4418 21.0163 35.4553 21.01 35.4722 21.01C35.4891 21.01 35.5026 21.0038 35.5026 20.9975C35.5026 20.9912 35.5262 20.985 35.5531 20.985C35.5801 20.985 35.6037 20.9787 35.6037 20.9725C35.6037 20.9662 35.6273 20.9599 35.6543 20.9599C35.6813 20.9599 35.7049 20.9537 35.7049 20.9474C35.7049 20.9411 35.7218 20.9349 35.742 20.9349C35.7622 20.9349 35.7791 20.9286 35.7791 20.9224C35.7791 20.9161 35.8027 20.9098 35.8297 20.9098C35.8567 20.9098 35.8803 20.9067 35.8803 20.9004C35.8803 20.891 35.9444 20.8785 36.0759 20.8566C36.0995 20.8535 36.1164 20.8441 36.1164 20.8409C36.1164 20.8378 36.1332 20.8315 36.1535 20.8315C36.1737 20.8315 36.1906 20.8253 36.1906 20.819C36.1906 20.8128 36.2074 20.8065 36.2277 20.8065C36.2479 20.8065 36.2648 20.8002 36.2648 20.794C36.2648 20.7877 36.2816 20.7814 36.3019 20.7814C36.3221 20.7814 36.339 20.7752 36.339 20.7689C36.339 20.7627 36.3558 20.7564 36.3761 20.7564C36.3963 20.7564 36.4132 20.7501 36.4132 20.7439C36.4132 20.7376 36.4266 20.7313 36.4435 20.7313C36.4604 20.7313 36.4739 20.7251 36.4739 20.7188C36.4739 20.7126 36.4907 20.7063 36.511 20.7063C36.5312 20.7063 36.5481 20.7 36.5481 20.6938C36.5481 20.6875 36.5649 20.6812 36.5852 20.6812C36.6054 20.6812 36.6223 20.675 36.6223 20.6687C36.6223 20.6625 36.6324 20.6562 36.6459 20.6562C36.6594 20.6562 36.6695 20.6499 36.6695 20.6437C36.6695 20.6374 36.6863 20.6311 36.7066 20.6311C36.7268 20.6311 36.7437 20.6249 36.7437 20.6186C36.7437 20.6124 36.7605 20.6061 36.7808 20.6061C36.801 20.6061 36.8179 20.5998 36.8179 20.5936C36.8179 20.5873 36.828 20.581 36.8415 20.581C36.855 20.581 36.8651 20.5748 36.8651 20.5685C36.8651 20.5623 36.8819 20.556 36.9022 20.556C36.9224 20.556 36.9393 20.5497 36.9393 20.5435C36.9393 20.5372 36.946 20.5309 36.9595 20.5309C36.973 20.5309 36.9764 20.5247 36.9764 20.5184C36.9764 20.5122 36.9865 20.5059 37 20.5059C37.0135 20.5059 37.0236 20.4996 37.0236 20.4934C37.0236 20.4871 37.0405 20.4808 37.0607 20.4808C37.0809 20.4808 37.0978 20.4746 37.0978 20.4683C37.0978 20.4621 37.1079 20.4558 37.1214 20.4558C37.1349 20.4558 37.145 20.4495 37.145 20.4433C37.145 20.437 37.1551 20.4307 37.1686 20.4307C37.1821 20.4307 37.1922 20.4276 37.1922 20.4214C37.1922 20.4151 37.2158 20.4088 37.2428 20.4026C37.2698 20.3994 37.2934 20.39 37.2934 20.3838C37.2934 20.3775 37.3035 20.3744 37.317 20.3744C37.3305 20.3744 37.3406 20.3713 37.3406 20.365C37.3406 20.3587 37.3609 20.3493 37.3845 20.3399C37.4081 20.3305 37.4283 20.3212 37.4283 20.3149C37.4283 20.3086 37.4384 20.3055 37.4519 20.3055C37.4654 20.3055 37.4823 20.2961 37.4924 20.2836C37.5025 20.2711 37.5194 20.2617 37.5329 20.2617C37.5463 20.2617 37.5565 20.2554 37.5565 20.2491C37.5565 20.2429 37.5666 20.2366 37.5801 20.2366C37.5936 20.2366 37.6037 20.2303 37.6037 20.2241C37.6037 20.2178 37.6138 20.2116 37.6273 20.2116C37.6408 20.2116 37.6576 20.2022 37.6678 20.1896C37.6779 20.1771 37.6947 20.1677 37.7049 20.1677C37.715 20.1677 37.7318 20.1583 37.742 20.1458C37.7521 20.1333 37.7689 20.1239 37.7757 20.1239C37.7824 20.1239 37.8094 20.1082 37.8263 20.0894C37.8465 20.0706 37.8701 20.055 37.8802 20.055C37.8904 20.055 37.9038 20.0456 37.9072 20.0362C37.9106 20.0237 37.9308 20.0018 37.9511 19.9861C38.032 19.9266 38.1838 19.7794 38.1838 19.7638C38.1838 19.7544 38.1939 19.7419 38.2074 19.7325C38.2209 19.7231 38.231 19.7074 38.231 19.698C38.231 19.6886 38.2411 19.673 38.2546 19.6636C38.2681 19.6542 38.2782 19.6385 38.2782 19.626C38.2782 19.6135 38.2849 19.6041 38.2917 19.6041C38.2984 19.6041 38.3052 19.5884 38.3052 19.5696C38.3052 19.5509 38.3119 19.5352 38.3187 19.5352C38.3254 19.5352 38.3322 19.5258 38.3322 19.5133C38.3322 19.5008 38.3389 19.4914 38.3456 19.4914C38.3524 19.4914 38.3591 19.4694 38.3591 19.4381C38.3591 19.4068 38.3659 19.3849 38.3726 19.3849C38.3794 19.3849 38.3861 19.3411 38.3861 19.2753C38.3861 19.2095 38.3827 19.1657 38.3726 19.1657C38.3625 19.1657 38.3591 19.1438 38.3591 19.1125C38.3591 19.0812 38.3524 19.0592 38.3456 19.0592C38.3389 19.0592 38.3322 19.0436 38.3322 19.0248C38.3322 19.006 38.3254 18.9904 38.3187 18.9904C38.3119 18.9904 38.3052 18.981 38.3052 18.9684C38.3052 18.9559 38.2984 18.9465 38.2917 18.9465C38.2849 18.9465 38.2782 18.9371 38.2782 18.9246C38.2782 18.9121 38.2715 18.9027 38.2647 18.9027C38.258 18.9027 38.2512 18.8933 38.2512 18.8839C38.2512 18.8745 38.2344 18.8526 38.2141 18.8338C38.1939 18.815 38.177 18.7962 38.177 18.7868C38.177 18.7774 38.1433 18.743 38.1028 18.7085C38.0084 18.624 37.9949 18.6146 37.978 18.6146C37.9713 18.6146 37.9477 18.599 37.9308 18.5802C37.9106 18.5614 37.8937 18.5457 37.887 18.5457C37.8836 18.5457 37.8634 18.5301 37.8431 18.5113C37.8229 18.4925 37.7993 18.4768 37.7925 18.4768C37.7858 18.4768 37.7689 18.4674 37.7588 18.4549C37.7487 18.4424 37.7318 18.433 37.7183 18.433C37.7049 18.433 37.6947 18.4267 37.6947 18.4205C37.6947 18.4142 37.6846 18.4079 37.6711 18.4079C37.6576 18.4079 37.6408 18.3985 37.6307 18.386C37.6205 18.3735 37.6037 18.3641 37.5902 18.3641C37.5767 18.3641 37.5666 18.3578 37.5666 18.3516C37.5666 18.3453 37.5565 18.3391 37.543 18.3391C37.5295 18.3391 37.5194 18.3328 37.5194 18.3265C37.5194 18.3203 37.5092 18.314 37.4958 18.314C37.4823 18.314 37.4721 18.3077 37.4721 18.3015C37.4721 18.2952 37.462 18.289 37.4485 18.289C37.4351 18.289 37.4249 18.2858 37.4249 18.2796C37.4249 18.2764 37.3946 18.2576 37.3575 18.242C37.3204 18.2263 37.29 18.2107 37.29 18.2044C37.29 18.2013 37.2664 18.1919 37.2394 18.1888C37.2125 18.1856 37.1889 18.1762 37.1889 18.17C37.1889 18.1637 37.1787 18.1606 37.1652 18.1606C37.1518 18.1606 37.1416 18.1543 37.1416 18.148C37.1416 18.1418 37.1248 18.1355 37.1045 18.1355C37.0843 18.1355 37.0674 18.1293 37.0674 18.123C37.0674 18.1167 37.0573 18.1105 37.0438 18.1105C37.0303 18.1105 37.0202 18.1042 37.0202 18.0979C37.0202 18.0917 37.0101 18.0854 36.9966 18.0854C36.9831 18.0854 36.973 18.0792 36.973 18.0729C36.973 18.0666 36.9595 18.0604 36.9427 18.0604C36.9258 18.0604 36.9123 18.0541 36.9123 18.0478C36.9123 18.0416 36.9022 18.0353 36.8887 18.0353C36.8752 18.0353 36.8651 18.0291 36.8651 18.0228C36.8651 18.0165 36.8482 18.0103 36.828 18.0103C36.8077 18.0103 36.7909 18.004 36.7909 17.9977C36.7909 17.9915 36.774 17.9852 36.7538 17.9852C36.7336 17.9852 36.7167 17.979 36.7167 17.9727C36.7167 17.9664 36.7066 17.9602 36.6931 17.9602C36.6796 17.9602 36.6695 17.9539 36.6695 17.9476C36.6695 17.9414 36.6526 17.9351 36.6324 17.9351C36.6121 17.9351 36.5953 17.9289 36.5953 17.9226C36.5953 17.9163 36.5784 17.9101 36.5582 17.9101C36.5379 17.9101 36.5211 17.9038 36.5211 17.8975C36.5211 17.8913 36.5042 17.885 36.484 17.885C36.4637 17.885 36.4469 17.8788 36.4469 17.8725C36.4469 17.8662 36.4334 17.86 36.4165 17.86C36.3997 17.86 36.3862 17.8537 36.3862 17.8474C36.3862 17.8412 36.3693 17.8349 36.3491 17.8349C36.3288 17.8349 36.312 17.8287 36.312 17.8224C36.312 17.8161 36.2951 17.8099 36.2749 17.8099C36.2546 17.8099 36.2378 17.8036 36.2378 17.7973C36.2378 17.7911 36.2209 17.7848 36.2007 17.7848C36.1804 17.7848 36.1636 17.7786 36.1636 17.7723C36.1636 17.766 36.1467 17.7598 36.1265 17.7598C36.1062 17.7598 36.0894 17.7535 36.0894 17.7472C36.0894 17.741 36.0725 17.7347 36.0523 17.7347C36.0321 17.7347 36.0152 17.7316 36.0152 17.7253C36.0152 17.7191 35.9781 17.7128 35.9342 17.7065C35.8904 17.7034 35.8533 17.694 35.8533 17.6877C35.8533 17.6815 35.8364 17.6784 35.8162 17.6784C35.796 17.6784 35.7791 17.6721 35.7791 17.6658C35.7791 17.6596 35.7555 17.6533 35.7285 17.6533C35.7015 17.6533 35.6779 17.647 35.6779 17.6408C35.6779 17.6345 35.6611 17.6283 35.6408 17.6283C35.6206 17.6283 35.6037 17.622 35.6037 17.6157C35.6037 17.6095 35.5801 17.6032 35.5531 17.6032C35.5262 17.6032 35.5026 17.5969 35.5026 17.5907C35.5026 17.5844 35.4823 17.5782 35.4587 17.5782C35.4351 17.5782 35.4149 17.5719 35.4149 17.5656C35.4149 17.5594 35.398 17.5531 35.3778 17.5531C35.3575 17.5531 35.3407 17.5468 35.3407 17.5406C35.3407 17.5343 35.3171 17.5281 35.2901 17.5281C35.2631 17.5281 35.2395 17.5218 35.2395 17.5155C35.2395 17.5093 35.2159 17.503 35.1889 17.503C35.1619 17.503 35.1383 17.4967 35.1383 17.4905C35.1383 17.4842 35.1147 17.478 35.0877 17.478C35.0607 17.478 35.0371 17.4717 35.0371 17.4654C35.0371 17.4592 35.0169 17.4529 34.9933 17.4529C34.9697 17.4529 34.9495 17.4466 34.9495 17.4404C34.9495 17.4341 34.9258 17.4279 34.8989 17.4279C34.8719 17.4279 34.8483 17.4216 34.8483 17.4153C34.8483 17.4091 34.8247 17.4028 34.7977 17.4028C34.7707 17.4028 34.7471 17.3965 34.7471 17.3903C34.7471 17.384 34.7235 17.3778 34.6965 17.3778C34.6695 17.3778 34.6459 17.3715 34.6459 17.3652C34.6459 17.359 34.6189 17.3527 34.5852 17.3527C34.5515 17.3527 34.5245 17.3464 34.5245 17.3402C34.5245 17.3339 34.5043 17.3277 34.4807 17.3277C34.4571 17.3277 34.4368 17.3214 34.4368 17.3151C34.4368 17.3089 34.4132 17.3026 34.3862 17.3026C34.3592 17.3026 34.3356 17.2963 34.3356 17.2901C34.3356 17.2838 34.3087 17.2776 34.2749 17.2776C34.2412 17.2776 34.2142 17.2713 34.2142 17.265C34.2142 17.2588 34.1872 17.2525 34.1535 17.2525C34.1198 17.2525 34.0894 17.2462 34.0894 17.24C34.0894 17.2337 34.0389 17.2243 33.9815 17.2212C33.9242 17.2181 33.8803 17.2087 33.8803 17.2024C33.8803 17.1961 33.8534 17.193 33.8196 17.193C33.7859 17.193 33.7589 17.1867 33.7589 17.1805C33.7589 17.1742 33.7319 17.168 33.6982 17.168C33.6645 17.168 33.6375 17.1617 33.6375 17.1554C33.6375 17.1492 33.6139 17.1429 33.5869 17.1429C33.5599 17.1429 33.5363 17.1366 33.5363 17.1304C33.5363 17.1241 33.5127 17.1179 33.479 17.1179C33.4453 17.1179 33.4217 17.1116 33.4217 17.1053C33.4217 17.0991 33.3879 17.0928 33.3475 17.0928C33.307 17.0928 33.2733 17.0865 33.2733 17.0803C33.2733 17.074 33.2463 17.0678 33.2126 17.0678C33.1788 17.0678 33.1519 17.0615 33.1519 17.0552C33.1519 17.049 33.1283 17.0427 33.0945 17.0427C33.0608 17.0427 33.0372 17.0364 33.0372 17.0302C33.0372 17.0239 33.0102 17.0177 32.9765 17.0177C32.9428 17.0177 32.9158 17.0114 32.9158 17.0051C32.9158 16.9989 32.882 16.9926 32.8416 16.9926C32.8011 16.9926 32.7674 16.9863 32.7674 16.9801C32.7674 16.9738 32.7404 16.9676 32.7067 16.9676C32.673 16.9676 32.646 16.9613 32.646 16.955C32.646 16.9488 32.6156 16.9425 32.5785 16.9425C32.5414 16.9425 32.5111 16.9362 32.5111 16.93C32.5111 16.9237 32.4841 16.9175 32.4504 16.9175C32.4166 16.9175 32.3897 16.9112 32.3897 16.9049C32.3897 16.8987 32.3559 16.8924 32.3155 16.8924C32.275 16.8924 32.2413 16.8861 32.2413 16.8799C32.2413 16.8736 32.2075 16.8674 32.1671 16.8674C32.1266 16.8674 32.0929 16.8611 32.0929 16.8548C32.0929 16.8486 32.0625 16.8423 32.0254 16.8423C31.9883 16.8423 31.958 16.836 31.958 16.8298C31.958 16.8235 31.9242 16.8173 31.8838 16.8173C31.8433 16.8173 31.8096 16.811 31.8096 16.8047C31.8096 16.7985 31.7758 16.7922 31.7354 16.7922C31.6949 16.7922 31.6612 16.7859 31.6612 16.7797C31.6612 16.7734 31.6308 16.7672 31.5937 16.7672C31.5566 16.7672 31.5229 16.7609 31.5195 16.7578C31.5162 16.7515 31.4487 16.7452 31.3711 16.739C31.2936 16.7358 31.2295 16.7264 31.2295 16.7202C31.2295 16.7139 31.1924 16.7108 31.1485 16.7108C31.1047 16.7108 31.0676 16.7045 31.0676 16.6983C31.0676 16.692 31.0339 16.6857 30.9934 16.6857C30.9529 16.6857 30.9192 16.6795 30.9192 16.6732C30.9192 16.667 30.8821 16.6607 30.8315 16.6607C30.7809 16.6607 30.7438 16.6544 30.7438 16.6482C30.7438 16.6419 30.7101 16.6356 30.6629 16.6356C30.6157 16.6356 30.5819 16.6294 30.5819 16.6231C30.5819 16.6169 30.5482 16.6106 30.5077 16.6106C30.4673 16.6106 30.4335 16.6043 30.4335 16.5981C30.4335 16.5918 30.3965 16.5855 30.3459 16.5855C30.2953 16.5855 30.2582 16.5793 30.2582 16.573C30.2582 16.5668 30.2244 16.5605 30.1772 16.5605C30.13 16.5605 30.0963 16.5542 30.0963 16.548C30.0963 16.5417 30.0592 16.5354 30.0086 16.5354C29.958 16.5354 29.9209 16.5292 29.9209 16.5229C29.9209 16.5167 29.8838 16.5104 29.8332 16.5104C29.7826 16.5104 29.7455 16.5041 29.7455 16.4979C29.7455 16.4916 29.7051 16.4853 29.6511 16.4853C29.5971 16.4853 29.5567 16.4791 29.5567 16.4728C29.5567 16.4666 29.5196 16.4603 29.469 16.4603C29.4184 16.4603 29.3813 16.454 29.3813 16.4478C29.3813 16.4415 29.3442 16.4352 29.2936 16.4352C29.243 16.4352 29.2059 16.429 29.2059 16.4227C29.2059 16.4165 29.1655 16.4102 29.1115 16.4102C29.0575 16.4102 29.0171 16.4039 29.0171 16.3977C29.0171 16.3914 28.9766 16.3851 28.9193 16.3851C28.8619 16.3851 28.8215 16.3789 28.8215 16.3726C28.8215 16.3664 28.7877 16.3601 28.7405 16.3601C28.6933 16.3601 28.6596 16.3538 28.6596 16.3476C28.6596 16.3413 28.6191 16.335 28.5618 16.335C28.5044 16.335 28.464 16.3288 28.464 16.3225C28.464 16.3163 28.4235 16.31 28.3662 16.31C28.3088 16.31 28.2683 16.3037 28.2683 16.2975C28.2683 16.2912 28.2279 16.2849 28.1773 16.2849C28.1267 16.2849 28.0829 16.2818 28.0795 16.2755C28.0761 16.2693 27.9817 16.263 27.8738 16.2568C27.7658 16.2505 27.6748 16.2442 27.6748 16.238C27.6748 16.2317 27.6309 16.2286 27.577 16.2286C27.5196 16.2286 27.4792 16.2223 27.4792 16.2161C27.4792 16.2098 27.4353 16.2035 27.3679 16.2035C27.3004 16.2035 27.2566 16.1973 27.2566 16.191C27.2566 16.1847 27.2161 16.1785 27.1621 16.1785C27.1082 16.1785 27.0677 16.1722 27.0677 16.166C27.0677 16.1597 27.0239 16.1534 26.9564 16.1534C26.889 16.1534 26.8451 16.1503 26.8451 16.1409C26.8451 16.1315 26.8013 16.1284 26.7406 16.1284C26.6799 16.1284 26.636 16.1252 26.636 16.1159C26.636 16.1065 26.5922 16.1033 26.5247 16.1033C26.4573 16.1033 26.4134 16.1002 26.4134 16.0908C26.4134 16.0814 26.3696 16.0783 26.3089 16.0783C26.2482 16.0783 26.2043 16.0751 26.2043 16.0658C26.2043 16.0564 26.1605 16.0532 26.093 16.0532C26.0256 16.0532 25.9817 16.0501 25.9817 16.0407C25.9817 16.0313 25.9379 16.0282 25.8704 16.0282C25.803 16.0282 25.7591 16.025 25.7591 16.0157C25.7591 16.0063 25.7119 16.0031 25.6411 16.0031C25.5703 16.0031 25.5231 16 25.5231 15.9906C25.5231 15.9812 25.4792 15.9781 25.4118 15.9781C25.3443 15.9781 25.3005 15.9749 25.3005 15.9655C25.3005 15.9562 25.2533 15.953 25.1824 15.953C25.1116 15.953 25.0644 15.9499 25.0644 15.9405C25.0644 15.9311 25.0138 15.928 24.9396 15.928C24.8654 15.928 24.8148 15.9248 24.8148 15.9154C24.8148 15.9061 24.7676 15.9029 24.6968 15.9029C24.6259 15.9029 24.5787 15.8998 24.5787 15.8904C24.5787 15.881 24.5281 15.8779 24.4539 15.8779C24.3798 15.8779 24.3292 15.8747 24.3292 15.8653C24.3292 15.856 24.2819 15.8528 24.2111 15.8528C24.1403 15.8528 24.0931 15.8497 24.0931 15.8403C24.0931 15.8309 24.0425 15.8278 23.9683 15.8278C23.8941 15.8278 23.8435 15.8246 23.8435 15.8152C23.8435 15.8059 23.7929 15.8027 23.712 15.8027C23.6412 15.8027 23.5804 15.7996 23.5804 15.7933C23.5804 15.7871 23.4658 15.7808 23.3275 15.7745C23.1892 15.7714 23.0746 15.762 23.0746 15.7558C23.0746 15.7495 23.0172 15.7464 22.943 15.7464C22.8655 15.7464 22.8115 15.7432 22.8115 15.7338C22.8115 15.7244 22.7575 15.7213 22.6766 15.7213C22.5956 15.7213 22.5417 15.7182 22.5417 15.7088C22.5417 15.6994 22.4844 15.6963 22.4 15.6963C22.3157 15.6963 22.2584 15.6931 22.2584 15.6837C22.2584 15.6743 22.2044 15.6712 22.1235 15.6712C22.0425 15.6712 21.9886 15.6681 21.9886 15.6587C21.9886 15.6493 21.9312 15.6462 21.8469 15.6462C21.7626 15.6462 21.7053 15.643 21.7053 15.6336C21.7053 15.6242 21.6513 15.6211 21.5704 15.6211C21.4894 15.6211 21.4355 15.618 21.4355 15.6086C21.4355 15.5992 21.3781 15.5961 21.2938 15.5961C21.2095 15.5961 21.1522 15.5929 21.1522 15.5835C21.1522 15.5741 21.0948 15.571 21.0105 15.571C20.9262 15.571 20.8689 15.5679 20.8689 15.5585C20.8689 15.5491 20.8082 15.546 20.707 15.546C20.6058 15.546 20.5451 15.5428 20.5451 15.5334C20.5451 15.524 20.4878 15.5209 20.4035 15.5209C20.3192 15.5209 20.2618 15.5178 20.2618 15.5084C20.2618 15.499 20.2045 15.4959 20.1134 15.4959C20.0224 15.4959 19.965 15.4927 19.965 15.4833C19.965 15.4739 19.9043 15.4708 19.8099 15.4708C19.7155 15.4708 19.6547 15.4677 19.6547 15.4583C19.6547 15.4489 19.594 15.4458 19.4996 15.4458C19.4052 15.4458 19.3445 15.4426 19.3445 15.4332C19.3445 15.4238 19.2838 15.4207 19.1826 15.4207C19.0814 15.4207 19.0207 15.4176 19.0207 15.4082C19.0207 15.3988 18.9566 15.3957 18.8521 15.3957C18.7475 15.3957 18.6834 15.3925 18.6834 15.3831C18.6834 15.3737 18.6227 15.3706 18.5283 15.3706C18.4339 15.3706 18.3732 15.3675 18.3732 15.3581C18.3732 15.3487 18.3057 15.3456 18.2012 15.3456C18.0966 15.3456 18.0292 15.3424 18.0292 15.333C18.0292 15.3236 17.9651 15.3205 17.8605 15.3205C17.7695 15.3205 17.6919 15.3174 17.6919 15.3111C17.6919 15.3049 17.5401 15.2986 17.358 15.2923C17.1725 15.2892 17.0241 15.2798 17.0241 15.2735C17.0241 15.2673 16.9398 15.2641 16.8386 15.2641C16.724 15.2641 16.6531 15.261 16.6531 15.2516C16.6531 15.2422 16.5891 15.2391 16.4845 15.2391C16.38 15.2391 16.3159 15.236 16.3159 15.2266C16.3159 15.2172 16.2484 15.214 16.1371 15.214C16.0258 15.214 15.9584 15.2109 15.9584 15.2015C15.9584 15.1921 15.8876 15.189 15.7662 15.189C15.6447 15.189 15.5739 15.1859 15.5739 15.1765C15.5739 15.1671 15.5031 15.1639 15.3884 15.1639C15.2738 15.1639 15.2029 15.1608 15.2029 15.1514C15.2029 15.142 15.1321 15.1389 15.0107 15.1389C14.8893 15.1389 14.8185 15.1358 14.8185 15.1264C14.8185 15.117 14.7476 15.1138 14.6262 15.1138C14.5048 15.1138 14.434 15.1107 14.434 15.1013C14.434 15.0919 14.3632 15.0888 14.2417 15.0888C14.1203 15.0888 14.0495 15.0857 14.0495 15.0763C14.0495 15.0669 13.9719 15.0637 13.8404 15.0637C13.7089 15.0637 13.6313 15.0606 13.6313 15.0512C13.6313 15.0418 13.5605 15.0387 13.4391 15.0387C13.3177 15.0387 13.2468 15.0356 13.2468 15.0262C13.2468 15.0168 13.1659 15.0136 13.031 15.0136C12.8961 15.0136 12.8151 15.0105 12.8151 15.0011C12.8151 14.9917 12.7376 14.9886 12.6094 14.9886C12.4812 14.9886 12.4037 14.9855 12.4037 14.9761C12.4037 14.9667 12.3227 14.9635 12.1878 14.9635C12.0529 14.9635 11.972 14.9604 11.972 14.951C11.972 14.9416 11.891 14.9385 11.7561 14.9385C11.6212 14.9385 11.5403 14.9354 11.5403 14.926C11.5403 14.9166 11.4594 14.9134 11.3244 14.9134C11.1895 14.9134 11.1086 14.9103 11.1086 14.9009C11.1086 14.8915 11.0243 14.8884 10.8793 14.8884C10.7342 14.8884 10.6499 14.8853 10.6499 14.8759C10.6499 14.8665 10.5656 14.8633 10.4206 14.8633C10.2756 14.8633 10.1879 14.8602 10.1845 14.8508C10.1811 14.8446 10.0901 14.8383 9.95855 14.8383C9.83714 14.8383 9.73259 14.8352 9.72584 14.8289C9.7191 14.8226 9.4965 14.8132 9.2267 14.8101C8.96026 14.807 8.74104 14.7976 8.74104 14.7913C8.74104 14.7851 8.62638 14.7819 8.4881 14.7819C8.32622 14.7819 8.23516 14.7788 8.23516 14.7694C8.23516 14.76 8.14072 14.7569 7.98221 14.7569C7.8237 14.7569 7.72927 14.7537 7.72927 14.7444C7.72927 14.735 7.63146 14.7318 7.46283 14.7318C7.2942 14.7318 7.1964 14.7287 7.1964 14.7193C7.1964 14.7099 7.09859 14.7068 6.92996 14.7068C6.76133 14.7068 6.66353 14.7036 6.66353 14.6943C6.66353 14.6849 6.56235 14.6817 6.3836 14.6817C6.20486 14.6817 6.10368 14.6786 6.10368 14.6692C6.10368 14.6598 6.0025 14.6567 5.82375 14.6567C5.64501 14.6567 5.54383 14.6535 5.54383 14.6442C5.54383 14.6348 5.4359 14.6316 5.24029 14.6316C5.04468 14.6316 4.93676 14.6285 4.93676 14.6191C4.93676 14.6097 4.82884 14.6066 4.63997 14.6066C4.45111 14.6066 4.34319 14.6034 4.34319 14.5941C4.34319 14.5847 4.22852 14.5815 4.02616 14.5815C3.82381 14.5815 3.70914 14.5784 3.70914 14.569C3.70914 14.5596 3.5911 14.5565 3.382 14.5565C3.1729 14.5565 3.05486 14.5533 3.05486 14.544C3.05486 14.5346 2.93344 14.5314 2.72097 14.5314C2.5085 14.5314 2.38708 14.5283 2.38708 14.5189C2.38708 14.5095 2.2623 14.5064 2.03296 14.5064C1.80362 14.5064 1.67884 14.5032 1.67884 14.4939C1.67884 14.4845 1.54393 14.4813 1.29436 14.4813C1.04479 14.4813 0.909888 14.4782 0.909888 14.4688C0.909888 14.4594 0.849181 14.4563 0.754749 14.4563C0.62659 14.4563 0.599609 14.4563 0.599609 14.4751L0.599609 14.4187Z" fill="white"/>
</svg>
