<svg width="60" height="60" viewBox="0 0 60 60" fill="none" xmlns="http://www.w3.org/2000/svg">
<path d="M30 60C46.5685 60 60 46.5685 60 30C60 13.4314 46.5685 0 30 0C13.4314 0 0 13.4314 0 30C0 46.5685 13.4314 60 30 60Z" fill="url(#paint0_linear_2169_14687)"/>
<path d="M43.1305 41.9544L32.9867 17.4287C32.4145 16.1613 31.5651 15.5421 30.443 15.5421H29.5466C28.4245 15.5421 27.5751 16.1613 27.0028 17.4287L22.5881 28.1135H19.2486C18.2516 28.1202 17.4402 28.9249 17.4313 29.9308V29.9531C17.438 30.95 18.2516 31.7615 19.2486 31.7704H21.0435L16.83 41.9544C16.7517 42.178 16.707 42.4105 16.707 42.6496C16.707 43.2219 16.8858 43.6712 17.201 44.0176C17.5184 44.3663 17.9744 44.5362 18.5467 44.5362C18.9244 44.5295 19.2888 44.4133 19.5906 44.1875C19.9147 43.964 20.1405 43.6376 20.3171 43.2666L24.9553 31.7615H28.1719C29.1689 31.7547 29.9803 30.95 29.9892 29.9442V29.8972C29.9825 28.9003 29.1689 28.0889 28.1719 28.0799H26.4552L29.9959 19.2572L39.6457 43.2576C39.8245 43.6287 40.0481 43.9528 40.3722 44.1786C40.6739 44.4021 41.045 44.5183 41.4161 44.5273C41.9883 44.5273 42.4376 44.3574 42.7617 44.0087C43.0858 43.66 43.2557 43.2129 43.2557 42.6407C43.2624 42.4082 43.2244 42.169 43.1328 41.9522L43.1305 41.9544Z" fill="white"/>
<defs>
<linearGradient id="paint0_linear_2169_14687" x1="53.2024" y1="11.6683" x2="8.10298" y2="48.0948" gradientUnits="userSpaceOnUse">
<stop stop-color="#B6509E"/>
<stop offset="1" stop-color="#2EBAC6"/>
</linearGradient>
</defs>
</svg>
