<svg width="60" height="60" viewBox="0 0 60 60" fill="none" xmlns="http://www.w3.org/2000/svg">
<path d="M59.1019 37.2567C55.0941 53.3282 38.815 63.1097 22.7393 59.1019C6.67034 55.0941 -3.11098 38.8169 0.899006 22.7455C4.90452 6.67179 21.1836 -3.10967 37.2548 0.898133C53.3283 4.90594 63.1096 21.1853 59.1019 37.259V37.2567Z" fill="#F7931A"/>
<path d="M43.2296 25.7251C43.8264 21.733 40.7865 19.5871 36.6312 18.1543L37.979 12.7473L34.6866 11.9269L33.3745 17.1932C32.5094 16.9764 31.6198 16.773 30.7369 16.5718L32.0602 11.272L28.7699 10.4517L27.4199 15.8587C26.7046 15.6956 26.0005 15.5346 25.3165 15.3647L25.321 15.3469L20.7813 14.2136L19.905 17.7296C19.905 17.7296 22.3481 18.2884 22.2967 18.3242C23.6289 18.6573 23.8703 19.5402 23.8301 20.2398L22.2945 26.4002C22.3861 26.4225 22.5046 26.4583 22.6365 26.5097C22.527 26.4829 22.4107 26.4516 22.2878 26.4225L20.1353 35.0528C19.9721 35.4574 19.5586 36.0654 18.6265 35.8352C18.66 35.8821 16.2326 35.2384 16.2326 35.2384L14.5986 39.007L18.8835 40.0755C19.6815 40.2744 20.4616 40.4845 21.2305 40.6812L19.867 46.1509L23.1551 46.9712L24.5051 41.5597C25.4037 41.8033 26.2754 42.0291 27.1293 42.2414L25.7837 47.6284L29.0761 48.4487L30.4374 42.988C36.0523 44.0497 40.2724 43.6228 42.0494 38.5443C43.4821 34.456 41.9778 32.0978 39.0251 30.56C41.1754 30.0638 42.7959 28.6488 43.2296 25.7274V25.7251ZM35.708 36.2733C34.691 40.3616 27.8065 38.1509 25.5758 37.5966L27.3841 30.3499C29.6148 30.9065 36.772 32.0084 35.708 36.2733ZM36.7273 25.667C35.7997 29.3865 30.0708 27.4955 28.2111 27.0328L29.8495 20.4611C31.707 20.9238 37.6929 21.7889 36.7273 25.667Z" fill="white"/>
</svg>
