<svg xmlns="http://www.w3.org/2000/svg" width="60" height="60" fill="none"><g clip-path="url(#clip0_3630_3707)"><path fill="#F0B90B" d="M30 0c16.569 0 30 13.431 30 30 0 16.569-13.431 30-30 30C13.431 60 0 46.569 0 30 0 13.431 13.431 0 30 0z"/><path fill="#fff" d="M17.232 22.38L30.012 9.6l5.095 5.096-12.78 12.78-5.095-5.096zm.01 15.272l20.423-20.424 5.095 5.096-20.423 20.424-5.096-5.096zm28.062-12.77L24.88 45.304l5.096 5.095L50.4 29.977l-5.097-5.096h.001zM9.601 30.01l5.095-5.096 5.096 5.096-5.096 5.095-5.095-5.095z"/></g><defs><clipPath id="clip0_3630_3707"><path fill="#fff" d="M0 0h60v60H0z"/></clipPath></defs></svg>