<svg width="34" height="34" viewBox="0 0 34 34" xmlns="http://www.w3.org/2000/svg" xmlns:xlink="http://www.w3.org/1999/xlink">
    <defs>
        <path d="M12.82 0h6.36c4.458 0 6.075.464 7.704 1.336a9.086 9.086 0 0 1 3.78 3.78C31.536 6.746 32 8.362 32 12.819v6.362c0 4.457-.464 6.074-1.336 7.703a9.086 9.086 0 0 1-3.78 3.78c-1.63.872-3.246 1.336-7.703 1.336h-6.362c-4.457 0-6.074-.464-7.703-1.336a9.086 9.086 0 0 1-3.78-3.78C.464 25.254 0 23.638 0 19.181v-6.362c0-4.457.464-6.074 1.336-7.703a9.086 9.086 0 0 1 3.78-3.78C6.746.464 8.362 0 12.819 0z" id="oygvnic3ga"/>
    </defs>
    <g transform="translate(1 1)" fill="none" fill-rule="evenodd">
        <mask id="cpzc3x3qib" fill="#fff">
            <use xlink:href="#oygvnic3ga"/>
        </mask>
        <use stroke-opacity=".09" stroke="#FFF" fill="#F3BA2F" xlink:href="#oygvnic3ga"/>
        <path d="M18.506 23.936v2.705L16.198 28l-2.297-1.359v-2.705l2.297 1.359 2.308-1.359zM6.001 14.643 8.297 16l.013 4.642 3.944 2.32v2.718L6 22.013v-7.37zm20.406-.002v7.371l-6.252 3.667v-2.718l3.943-2.32L24.11 16l2.297-1.359zm-6.255-3.68 2.308 1.36h-.01l.013 2.717-3.955 2.32v4.654l-2.297 1.346-2.297-1.346v-4.653l-3.956-2.321V12.32l2.307-1.359 3.932 2.333 3.955-2.333zM9.957 16.962l2.297 1.359v2.705L9.957 19.68v-2.718zm12.494 0v2.718l-2.297 1.346V18.32l2.297-1.359zM8.297 8.64 10.605 10l-2.308 1.358v2.705L6 12.704V10L8.297 8.64zm15.8 0L26.407 10v2.704l-2.308 1.36v-2.706L21.8 10l2.297-1.359zm-7.899 0L18.506 10l-2.308 1.358L13.901 10l2.297-1.359zm0-4.64 6.253 3.68-2.297 1.359-3.956-2.333-3.944 2.333-2.297-1.36L16.198 4z" fill="#FFF" fill-rule="nonzero" mask="url(#cpzc3x3qib)"/>
    </g>
</svg>
