<svg width="36" height="36" viewBox="0 0 36 36" fill="none" xmlns="http://www.w3.org/2000/svg">
<g clip-path="url(#clip0_2819_3303)">
<path d="M30.4733 6.88846C28.1764 5.87461 25.7172 5.12885 23.1465 4.70479C23.1009 4.69504 23.0552 4.71941 23.0299 4.7584C22.7155 5.29945 22.3606 6.00622 22.1172 6.56188C19.3487 6.16219 16.5955 6.16219 13.8879 6.56188C13.6445 5.99647 13.2795 5.29945 12.96 4.7584C12.9347 4.71941 12.889 4.69991 12.8434 4.70479C10.2727 5.12885 7.81354 5.87461 5.51664 6.88846C5.49636 6.89821 5.48114 6.91283 5.46593 6.92746C0.801145 13.6296 -0.476601 20.166 0.147061 26.6244C0.147061 26.6536 0.167343 26.6878 0.192695 26.7073C3.27044 28.8812 6.25692 30.2021 9.18255 31.0746C9.22819 31.0892 9.27889 31.0746 9.30931 31.0356C10.004 30.1241 10.6175 29.1688 11.1499 28.1598C11.1803 28.1013 11.1499 28.0331 11.089 28.0087C10.1104 27.6529 9.17748 27.2142 8.28002 26.7219C8.20903 26.6829 8.20396 26.5854 8.26988 26.5367C8.45748 26.4002 8.64509 26.2588 8.82762 26.1175C8.85805 26.0931 8.90368 26.0882 8.94424 26.1029C14.8361 28.6911 21.2147 28.6911 27.0355 26.1029C27.0761 26.0834 27.1217 26.0882 27.1521 26.1175C27.3347 26.2588 27.5223 26.4051 27.7099 26.5367C27.7758 26.5854 27.7707 26.6829 27.6997 26.7219C26.8023 27.2239 25.8693 27.6529 24.8907 28.0087C24.8248 28.0331 24.7995 28.1013 24.8299 28.1647C25.3724 29.1736 25.9859 30.129 26.6654 31.0405C26.6958 31.0795 26.7465 31.0941 26.7921 31.0795C29.733 30.207 32.7144 28.8861 35.7972 26.7121C35.8226 26.6926 35.8428 26.6634 35.8428 26.6341C36.5933 19.1668 34.5854 12.684 30.5189 6.9372C30.5087 6.91771 30.4935 6.90308 30.4733 6.89821V6.88846ZM12.0321 22.6957C10.2575 22.6957 8.7972 21.1311 8.7972 19.2058C8.7972 17.2804 10.2321 15.7158 12.0321 15.7158C13.8321 15.7158 15.2975 17.295 15.2671 19.2058C15.2671 21.1262 13.8321 22.6957 12.0321 22.6957ZM23.9933 22.6957C22.2186 22.6957 20.7583 21.1311 20.7583 19.2058C20.7583 17.2804 22.1933 15.7158 23.9933 15.7158C25.7933 15.7158 27.2586 17.295 27.2282 19.2058C27.2282 21.1262 25.8085 22.6957 23.9933 22.6957Z" fill="white" fill-opacity="1"/>
</g>
<defs>
<clipPath id="clip0_2819_3303">
<rect width="36" height="36" fill="white"/>
</clipPath>
</defs>
</svg>
