<svg width="60" height="60" viewBox="0 0 60 60" fill="none" xmlns="http://www.w3.org/2000/svg">
<path d="M30 0C46.5703 0 60 13.4319 60 30C60 46.5681 46.5703 60 30 60C13.4297 60 0 46.5681 0 30C0 13.4319 13.4319 0 30 0Z" fill="#F5AC37"/>
<path d="M31.5761 32.1191H42.9761C43.2198 32.1191 43.3338 32.1191 43.3517 31.7994C43.4456 30.6393 43.4456 29.4725 43.3517 28.3124C43.3517 28.0866 43.2399 27.9927 42.9962 27.9927H20.3079C20.0263 27.9927 19.9525 28.0866 19.9525 28.3481V31.6854C19.9525 31.9731 20.1023 32.1168 20.4018 32.1168H31.5783L31.5761 32.1191ZM42.0775 24.0944C42.1111 24.0094 42.1111 23.9155 42.0775 23.8328C41.8875 23.4193 41.6618 23.0236 41.4002 22.6526C41.0068 22.0178 40.5419 21.4343 40.0121 20.909C39.7618 20.5916 39.4734 20.3077 39.1493 20.0663C37.5265 18.6849 35.5974 17.7081 33.523 17.2163C32.4769 16.9816 31.4084 16.8698 30.3355 16.8788H20.2677C19.9861 16.8788 19.948 16.9906 19.948 17.2342V23.8909C19.948 24.1726 19.948 24.2464 20.3034 24.2464H41.9412C41.9412 24.2464 42.129 24.2084 42.167 24.0966H42.0775V24.0944ZM42.0775 36.0197C41.7579 35.9839 41.4383 35.9839 41.1186 36.0197H20.3258C20.0442 36.0197 19.9503 36.0197 19.9503 36.3952V42.9022C19.9503 43.2017 19.9503 43.2777 20.3258 43.2777H29.9264C30.3847 43.3135 30.8451 43.28 31.2944 43.1838C32.687 43.0832 34.0573 42.7815 35.3649 42.283C35.841 42.1176 36.2993 41.903 36.7329 41.6459H36.8648C39.1158 40.4746 40.9443 38.6372 42.0954 36.3796C42.0954 36.3796 42.2273 36.0957 42.0798 36.0219L42.0775 36.0197ZM16.1816 46.6486V36.2812C16.1816 36.0376 16.1816 35.9996 15.882 35.9996H11.8138C11.588 35.9996 11.4941 35.9996 11.4941 35.7V32.137H15.844C16.0877 32.137 16.1816 32.137 16.1816 31.8173V28.2922C16.1816 28.0665 16.1816 28.0106 15.882 28.0106H11.8138C11.588 28.0106 11.4941 28.0106 11.4941 27.7111V24.4118C11.4941 24.2061 11.4941 24.1502 11.7937 24.1502H15.8239C16.1056 24.1502 16.1793 24.1502 16.1793 23.7948V13.689C16.1793 13.3895 16.1793 13.3135 16.5549 13.3135H30.6171C31.6387 13.3537 32.6513 13.4655 33.6549 13.651C35.7226 14.0332 37.7075 14.7709 39.5226 15.826C40.7274 16.5346 41.8361 17.3907 42.8219 18.3764C43.564 19.1476 44.2346 19.9814 44.827 20.871C45.4171 21.7719 45.9066 22.733 46.2911 23.7389C46.338 24.0005 46.5884 24.1771 46.8521 24.1323H50.2073C50.4949 24.1323 50.6447 24.2702 50.6566 24.5459V27.6217C50.6566 27.9212 50.5449 27.9972 50.2431 27.9972H47.6546C47.3931 27.9972 47.3171 27.9972 47.335 28.3347C47.4378 29.477 47.4378 30.6237 47.335 31.7659C47.335 32.0856 47.335 32.1213 47.6926 32.1213H50.6522C50.784 32.289 50.6522 32.4589 50.6522 32.6287C50.67 32.8456 50.67 33.0668 50.6522 33.2837V35.5525C50.6522 35.8722 50.5583 35.966 50.2766 35.966H46.7337C46.4856 35.9191 46.2464 36.0778 46.1905 36.3215C45.3478 38.5143 43.9977 40.4813 42.2519 42.0595C41.6148 42.6339 40.9443 43.1727 40.2468 43.6711C39.4958 44.1026 38.7648 44.5518 37.9959 44.9095C36.5787 45.5465 35.0945 46.016 33.57 46.3155C32.1237 46.5748 30.6552 46.6933 29.1821 46.6709H16.1681V46.653L16.1726 46.6486H16.1816Z" fill="#FEFEFD"/>
</svg>
