<svg width="60" height="60" viewBox="0 0 60 60" fill="none" xmlns="http://www.w3.org/2000/svg">
<path d="M30 60C46.5685 60 60 46.5685 60 30C60 13.4315 46.5685 0 30 0C13.4314 0 0 13.4315 0 30C0 46.5685 13.4314 60 30 60Z" fill="#627EEA"/>
<path fill-rule="evenodd" clip-rule="evenodd" d="M30.0471 5.3894L14.999 30.3846L30.0471 39.3258L45.0013 30.3846L30.0471 5.3894ZM14.999 33.3642L30.0471 42.2093L45.0013 33.3642L30.0471 54.6108L14.999 33.3642Z" fill="white"/>
<path fill-rule="evenodd" clip-rule="evenodd" d="M30.0469 39.2677V5.3894L44.9586 30.313L30.0469 39.2654V39.2677ZM44.9094 33.3978L30.0469 54.6108V42.2495L44.9094 33.4V33.3978Z" fill="#C0CBF7"/>
<path opacity="0.8" fill-rule="evenodd" clip-rule="evenodd" d="M30.0471 23.6562L14.999 30.3845L30.0471 39.3257L45.0013 30.3845L30.0471 23.6562Z" fill="#8198EE"/>
</svg>
