<svg width="60" height="60" viewBox="0 0 60 60" fill="none" xmlns="http://www.w3.org/2000/svg">
<path d="M30 60C46.5685 60 60 46.5686 60 30C60 13.4315 46.5685 0 30 0C13.4314 0 0 13.4315 0 30C0 46.5686 13.4314 60 30 60Z" fill="#2A5ADA"/>
<path fill-rule="evenodd" clip-rule="evenodd" d="M29.9995 7.49939L25.8732 9.87328L14.6274 16.3758L10.501 18.7497V41.2502L14.6274 43.6241L25.976 50.1266L30.1024 52.5005L34.2287 50.1266L45.3717 43.6241L49.4981 41.2502V18.7497L45.3717 16.3758L34.1259 9.87328L29.9973 7.49939H29.9995ZM17.9982 36.7483V23.2493L29.9995 16.4987L42.0009 23.2493V36.7483L29.9995 43.4989L17.9982 36.7483Z" fill="white"/>
</svg>
