<svg width="41" height="34" viewBox="0 0 41 34" xmlns="http://www.w3.org/2000/svg" xmlns:xlink="http://www.w3.org/1999/xlink">
    <defs>
        <path d="M12.82 0h6.36c4.458 0 6.075.464 7.704 1.336a9.086 9.086 0 0 1 3.78 3.78C31.536 6.746 32 8.362 32 12.819v6.362c0 4.457-.464 6.074-1.336 7.703a9.086 9.086 0 0 1-3.78 3.78c-1.63.872-3.246 1.336-7.703 1.336h-6.362c-4.457 0-6.074-.464-7.703-1.336a9.086 9.086 0 0 1-3.78-3.78C.464 25.254 0 23.638 0 19.181v-6.362c0-4.457.464-6.074 1.336-7.703a9.086 9.086 0 0 1 3.78-3.78C6.746.464 8.362 0 12.819 0z" id="6dzshya0ea"/>
    </defs>
    <g fill="none" fill-rule="evenodd" opacity=".7">
        <g transform="translate(1 1)">
            <mask id="h5j97c8ogb" fill="#fff">
                <use xlink:href="#6dzshya0ea"/>
            </mask>
            <use stroke-opacity=".09" stroke="#FFF" fill="#F3BA2F" xlink:href="#6dzshya0ea"/>
            <path d="M18.506 23.936v2.705L16.198 28l-2.297-1.359v-2.705l2.297 1.359 2.308-1.359zM6.001 14.643 8.297 16l.013 4.642 3.944 2.32v2.718L6 22.013v-7.37zm20.406-.002v7.371l-6.252 3.667v-2.718l3.943-2.32L24.11 16l2.297-1.359zm-6.255-3.68 2.308 1.36h-.01l.013 2.717-3.955 2.32v4.654l-2.297 1.346-2.297-1.346v-4.653l-3.956-2.321V12.32l2.307-1.359 3.932 2.333 3.955-2.333zM9.957 16.962l2.297 1.359v2.705L9.957 19.68v-2.718zm12.494 0v2.718l-2.297 1.346V18.32l2.297-1.359zM8.297 8.64 10.605 10l-2.308 1.358v2.705L6 12.704V10L8.297 8.64zm15.8 0L26.407 10v2.704l-2.308 1.36v-2.706L21.8 10l2.297-1.359zm-7.899 0L18.506 10l-2.308 1.358L13.901 10l2.297-1.359zm0-4.64 6.253 3.68-2.297 1.359-3.956-2.333-3.944 2.333-2.297-1.36L16.198 4z" fill="#FFF" fill-rule="nonzero" mask="url(#h5j97c8ogb)"/>
        </g>
        <g transform="translate(23 15)" fill-rule="nonzero">
            <circle fill="#FF0420" cx="9" cy="9" r="9"/>
            <path d="M6.542 11.077c-.499 0-.907-.126-1.224-.377-.315-.254-.472-.62-.472-1.09 0-.1.01-.219.03-.362.054-.323.13-.71.231-1.166.284-1.234 1.02-1.851 2.204-1.851.321 0 .612.057.866.176.254.11.455.283.602.512.147.226.221.496.221.808 0 .093-.01.211-.03.355-.064.398-.137.789-.228 1.166-.147.613-.398 1.076-.759 1.38-.358.302-.84.449-1.441.449zm.09-.969a.86.86 0 0 0 .595-.222c.168-.147.288-.373.358-.682.097-.423.17-.789.221-1.104.017-.094.027-.19.027-.29 0-.41-.198-.614-.596-.614a.882.882 0 0 0-.602.222c-.163.147-.28.373-.35.682-.078.301-.151.667-.228 1.104-.017.09-.027.183-.027.284-.003.416.2.62.602.62zM9.147 11.077c-.053 0-.091-.015-.121-.048-.023-.037-.03-.077-.023-.125l.982-4.5a.183.183 0 0 1 .08-.125.213.213 0 0 1 .136-.048h1.893c.527 0 .948.107 1.267.317.322.214.485.52.485.922 0 .114-.015.236-.042.361-.117.531-.356.922-.72 1.177-.357.254-.846.38-1.468.38h-.96l-.326 1.516a.197.197 0 0 1-.08.125.213.213 0 0 1-.136.048h-.967zm2.518-2.644a.857.857 0 0 0 .52-.159.757.757 0 0 0 .3-.457c.015-.078.022-.148.022-.207a.389.389 0 0 0-.121-.306c-.08-.074-.22-.11-.413-.11h-.854l-.27 1.239h.816z" fill="#FFF"/>
        </g>
    </g>
</svg>
