<svg width="24" height="24" viewBox="0 0 24 24" fill="none" xmlns="http://www.w3.org/2000/svg">
    <path d="M12.0075 24C18.6308 24 23.9967 18.6274 23.9925 12C23.9884 5.37258 18.6158 0 11.9925 0C5.36924 0 0.00334946 5.37258 0.00748124 12C0.011613 18.6274 5.3842 24 12.0075 24Z" fill="#8247E5"/>
    <path d="M16.1558 9.23702C15.8608 9.06808 15.481 9.06808 15.1431 9.23702L12.7807 10.6296L11.178 11.5154L8.85759 12.908C8.56262 13.077 8.18274 13.077 7.84487 12.908L6.03126 11.8113C5.73629 11.6423 5.52535 11.3054 5.52535 10.9255V8.81602C5.52535 8.47814 5.69428 8.14116 6.03126 7.93022L7.84487 6.87548C8.13984 6.70655 8.51972 6.70655 8.85759 6.87548L10.6712 7.97223C10.9662 8.14117 11.1771 8.47814 11.1771 8.85802V10.2497L12.7798 9.32193V7.88731C12.7798 7.54944 12.6108 7.21246 12.2739 7.00152L8.89871 5.01898C8.60374 4.85004 8.22386 4.85004 7.88598 5.01898L4.42682 7.04352C4.08894 7.21246 3.9209 7.54944 3.9209 7.88731V11.8533C3.9209 12.1912 4.08984 12.5281 4.42682 12.7391L7.84397 14.7216C8.13894 14.8906 8.51883 14.8906 8.8567 14.7216L11.1771 13.3719L12.7798 12.4441L15.1002 11.0944C15.3952 10.9255 15.775 10.9255 16.1129 11.0944L17.9265 12.1492C18.2215 12.3181 18.4324 12.6551 18.4324 13.0349V15.1444C18.4324 15.4823 18.2635 15.8193 17.9265 16.0302L16.1549 17.085C15.86 17.2539 15.4801 17.2539 15.1422 17.085L13.3286 16.0302C13.0336 15.8613 12.8227 15.5243 12.8227 15.1444V13.7947L11.22 14.7225V16.1151C11.22 16.453 11.389 16.79 11.7259 17.0009L15.1431 18.9835C15.4381 19.1524 15.8179 19.1524 16.1558 18.9835L19.573 17.0009C19.8679 16.832 20.0789 16.495 20.0789 16.1151V12.1071C20.0789 11.7693 19.91 11.4323 19.573 11.2213L16.1558 9.2388V9.23702Z" fill="white"/>
</svg>