<svg width="60" height="60" viewBox="0 0 60 60" fill="none" xmlns="http://www.w3.org/2000/svg">
<path d="M30.0187 60C46.5769 60 59.9916 46.5685 59.9813 30C59.971 13.4315 46.5395 0 29.9813 0C13.4231 0 0.00837366 13.4315 0.0187031 30C0.0290325 46.5685 13.4605 60 30.0187 60Z" fill="#26A17B"/>
<path d="M33.1958 32.7691V32.7646C32.9879 32.778 31.9175 32.8428 29.5354 32.8428C27.6316 32.8428 26.2953 32.7892 25.8238 32.7646V32.7691C18.4988 32.4451 13.0373 31.1736 13.0373 29.6451C13.0373 28.1166 18.5055 26.8429 25.8238 26.5211V31.5021C26.302 31.5356 27.6763 31.6182 29.5712 31.6182C31.8461 31.6182 32.9857 31.5222 33.198 31.5021V26.5256C40.5074 26.8541 45.9553 28.1256 45.9553 29.6496C45.9553 31.1736 40.5029 32.4473 33.198 32.7735L33.1958 32.7691ZM33.198 26.0094V21.5536H43.3967V14.7604H15.634V21.5536H25.8327V26.0094C17.5445 26.3893 11.3145 28.0295 11.3145 29.9959C11.3145 31.9624 17.549 33.6026 25.8327 33.9892V48.2705H33.2047V33.9892C41.4794 33.6093 47.6983 31.9691 47.6983 30.0026C47.6983 28.0362 41.4772 26.396 33.2047 26.0161" fill="white"/>
</svg>
