<svg width="60" height="60" viewBox="0 0 60 60" fill="none" xmlns="http://www.w3.org/2000/svg">
<path d="M30.0187 60C46.5769 60 59.9916 46.5686 59.9813 30C59.971 13.4315 46.5395 0 29.9813 0C13.4231 0 0.00837366 13.4315 0.0187031 30C0.0290325 46.5686 13.4605 60 30.0187 60Z" fill="#FF007A"/>
<path d="M26.2432 19.2104C25.8231 19.1501 25.803 19.13 26.0019 19.1099C26.3818 19.0495 27.2645 19.13 27.8834 19.2708C29.3248 19.6104 30.6275 20.4931 32.0085 22.035L32.3683 22.4551L32.889 22.3746C35.1124 22.0149 37.3962 22.2942 39.2978 23.1769C39.8185 23.4182 40.6386 23.8986 40.7391 24.0171C40.7794 24.0573 40.8397 24.3165 40.8799 24.578C41.0207 25.5187 40.9604 26.2204 40.6587 26.7612C40.4978 27.0606 40.4978 27.141 40.5984 27.4025C40.6788 27.6036 40.9179 27.7422 41.1391 27.7422C41.6196 27.7422 42.1201 26.9802 42.3615 25.9187L42.462 25.4986L42.643 25.6997C43.6642 26.8416 44.4665 28.4237 44.5849 29.5455L44.6251 29.8449L44.4441 29.5835C44.1447 29.1231 43.8631 28.8215 43.4832 28.5622C42.8017 28.1019 42.0821 27.9612 40.1783 27.8606C38.4554 27.76 37.4744 27.6193 36.5135 27.2997C34.8711 26.7589 34.0308 26.0573 32.0867 23.4741C31.2264 22.3322 30.6856 21.7109 30.1449 21.1903C28.9628 20.0484 27.7807 19.4473 26.2388 19.2082L26.2432 19.2104Z" fill="white"/>
<path d="M41.166 21.7535C41.2062 20.9915 41.3068 20.4909 41.5258 20.0306C41.6062 19.8496 41.6866 19.6909 41.7068 19.6909C41.7269 19.6909 41.6866 19.8317 41.6263 19.9903C41.4654 20.4306 41.4453 21.0518 41.5459 21.7535C41.6866 22.654 41.747 22.7747 42.7079 23.7557C43.1481 24.216 43.6687 24.797 43.8699 25.0383L44.2095 25.4785L43.8699 25.159C43.4498 24.759 42.4889 23.997 42.2676 23.8964C42.1269 23.816 42.1068 23.816 42.0062 23.9166C41.9258 23.997 41.9056 24.1177 41.9056 24.6987C41.8855 25.5992 41.7649 26.1601 41.4654 26.7411C41.3045 27.0405 41.2844 26.9824 41.4252 26.6405C41.5258 26.3791 41.5459 26.2607 41.5459 25.3981C41.5459 23.6551 41.3448 23.235 40.1247 22.5333C39.8252 22.3523 39.3046 22.0931 39.0029 21.9523C38.6833 21.8116 38.442 21.6909 38.4621 21.6909C38.5023 21.6507 39.6844 21.9903 40.1448 22.1914C40.8464 22.4708 40.9649 22.4909 41.0453 22.4708C41.1057 22.4104 41.1459 22.2495 41.166 21.749V21.7535Z" fill="white"/>
<path d="M27.0659 24.7389C26.2257 23.5769 25.6849 21.7758 25.8033 20.4328L25.8436 20.0127L26.0447 20.0529C26.4045 20.1133 27.0257 20.3523 27.3273 20.5333C28.1296 21.0138 28.4893 21.6752 28.829 23.3177C28.9296 23.7981 29.0703 24.359 29.1284 24.54C29.229 24.8394 29.6089 25.5411 29.9284 25.9813C30.1497 26.3009 30.0089 26.4618 29.5083 26.4215C28.7463 26.3411 27.7251 25.6394 27.0659 24.7389Z" fill="white"/>
<path d="M40.1429 33.4517C36.1765 31.8495 34.7754 30.4685 34.7754 28.1244C34.7754 27.7847 34.7955 27.5032 34.7955 27.5032C34.8156 27.5032 34.9564 27.6239 35.1352 27.7646C35.9352 28.406 36.8379 28.6853 39.3407 29.0473C40.8021 29.2685 41.6446 29.4272 42.4043 29.6886C44.8267 30.4908 46.3305 32.1311 46.6903 34.3545C46.7909 34.9958 46.7305 36.2181 46.5696 36.8572C46.4289 37.3578 46.0289 38.2784 45.9283 38.2986C45.9082 38.2986 45.868 38.198 45.868 38.0371C45.8278 37.1969 45.4076 36.3947 44.706 35.7735C43.8658 35.0517 42.7842 34.5109 40.1407 33.4495L40.1429 33.4517Z" fill="white"/>
<path d="M37.3406 34.1108C37.3004 33.8114 37.1998 33.4293 37.1395 33.2706L37.0389 32.9712L37.2199 33.1924C37.4814 33.4919 37.6803 33.8539 37.8613 34.3544C38.0021 34.7343 38.0021 34.855 38.0021 35.4762C38.0021 36.0974 37.982 36.2181 37.8613 36.5577C37.6602 37.0985 37.4211 37.4784 37.0211 37.8985C36.2993 38.6404 35.3585 39.0404 34.0178 39.2214C33.7764 39.2415 33.0971 39.3018 32.496 39.3421C30.9943 39.4225 29.9932 39.5834 29.0905 39.9029C28.9698 39.9432 28.8491 39.9834 28.829 39.9633C28.7888 39.923 29.41 39.5633 29.9106 39.3219C30.6122 38.9823 31.3318 38.8013 32.9139 38.5197C33.696 38.399 34.496 38.2404 34.6971 38.1599C36.6792 37.5387 37.6602 35.9968 37.3406 34.1153V34.1108Z" fill="white"/>
<path d="M39.162 37.3354C38.6413 36.1935 38.5207 35.112 38.8022 34.0908C38.8424 33.9902 38.8827 33.8896 38.9229 33.8896C38.9631 33.8896 39.0838 33.95 39.2022 34.0304C39.4435 34.1913 39.9441 34.4706 41.2245 35.1723C42.8469 36.0527 43.7675 36.7343 44.4088 37.5164C44.9697 38.198 45.3094 38.9778 45.4703 39.9387C45.5708 40.4795 45.5105 41.7823 45.3697 42.3231C44.9295 44.0258 43.9284 45.3867 42.4647 46.1688C42.2435 46.2895 42.0647 46.3699 42.0446 46.3699C42.0245 46.3699 42.105 46.1688 42.2256 45.9297C42.7061 44.9085 42.7664 43.9275 42.4066 42.8258C42.1854 42.1443 41.7251 41.3242 40.8044 39.941C39.7028 38.3388 39.4435 37.9186 39.162 37.3376V37.3354Z" fill="white"/>
<path d="M24.241 43.4649C25.7225 42.2224 27.546 41.342 29.2286 41.0604C29.9504 40.9398 31.1504 40.98 31.8118 41.161C32.8733 41.4403 33.8341 42.0414 34.3347 42.7833C34.8151 43.5051 35.0364 44.1263 35.2554 45.5073C35.3358 46.0481 35.4364 46.609 35.4565 46.7296C35.6174 47.4514 35.9369 48.0123 36.3369 48.3117C36.9581 48.7721 38.0397 48.7922 39.1011 48.3922C39.2821 48.3318 39.4408 48.2715 39.4408 48.2916C39.481 48.3318 38.9402 48.6916 38.5804 48.8726C38.0799 49.1341 37.6799 49.2123 37.1391 49.2123C36.1782 49.2123 35.3559 48.7117 34.6967 47.7106C34.5559 47.5095 34.2766 46.9285 34.0353 46.3877C33.3336 44.7654 32.9738 44.285 32.1537 43.7442C31.4319 43.2839 30.5113 43.1833 29.8096 43.523C28.889 43.9632 28.6476 45.1453 29.289 45.8671C29.5504 46.1665 30.0308 46.4078 30.4308 46.4682C31.1727 46.5687 31.8118 45.9877 31.8118 45.2458C31.8118 44.7654 31.6308 44.4838 31.1504 44.2649C30.509 43.9855 29.8096 44.3051 29.8275 44.9263C29.8275 45.1878 29.9482 45.3464 30.2074 45.4671C30.3146 45.5207 30.328 45.5408 30.2476 45.5274C29.6666 45.4067 29.5258 44.6872 29.9862 44.2246C30.547 43.6637 31.7291 43.9051 32.1291 44.685C32.29 45.0045 32.3101 45.6458 32.1694 46.0458C31.8297 46.9263 30.8666 47.3866 29.8856 47.1274C29.2242 46.9464 28.9448 46.7676 28.1426 45.9453C26.7415 44.504 26.2007 44.2224 24.1963 43.923L23.8164 43.8626L24.2365 43.4626L24.241 43.4649Z" fill="white"/>
<path fill-rule="evenodd" clip-rule="evenodd" d="M13.7073 11.2396C18.3731 16.9066 25.5641 25.7199 25.9239 26.2003C26.2233 26.6003 26.1049 26.9825 25.6043 27.2618C25.325 27.4227 24.744 27.5813 24.4624 27.5813C24.1429 27.5813 23.7608 27.4204 23.5016 27.1612C23.3206 26.9802 22.5407 25.8383 20.7776 23.0965C19.4368 20.9937 18.2949 19.2507 18.2748 19.2306C18.2212 19.2038 19.0093 20.6459 20.639 23.5568C22.1809 26.3009 22.6815 27.2819 22.6815 27.4025C22.6815 27.664 22.601 27.8025 22.2815 28.1646C21.7407 28.7657 21.4994 29.4472 21.3206 30.8684C21.1195 32.4505 20.5787 33.5723 19.0368 35.474C18.1363 36.5957 17.9955 36.7968 17.7743 37.2572C17.4949 37.8181 17.4145 38.1376 17.3743 38.8594C17.3341 39.6214 17.4145 40.1018 17.6357 40.8214C17.8368 41.4627 18.0558 41.8828 18.5966 42.7029C19.0569 43.4247 19.3385 43.9655 19.3385 44.1643C19.3385 44.3252 19.3787 44.3252 20.1005 44.1643C21.8234 43.7643 23.2446 43.0828 24.0267 42.2426C24.5071 41.7219 24.6278 41.4404 24.6278 40.7208C24.6278 40.2605 24.6077 40.1599 24.487 39.8806C24.2859 39.4404 23.906 39.0784 23.0859 38.5197C22.0044 37.7778 21.544 37.179 21.4234 36.3767C21.3228 35.6952 21.4435 35.2348 22.0446 33.9723C22.6658 32.6695 22.8267 32.1288 22.925 30.8081C22.9854 29.9679 23.0859 29.626 23.325 29.3668C23.5865 29.0875 23.8055 28.9869 24.4267 28.9064C25.4479 28.7657 26.1094 28.5064 26.63 28.0059C27.0903 27.5858 27.2915 27.1657 27.3116 26.5445L27.3317 26.0841L27.0702 25.8048C26.1295 24.7233 13.0905 10.3838 13.0302 10.3838C13.0101 10.3838 13.3296 10.7637 13.7118 11.2441L13.7073 11.2396ZM19.8569 39.7197C20.0781 39.3398 19.9575 38.8594 19.5955 38.618C19.2558 38.3968 18.7351 38.4974 18.7351 38.799C18.7351 38.8795 18.7754 38.9599 18.896 39.0002C19.077 39.1007 19.0972 39.2013 18.9564 39.4203C18.8156 39.6393 18.8156 39.8404 18.9966 39.9812C19.2759 40.2024 19.658 40.0817 19.8569 39.7197Z" fill="white"/>
<path fill-rule="evenodd" clip-rule="evenodd" d="M27.9663 29.1859C27.4859 29.3267 27.0255 29.8473 26.8847 30.368C26.8043 30.6875 26.8445 31.2685 26.9853 31.4495C27.2065 31.7289 27.4054 31.8093 27.9663 31.8093C29.068 31.8093 30.0087 31.3289 30.1093 30.7479C30.2098 30.2674 29.7897 29.606 29.2087 29.3065C28.9093 29.1457 28.2881 29.0853 27.9663 29.1859ZM29.249 30.187C29.4099 29.9456 29.3495 29.6864 29.0479 29.5054C28.5071 29.1658 27.687 29.4451 27.687 29.9658C27.687 30.2272 28.1071 30.5065 28.5071 30.5065C28.7685 30.5065 29.1283 30.3456 29.249 30.187Z" fill="white"/>
</svg>
