<svg width="60" height="60" viewBox="0 0 60 60" fill="none" xmlns="http://www.w3.org/2000/svg">
<g clip-path="url(#clip0_2169_14706)">
<path d="M30.0019 60.2051C46.6886 60.2051 60.1113 46.7397 60.1113 30.0001C60.1113 13.2604 46.6886 -0.204956 30.0019 -0.204956C13.3153 -0.204956 -0.107422 13.2604 -0.107422 30.0001C-0.107422 46.7397 13.3153 60.2051 30.0019 60.2051Z" fill="#2775CA"/>
<path d="M38.2817 34.7815C38.2817 30.3776 35.6471 28.8673 30.3779 28.236C26.6143 27.7316 25.8615 26.7258 25.8615 24.9648C25.8615 23.2039 27.1171 22.0712 29.6252 22.0712C31.8834 22.0712 33.139 22.8263 33.7652 24.7141C33.8917 25.0917 34.2681 25.3424 34.6444 25.3424H36.6527C37.1556 25.3424 37.5319 24.9648 37.5319 24.4604V24.3335C37.0291 21.5637 34.7709 19.4252 31.8864 19.1745V16.154C31.8864 15.6496 31.5101 15.272 30.8838 15.1482H29.0019C28.4991 15.1482 28.1228 15.5258 27.9993 16.154V19.0477C24.2356 19.5521 21.851 22.0682 21.851 25.2155C21.851 29.3687 24.3591 31.0058 29.6282 31.6341C33.142 32.2624 34.2711 33.0175 34.2711 35.0322C34.2711 37.0468 32.5157 38.4302 30.1311 38.4302C26.8702 38.4302 25.7411 37.0468 25.3647 35.159C25.2383 34.6546 24.8619 34.4039 24.4855 34.4039H22.3538C21.851 34.4039 21.4746 34.7815 21.4746 35.2859V35.4127C21.9774 38.5601 23.9827 40.8255 28.1228 41.4537V44.4742C28.1228 44.9787 28.4991 45.3562 29.1254 45.4801H31.0072C31.5101 45.4801 31.8864 45.1025 32.0099 44.4742V41.4537C35.7705 40.8225 38.2817 38.1795 38.2817 34.7815Z" fill="white"/>
<path d="M23.6033 47.9962C13.8177 44.4713 8.79851 33.522 12.4387 23.8322C14.3206 18.5463 18.4606 14.52 23.6033 12.6322C24.1061 12.3815 24.356 12.0039 24.356 11.3726V9.61166C24.356 9.10724 24.1061 8.72968 23.6033 8.60583C23.4768 8.60583 23.2269 8.60584 23.1005 8.7327C11.1832 12.5083 4.65847 25.2186 8.42214 37.1768C10.6803 44.2236 16.0759 49.6363 23.1005 51.9017C23.6033 52.1524 24.1031 51.9017 24.2296 51.3973C24.356 51.2704 24.356 51.1466 24.356 50.8929V49.1319C24.356 48.7513 23.9796 48.2499 23.6033 47.9962ZM36.8996 8.72968C36.3967 8.47897 35.8969 8.72968 35.7705 9.2341C35.644 9.36096 35.644 9.4848 35.644 9.73852V11.4995C35.644 12.0039 36.0204 12.5053 36.3967 12.759C46.1823 16.284 51.2015 27.2333 47.5613 36.923C45.6795 42.2089 41.5394 46.2352 36.3967 48.1231C35.8939 48.3738 35.644 48.7513 35.644 49.3826V51.1436C35.644 51.648 35.8939 52.0256 36.3967 52.1494C36.5232 52.1494 36.7731 52.1494 36.8996 52.0225C48.8169 48.2469 55.3416 35.5366 51.5779 23.5785C49.3197 16.4078 43.8006 10.9951 36.8996 8.72968Z" fill="white"/>
</g>
<defs>
<clipPath id="clip0_2169_14706">
<rect width="60" height="60" fill="white"/>
</clipPath>
</defs>
</svg>
