<svg width="157" height="58" viewBox="0 0 157 58" fill="none" xmlns="http://www.w3.org/2000/svg">
<g filter="url(#filter0_d_2412_13284)">
<path d="M63.8345 6.69653H67.002L71.244 17.0481H71.4115L75.6535 6.69653H78.821V20.9822H76.3372V11.1678H76.2046L72.2557 20.9404H70.3998L66.4508 11.1469H66.3183V20.9822H63.8345V6.69653Z" fill="white"/>
<path d="M85.2901 21.1915C84.2156 21.1915 83.2877 20.9683 82.5063 20.5219C81.7295 20.0708 81.1318 19.4337 80.7132 18.6106C80.2946 17.7828 80.0852 16.8086 80.0852 15.6879C80.0852 14.5858 80.2946 13.6185 80.7132 12.7861C81.1364 11.949 81.7272 11.298 82.4853 10.833C83.2435 10.3633 84.1342 10.1285 85.1575 10.1285C85.818 10.1285 86.4413 10.2354 87.0273 10.4493C87.6181 10.6586 88.139 10.9841 88.5902 11.4259C89.046 11.8677 89.4042 12.4304 89.6646 13.1139C89.9251 13.7929 90.0553 14.602 90.0553 15.5414V16.3157H81.2713V14.6137H87.6343C87.6297 14.13 87.525 13.6999 87.3204 13.3232C87.1157 12.9419 86.8297 12.6419 86.4622 12.4234C86.0994 12.2048 85.6761 12.0955 85.1924 12.0955C84.6761 12.0955 84.2226 12.2211 83.8319 12.4722C83.4412 12.7187 83.1365 13.0442 82.9179 13.4488C82.7039 13.8487 82.5946 14.2881 82.59 14.7671V16.2529C82.59 16.876 82.7039 17.4108 82.9318 17.8572C83.1598 18.299 83.4784 18.6385 83.8877 18.8757C84.297 19.1082 84.7761 19.2244 85.325 19.2244C85.6924 19.2244 86.025 19.1733 86.3227 19.071C86.6203 18.964 86.8785 18.8082 87.0971 18.6036C87.3157 18.399 87.4808 18.1456 87.5925 17.8433L89.9507 18.1084C89.8018 18.7315 89.5181 19.2756 89.0995 19.7406C88.6855 20.201 88.1553 20.5591 87.5087 20.8148C86.8622 21.066 86.1227 21.1915 85.2901 21.1915Z" fill="white"/>
<path d="M96.561 10.268V12.2211H90.4004V10.268H96.561ZM91.9213 7.701H94.447V17.7596C94.447 18.0991 94.4982 18.3595 94.6005 18.5408C94.7075 18.7176 94.847 18.8385 95.0191 18.9036C95.1912 18.9687 95.3819 19.0012 95.5912 19.0012C95.7494 19.0012 95.8936 18.9896 96.0238 18.9663C96.1587 18.9431 96.261 18.9222 96.3308 18.9036L96.7564 20.8776C96.6215 20.9241 96.4285 20.9753 96.1773 21.0311C95.9308 21.0869 95.6284 21.1194 95.2703 21.1287C94.6377 21.1473 94.0679 21.052 93.5609 20.8427C93.0539 20.6288 92.6516 20.2987 92.3539 19.8522C92.0609 19.4058 91.9167 18.8478 91.9213 18.1781V7.701Z" fill="white"/>
<path d="M100.775 21.1985C100.096 21.1985 99.484 21.0776 98.9398 20.8358C98.4003 20.5893 97.9723 20.2266 97.6561 19.7476C97.3444 19.2686 97.1886 18.678 97.1886 17.9758C97.1886 17.3713 97.3002 16.8714 97.5235 16.4761C97.7468 16.0808 98.0514 15.7646 98.4375 15.5274C98.8235 15.2903 99.2584 15.1112 99.7422 14.9903C100.231 14.8648 100.735 14.7741 101.256 14.7183C101.884 14.6532 102.393 14.5951 102.784 14.5439C103.175 14.4881 103.459 14.4044 103.635 14.2928C103.817 14.1765 103.907 13.9975 103.907 13.7557V13.7138C103.907 13.1883 103.752 12.7814 103.44 12.4931C103.128 12.2048 102.679 12.0607 102.093 12.0607C101.475 12.0607 100.984 12.1955 100.621 12.4652C100.263 12.7349 100.021 13.0535 99.8957 13.4209L97.5374 13.086C97.7235 12.435 98.0305 11.8909 98.4584 11.4538C98.8863 11.012 99.4096 10.6818 100.028 10.4633C100.647 10.2401 101.331 10.1285 102.079 10.1285C102.596 10.1285 103.11 10.1889 103.621 10.3098C104.133 10.4307 104.6 10.6307 105.024 10.9097C105.447 11.1841 105.787 11.5584 106.042 12.0328C106.303 12.5071 106.433 13.1 106.433 13.8115V20.9822H104.005V19.5104H103.921C103.768 19.808 103.552 20.0871 103.273 20.3475C102.998 20.6032 102.652 20.8102 102.233 20.9683C101.819 21.1218 101.333 21.1985 100.775 21.1985ZM101.431 19.343C101.938 19.343 102.377 19.243 102.749 19.0431C103.121 18.8385 103.407 18.5687 103.607 18.2339C103.812 17.8991 103.914 17.5341 103.914 17.1388V15.8762C103.835 15.9413 103.7 16.0018 103.51 16.0576C103.324 16.1134 103.114 16.1622 102.882 16.2041C102.649 16.2459 102.419 16.2831 102.191 16.3157C101.963 16.3482 101.765 16.3761 101.598 16.3994C101.221 16.4505 100.884 16.5342 100.586 16.6505C100.289 16.7668 100.054 16.9295 99.8817 17.1388C99.7096 17.3434 99.6236 17.6085 99.6236 17.934C99.6236 18.399 99.7933 18.7501 100.133 18.9873C100.472 19.2244 100.905 19.343 101.431 19.343Z" fill="white"/>
<path d="M117.179 10.268L113.363 20.9822H110.572L106.755 10.268H109.449L111.911 18.2269H112.023L114.493 10.268H117.179Z" fill="white"/>
<path d="M120.721 21.1985C120.042 21.1985 119.43 21.0776 118.886 20.8358C118.347 20.5893 117.919 20.2266 117.603 19.7476C117.291 19.2686 117.135 18.678 117.135 17.9758C117.135 17.3713 117.247 16.8714 117.47 16.4761C117.693 16.0808 117.998 15.7646 118.384 15.5274C118.77 15.2903 119.205 15.1112 119.689 14.9903C120.177 14.8648 120.682 14.7741 121.203 14.7183C121.831 14.6532 122.34 14.5951 122.731 14.5439C123.121 14.4881 123.405 14.4044 123.582 14.2928C123.763 14.1765 123.854 13.9975 123.854 13.7557V13.7138C123.854 13.1883 123.698 12.7814 123.386 12.4931C123.075 12.2048 122.626 12.0607 122.04 12.0607C121.421 12.0607 120.931 12.1955 120.568 12.4652C120.21 12.7349 119.968 13.0535 119.842 13.4209L117.484 13.086C117.67 12.435 117.977 11.8909 118.405 11.4538C118.833 11.012 119.356 10.6818 119.975 10.4633C120.593 10.2401 121.277 10.1285 122.026 10.1285C122.542 10.1285 123.056 10.1889 123.568 10.3098C124.079 10.4307 124.547 10.6307 124.97 10.9097C125.393 11.1841 125.733 11.5584 125.989 12.0328C126.249 12.5071 126.38 13.1 126.38 13.8115V20.9822H123.952V19.5104H123.868C123.714 19.808 123.498 20.0871 123.219 20.3475C122.945 20.6032 122.598 20.8102 122.179 20.9683C121.765 21.1218 121.279 21.1985 120.721 21.1985ZM121.377 19.343C121.884 19.343 122.324 19.243 122.696 19.0431C123.068 18.8385 123.354 18.5687 123.554 18.2339C123.759 17.8991 123.861 17.5341 123.861 17.1388V15.8762C123.782 15.9413 123.647 16.0018 123.456 16.0576C123.27 16.1134 123.061 16.1622 122.828 16.2041C122.596 16.2459 122.365 16.2831 122.138 16.3157C121.91 16.3482 121.712 16.3761 121.545 16.3994C121.168 16.4505 120.831 16.5342 120.533 16.6505C120.235 16.7668 120 16.9295 119.828 17.1388C119.656 17.3434 119.57 17.6085 119.57 17.934C119.57 18.399 119.74 18.7501 120.079 18.9873C120.419 19.2244 120.851 19.343 121.377 19.343Z" fill="white"/>
<path d="M134.767 16.4761V10.268H137.293V20.9822H134.844V19.078H134.732C134.491 19.6778 134.093 20.1684 133.539 20.5498C132.99 20.9311 132.314 21.1218 131.509 21.1218C130.807 21.1218 130.186 20.966 129.646 20.6544C129.111 20.3382 128.693 19.8801 128.39 19.2802C128.088 18.6757 127.937 17.9456 127.937 17.0899V10.268H130.462V16.6993C130.462 17.3783 130.649 17.9177 131.021 18.3176C131.393 18.7176 131.881 18.9175 132.486 18.9175C132.858 18.9175 133.218 18.8268 133.567 18.6455C133.916 18.4641 134.202 18.1944 134.425 17.8363C134.653 17.4736 134.767 17.0202 134.767 16.4761Z" fill="white"/>
<path d="M141.433 6.69653V20.9822H138.908V6.69653H141.433Z" fill="white"/>
<path d="M148.4 10.268V12.2211H142.239V10.268H148.4ZM143.76 7.701H146.286V17.7596C146.286 18.0991 146.337 18.3595 146.439 18.5408C146.546 18.7176 146.686 18.8385 146.858 18.9036C147.03 18.9687 147.22 19.0012 147.43 19.0012C147.588 19.0012 147.732 18.9896 147.862 18.9663C147.997 18.9431 148.1 18.9222 148.169 18.9036L148.595 20.8776C148.46 20.9241 148.267 20.9753 148.016 21.0311C147.769 21.0869 147.467 21.1194 147.109 21.1287C146.476 21.1473 145.906 21.052 145.399 20.8427C144.893 20.6288 144.49 20.2987 144.192 19.8522C143.899 19.4058 143.755 18.8478 143.76 18.1781V7.701Z" fill="white"/>
<path d="M151.085 21.1357C150.662 21.1357 150.299 20.9869 149.997 20.6893C149.695 20.3917 149.546 20.0289 149.55 19.6011C149.546 19.1826 149.695 18.8245 149.997 18.5269C150.299 18.2293 150.662 18.0805 151.085 18.0805C151.495 18.0805 151.851 18.2293 152.153 18.5269C152.46 18.8245 152.616 19.1826 152.62 19.6011C152.616 19.8848 152.541 20.1429 152.397 20.3754C152.258 20.6079 152.071 20.7939 151.839 20.9334C151.611 21.0683 151.36 21.1357 151.085 21.1357Z" fill="white"/>
<path d="M63.8345 32.3908V30.127H74.5029V32.3908H70.526V43.114H67.8113V32.3908H63.8345Z" fill="#FFAA27"/>
<path d="M74.483 43.114V33.3737H77.1025V35.0732H77.204C77.3816 34.4686 77.6797 34.0121 78.0983 33.7035C78.5169 33.3906 78.999 33.2342 79.5445 33.2342C79.6798 33.2342 79.8257 33.2427 79.9821 33.2596C80.1386 33.2765 80.276 33.2997 80.3944 33.3293V35.7263C80.2675 35.6883 80.092 35.6545 79.8679 35.6249C79.6438 35.5953 79.4388 35.5805 79.2527 35.5805C78.8552 35.5805 78.5 35.6671 78.1871 35.8405C77.8784 36.0096 77.6332 36.2463 77.4514 36.5507C77.2738 36.8551 77.185 37.206 77.185 37.6034V43.114H74.483Z" fill="#FFAA27"/>
<path d="M83.5759 43.2979C82.9544 43.2979 82.4004 43.1901 81.9142 42.9745C81.4279 42.7546 81.0431 42.4312 80.7598 42.0042C80.4807 41.573 80.3412 41.0361 80.3412 40.3935C80.3412 39.8524 80.4405 39.398 80.6393 39.0302C80.838 38.6624 81.1086 38.3664 81.4511 38.1424C81.7936 37.9183 82.1827 37.7492 82.6182 37.6351C83.058 37.5209 83.5189 37.4406 84.0009 37.3941C84.5675 37.3349 85.0242 37.28 85.3709 37.2292C85.7177 37.1743 85.9693 37.0939 86.1257 36.9883C86.2822 36.8826 86.3604 36.7261 86.3604 36.519V36.481C86.3604 36.0793 86.2335 35.7686 85.9798 35.5488C85.7304 35.3289 85.3752 35.219 84.9143 35.219C84.428 35.219 84.0411 35.3268 83.7535 35.5424C83.466 35.7538 83.2757 36.0201 83.1827 36.3414L80.6837 36.1385C80.8105 35.5467 81.06 35.0351 81.4321 34.6039C81.8042 34.1685 82.2842 33.8345 82.8719 33.602C83.4639 33.3653 84.1489 33.2469 84.9269 33.2469C85.4682 33.2469 85.9862 33.3103 86.4809 33.4371C86.9799 33.5639 87.4217 33.7605 87.8065 34.0269C88.1956 34.2932 88.5021 34.6356 88.7262 35.0542C88.9503 35.4685 89.0624 35.9652 89.0624 36.5444V43.114H86.4999V41.7633H86.4238C86.2674 42.0676 86.0581 42.3361 85.7959 42.5686C85.5337 42.7969 85.2187 42.9766 84.8508 43.1076C84.483 43.2345 84.058 43.2979 83.5759 43.2979ZM84.3498 41.4335C84.7472 41.4335 85.0982 41.3553 85.4026 41.1989C85.7071 41.0382 85.946 40.8226 86.1194 40.5521C86.2927 40.2815 86.3794 39.975 86.3794 39.6326V38.599C86.2949 38.6539 86.1786 38.7046 86.0306 38.7511C85.8868 38.7934 85.724 38.8336 85.5422 38.8716C85.3604 38.9054 85.1785 38.9372 84.9967 38.9667C84.8149 38.9921 84.65 39.0154 84.502 39.0365C84.1848 39.083 83.9079 39.157 83.6711 39.2584C83.4343 39.3599 83.2504 39.4973 83.1193 39.6706C82.9882 39.8397 82.9226 40.0511 82.9226 40.3048C82.9226 40.6726 83.0558 40.9537 83.3222 41.1482C83.5929 41.3384 83.9354 41.4335 84.3498 41.4335Z" fill="#FFAA27"/>
<path d="M94.0342 43.2725C93.2942 43.2725 92.624 43.0823 92.0235 42.7018C91.4273 42.3171 90.9537 41.7527 90.6028 41.0087C90.256 40.2604 90.0827 39.343 90.0827 38.2565C90.0827 37.1404 90.2624 36.2125 90.6218 35.4727C90.9812 34.7286 91.459 34.1727 92.0553 33.8049C92.6557 33.4329 93.3132 33.2469 94.0278 33.2469C94.5733 33.2469 95.0279 33.3399 95.3915 33.5259C95.7594 33.7077 96.0554 33.936 96.2795 34.2108C96.5078 34.4813 96.6812 34.7477 96.7996 35.0098H96.8821V30.127H99.5777V43.114H96.9138V41.554H96.7996C96.6727 41.8246 96.493 42.093 96.2605 42.3594C96.0321 42.6215 95.734 42.8392 95.3661 43.0125C95.0025 43.1858 94.5585 43.2725 94.0342 43.2725ZM94.8904 41.1228C95.326 41.1228 95.6939 41.0044 95.9941 40.7677C96.2985 40.5267 96.5311 40.1906 96.6918 39.7594C96.8567 39.3282 96.9391 38.823 96.9391 38.2438C96.9391 37.6647 96.8588 37.1616 96.6981 36.7346C96.5374 36.3076 96.3049 35.9779 96.0004 35.7454C95.696 35.5128 95.326 35.3966 94.8904 35.3966C94.4465 35.3966 94.0722 35.5171 93.7678 35.758C93.4633 35.999 93.2329 36.333 93.0764 36.76C92.92 37.187 92.8418 37.6816 92.8418 38.2438C92.8418 38.8103 92.92 39.3113 93.0764 39.7467C93.2371 40.1779 93.4676 40.5161 93.7678 40.7613C94.0722 41.0023 94.4465 41.1228 94.8904 41.1228Z" fill="#FFAA27"/>
<path d="M105.525 43.3042C104.523 43.3042 103.66 43.1013 102.937 42.6954C102.218 42.2854 101.664 41.7062 101.275 40.9579C100.886 40.2054 100.692 39.3155 100.692 38.2882C100.692 37.2863 100.886 36.407 101.275 35.6502C101.664 34.8935 102.212 34.3038 102.918 33.881C103.628 33.4583 104.461 33.2469 105.417 33.2469C106.06 33.2469 106.658 33.3505 107.212 33.5576C107.77 33.7605 108.256 34.067 108.671 34.4771C109.089 34.8872 109.415 35.4029 109.647 36.0244C109.88 36.6416 109.996 37.3645 109.996 38.1931V38.935H101.77V37.2609H107.453C107.453 36.872 107.368 36.5275 107.199 36.2273C107.03 35.9271 106.795 35.6925 106.495 35.5234C106.199 35.3501 105.855 35.2634 105.461 35.2634C105.051 35.2634 104.687 35.3585 104.37 35.5488C104.057 35.7348 103.812 35.9863 103.635 36.3034C103.457 36.6162 103.366 36.965 103.362 37.3497V38.9414C103.362 39.4233 103.451 39.8397 103.628 40.1906C103.81 40.5415 104.066 40.8121 104.396 41.0023C104.726 41.1925 105.117 41.2877 105.569 41.2877C105.869 41.2877 106.144 41.2454 106.394 41.1608C106.643 41.0763 106.857 40.9495 107.034 40.7804C107.212 40.6113 107.347 40.4041 107.44 40.1589L109.939 40.3238C109.812 40.9241 109.552 41.4483 109.159 41.8964C108.77 42.3403 108.267 42.687 107.649 42.9364C107.036 43.1816 106.328 43.3042 105.525 43.3042Z" fill="#FFAA27"/>
<g filter="url(#filter1_i_2412_13284)">
<ellipse cx="29.9258" cy="25" rx="25" ry="25" fill="url(#paint0_linear_2412_13284)"/>
</g>
<path d="M52.5132 25C52.5132 37.4747 42.4005 47.5875 29.9258 47.5875C17.4511 47.5875 7.33838 37.4747 7.33838 25C7.33838 12.5253 17.4511 2.4126 29.9258 2.4126C42.4005 2.4126 52.5132 12.5253 52.5132 25Z" fill="url(#paint1_linear_2412_13284)" fill-opacity="0.8"/>
<path d="M52.5132 25C52.5132 37.4747 42.4005 47.5875 29.9258 47.5875C17.4511 47.5875 7.33838 37.4747 7.33838 25C7.33838 12.5253 17.4511 2.4126 29.9258 2.4126C42.4005 2.4126 52.5132 12.5253 52.5132 25Z" stroke="url(#paint2_linear_2412_13284)" style="mix-blend-mode:overlay"/>
<path opacity="0.6" d="M22.6726 48.7655L45.6664 25.4631L38.1047 17.747L29.9257 17.3729L21.5923 10.3396L4.61703 27.4692C4.08067 27.7374 7.23245 34.8035 13.0238 42.3121C18.8152 49.8207 19.0977 49.57 22.6726 48.7655Z" fill="url(#paint3_linear_2412_13284)"/>
<path d="M29.9258 41.358L45.6665 25.4638V17.7388L29.9258 33.633V41.358Z" fill="url(#paint4_linear_2412_13284)"/>
<path d="M29.9258 41.358L14.1851 25.4638V17.7388L29.9258 33.633V41.358Z" fill="url(#paint5_linear_2412_13284)"/>
<path d="M29.9258 41.358L45.6665 25.4638V17.7388L29.9258 33.633V41.358Z" fill="url(#paint6_linear_2412_13284)"/>
<path d="M45.6665 25.4378L37.877 17.5917V9.87646L45.6665 17.7224V25.4378Z" fill="url(#paint7_linear_2412_13284)"/>
<path d="M29.9258 41.358L14.1851 25.4638V17.7388L29.9258 33.633V41.358Z" fill="url(#paint8_linear_2412_13284)"/>
<path d="M29.958 17.8394L21.9745 25.878V33.5964L29.958 25.5579V17.8394Z" fill="url(#paint9_linear_2412_13284)"/>
<path d="M29.9258 17.8394L37.877 25.878V33.5964L29.9258 25.5579V17.8394Z" fill="url(#paint10_linear_2412_13284)"/>
<path d="M14.1851 25.4378L21.9746 17.5917V9.87646L14.1851 17.7224V25.4378Z" fill="url(#paint11_linear_2412_13284)"/>
<path d="M29.8936 25.6335L37.8771 17.5949V9.87646L29.8936 17.915V25.6335Z" fill="#D28A1C"/>
<path d="M29.9258 25.6335L21.9746 17.5949V9.87646L29.9258 17.915V25.6335Z" fill="#FFAA27"/>
<path fill-rule="evenodd" clip-rule="evenodd" d="M21.6543 9.13135L29.9259 17.403L38.1975 9.13135V17.7779L34.4222 21.733L38.1975 25.8679V34.5105L29.9259 26.2389L21.6543 34.5105V25.8658L25.5175 21.7331L21.6543 17.78V9.13135ZM22.2716 10.6216V17.5285L26.3713 21.7236L22.2716 26.1094V33.0202L29.9259 25.3659L37.5802 33.0202V26.1073L33.5778 21.7236L37.5802 17.5306V10.6216L29.9259 18.2759L22.2716 10.6216Z" fill="white"/>
</g>
<defs>
<filter id="filter0_d_2412_13284" x="0" y="0" width="158.926" height="58" filterUnits="userSpaceOnUse" color-interpolation-filters="sRGB">
<feFlood flood-opacity="0" result="BackgroundImageFix"/>
<feColorMatrix in="SourceAlpha" type="matrix" values="0 0 0 0 0 0 0 0 0 0 0 0 0 0 0 0 0 0 127 0" result="hardAlpha"/>
<feOffset dy="4"/>
<feGaussianBlur stdDeviation="2"/>
<feComposite in2="hardAlpha" operator="out"/>
<feColorMatrix type="matrix" values="0 0 0 0 0 0 0 0 0 0 0 0 0 0 0 0 0 0 0.25 0"/>
<feBlend mode="normal" in2="BackgroundImageFix" result="effect1_dropShadow_2412_13284"/>
<feBlend mode="normal" in="SourceGraphic" in2="effect1_dropShadow_2412_13284" result="shape"/>
</filter>
<filter id="filter1_i_2412_13284" x="4.92578" y="0" width="50" height="56" filterUnits="userSpaceOnUse" color-interpolation-filters="sRGB">
<feFlood flood-opacity="0" result="BackgroundImageFix"/>
<feBlend mode="normal" in="SourceGraphic" in2="BackgroundImageFix" result="shape"/>
<feColorMatrix in="SourceAlpha" type="matrix" values="0 0 0 0 0 0 0 0 0 0 0 0 0 0 0 0 0 0 127 0" result="hardAlpha"/>
<feOffset dy="7"/>
<feGaussianBlur stdDeviation="3"/>
<feComposite in2="hardAlpha" operator="arithmetic" k2="-1" k3="1"/>
<feColorMatrix type="matrix" values="0 0 0 0 1 0 0 0 0 1 0 0 0 0 1 0 0 0 0.3 0"/>
<feBlend mode="normal" in2="shape" result="effect1_innerShadow_2412_13284"/>
</filter>
<linearGradient id="paint0_linear_2412_13284" x1="49.7345" y1="3.27868" x2="7.93124" y2="44.2623" gradientUnits="userSpaceOnUse">
<stop stop-color="#FFAA27"/>
<stop offset="0.504337" stop-color="#4D259B"/>
<stop offset="0.714734" stop-color="#291D99"/>
<stop offset="1" stop-color="#120C40"/>
</linearGradient>
<linearGradient id="paint1_linear_2412_13284" x1="51.3544" y1="-4.91068" x2="15.6401" y2="39.2857" gradientUnits="userSpaceOnUse">
<stop stop-color="#FB9800"/>
<stop offset="0.619557" stop-color="#3D38D5"/>
<stop offset="1" stop-color="#0C0965"/>
</linearGradient>
<linearGradient id="paint2_linear_2412_13284" x1="18.587" y1="11.6121" x2="50.5542" y2="42.8962" gradientUnits="userSpaceOnUse">
<stop stop-color="white"/>
<stop offset="1"/>
</linearGradient>
<linearGradient id="paint3_linear_2412_13284" x1="31.2561" y1="21.9316" x2="16.5064" y2="41.7734" gradientUnits="userSpaceOnUse">
<stop stop-opacity="0.71"/>
<stop offset="0.978714" stop-opacity="0"/>
</linearGradient>
<linearGradient id="paint4_linear_2412_13284" x1="29.9258" y1="29.5484" x2="45.6665" y2="29.5484" gradientUnits="userSpaceOnUse">
<stop stop-color="#A5ABB2"/>
<stop offset="0.21" stop-color="#9FA5AC"/>
<stop offset="0.49" stop-color="#8C939A"/>
<stop offset="0.83" stop-color="#6F767E"/>
<stop offset="1" stop-color="#5D656D"/>
</linearGradient>
<linearGradient id="paint5_linear_2412_13284" x1="14.1851" y1="29.5484" x2="29.9258" y2="29.5484" gradientUnits="userSpaceOnUse">
<stop stop-color="#3E4147"/>
<stop offset="0.3" stop-color="#44474D"/>
<stop offset="0.71" stop-color="#56585F"/>
<stop offset="1" stop-color="#67686F"/>
</linearGradient>
<linearGradient id="paint6_linear_2412_13284" x1="67.5521" y1="53.4447" x2="34.6664" y2="21.7161" gradientUnits="userSpaceOnUse">
<stop stop-color="#FFAA27"/>
<stop offset="0.21" stop-color="#FFAA27"/>
<stop offset="0.49" stop-color="#FFAA27"/>
<stop offset="0.719569" stop-color="#D58710"/>
<stop offset="1" stop-color="#955A00"/>
</linearGradient>
<linearGradient id="paint7_linear_2412_13284" x1="37.661" y1="13.8671" x2="45.6401" y2="20.0667" gradientUnits="userSpaceOnUse">
<stop stop-color="white"/>
<stop offset="1" stop-color="#FFC772" stop-opacity="0.47"/>
</linearGradient>
<linearGradient id="paint8_linear_2412_13284" x1="51.8114" y1="53.4447" x2="18.9257" y2="21.7161" gradientUnits="userSpaceOnUse">
<stop stop-color="#FFAA27"/>
<stop offset="0.21" stop-color="#FFAA27"/>
<stop offset="0.49" stop-color="#FFAA27"/>
<stop offset="0.719569" stop-color="#D58710"/>
<stop offset="1" stop-color="#955A00"/>
</linearGradient>
<linearGradient id="paint9_linear_2412_13284" x1="22.5183" y1="29.4135" x2="29.6479" y2="22.1912" gradientUnits="userSpaceOnUse">
<stop stop-color="#FFBD57"/>
<stop offset="1" stop-color="#D28A1C" stop-opacity="0.62"/>
</linearGradient>
<linearGradient id="paint10_linear_2412_13284" x1="30.4673" y1="29.4135" x2="37.5973" y2="22.2202" gradientUnits="userSpaceOnUse">
<stop stop-color="#FFBD57"/>
<stop offset="1" stop-color="#D28A1C" stop-opacity="0.62"/>
</linearGradient>
<linearGradient id="paint11_linear_2412_13284" x1="22.158" y1="12.5369" x2="12.8481" y2="20.5086" gradientUnits="userSpaceOnUse">
<stop stop-color="white"/>
<stop offset="1" stop-color="#FFC772" stop-opacity="0.63"/>
</linearGradient>
</defs>
</svg>
