<svg width="60" height="60" viewBox="0 0 60 60" fill="none" xmlns="http://www.w3.org/2000/svg">
<path d="M12.288 18.305C22.0702 8.56501 37.9304 8.56501 47.7126 18.305L48.8899 19.4772C49.379 19.9642 49.379 20.7538 48.8899 21.2408L44.8626 25.2507C44.618 25.4942 44.2215 25.4942 43.977 25.2507L42.3568 23.6376C35.5325 16.8427 24.4681 16.8427 17.6437 23.6376L15.9087 25.3651C15.6642 25.6086 15.2677 25.6086 15.0231 25.3651L10.9958 21.3552C10.5066 20.8682 10.5066 20.0786 10.9958 19.5916L12.288 18.305ZM56.0415 26.5979L59.6259 30.1668C60.115 30.6538 60.115 31.4434 59.6259 31.9304L43.4638 48.0228C42.9747 48.5098 42.1817 48.5098 41.6926 48.0228C41.6926 48.0228 41.6926 48.0228 41.6926 48.0228L30.2218 36.6015C30.0995 36.4798 29.9012 36.4798 29.779 36.6015C29.779 36.6015 29.779 36.6015 29.779 36.6015L18.3084 48.0228C17.8193 48.5098 17.0263 48.5098 16.5371 48.0228C16.5371 48.0228 16.5371 48.0228 16.5371 48.0228L0.374647 31.9302C-0.114466 31.4432 -0.114466 30.6536 0.374647 30.1666L3.95899 26.5977C4.4481 26.1107 5.24111 26.1107 5.73022 26.5977L17.2012 38.0192C17.3235 38.1409 17.5217 38.1409 17.644 38.0192C17.644 38.0192 17.644 38.0192 17.644 38.0192L29.1145 26.5977C29.6036 26.1107 30.3966 26.1107 30.8857 26.5977C30.8857 26.5977 30.8857 26.5977 30.8857 26.5977L42.3567 38.0192C42.479 38.1409 42.6772 38.1409 42.7995 38.0192L54.2703 26.5979C54.7594 26.1109 55.5524 26.1109 56.0415 26.5979Z" fill="#3B99FC"/>
</svg>
